unna_bold.sfdir
StartChar: exclam
Encoding: 33 33 256
Width: 286
Flags: MW
HStem: -10 150<129 181.5>
VStem: 64 183<44 85.5> 139 31<215.5 253.5>
LayerCount: 2
Back
Fore
SplineSet
152 637 m 0xa0
 205 637 228 604 228 560 c 0
 228 541 225 522 219 494 c 2
 199 408 l 2
 186 350 170 286 170 221 c 0
 170 210 166 201 155 201 c 0
 143 201 139 210 139 221 c 0
 139 286 122 350 109 408 c 2
 90 494 l 2
 84 522 81 541 81 560 c 0
 81 604 104 637 152 637 c 0xa0
155 140 m 0xc0
 209 140 247 106 247 65 c 0
 247 23 208 -10 155 -10 c 0
 103 -10 64 23 64 65 c 0
 64 106 102 140 155 140 c 0xc0
EndSplineSet
EndChar
StartChar: quotedbl
Encoding: 34 34 262
Width: 267
Flags: MW
HStem: 409 231<61 73 194 206>
VStem: 50 34<423.5 454> 183 34<423.5 454>
LayerCount: 2
Back
Fore
SplineSet
15 585 m 0
 15 619 34 640 67 640 c 0
 100 640 119 619 119 585 c 0
 119 548 84 478 84 430 c 0
 84 417 79 409 67 409 c 0
 55 409 50 417 50 430 c 0
 50 478 15 548 15 585 c 0
148 585 m 0
 148 619 167 640 200 640 c 0
 233 640 252 619 252 585 c 0
 252 548 217 478 217 430 c 0
 217 417 212 409 200 409 c 0
 188 409 183 417 183 430 c 0
 183 478 148 548 148 585 c 0
EndSplineSet
EndChar
StartChar: numbersign
Encoding: 35 35 258
Width: 504
Flags: MW
HStem: -9 21G<52 99 52 52 206 253 206 206> 191 47<16 125 29 111 29 159 172 265 327 410> 402 47<91 174 78 188 91 222 235 328 390 474>
VStem: 16 471<191 449>
LayerCount: 2
Back
Fore
SplineSet
16 191 m 1
 29 238 l 1
 125 238 l 1
 174 402 l 1
 78 402 l 1
 91 449 l 1
 188 449 l 1
 246 639 l 1
 293 639 l 1
 235 449 l 1
 342 449 l 1
 400 639 l 1
 447 639 l 1
 390 449 l 1
 487 449 l 1
 474 402 l 1
 376 402 l 1
 327 238 l 1
 424 238 l 1
 410 191 l 1
 313 191 l 1
 253 -9 l 1
 206 -9 l 1
 265 191 l 1
 159 191 l 1
 99 -9 l 1
 52 -9 l 1
 111 191 l 1
 16 191 l 1
172 238 m 1
 280 238 l 1
 328 402 l 1
 222 402 l 1
 172 238 l 1
EndSplineSet
EndChar
StartChar: dollar
Encoding: 36 36 290
Width: 448
Flags: MW
HStem: 117 31<202 202 197.5 247> 137 101.5 372 85<324 335 318.5 351 324 324> 443 30<202 259>
VStem: 77 33 80 97<328 417> 202 45<-95 117 -95 117 473 647> 283 90<175.5 267.5> 324 29.5
LayerCount: 2
Back
Fore
SplineSet
373 242 m 0x97
 373 168 323 124 247 117 c 1
 247 -95 l 1
 202 -95 l 1
 202 117 l 1x9a80
 184 119 162 124 125 134 c 0
 114 136 107 137 101 137 c 0
 89 137 80 135 75 132 c 1
 79 238 l 1x5a80
 110 239 l 1x9a80
 110 185 165 148 230 148 c 0
 261 148 283 162 283 189 c 0
 283 212 270 224 233 234 c 2
 185 247 l 2
 108 268 80 301 80 355 c 0x97
 80 420 122 467 202 473 c 1x9a80
 202 647 l 1
 247 647 l 1
 247 472 l 1
 281 468 306 457 331 457 c 0
 339 457 349 459 356 463 c 1
 351 372 l 1
 324 372 l 1xaa80
 324 407 290 443 228 443 c 0
 197 443 177 428 177 406 c 0
 177 385 189 371 218 365 c 1
 263 354 l 1
 356 333 373 293 373 242 c 0x97
EndSplineSet
EndChar
StartChar: percent
Encoding: 37 37 315
Width: 601
Flags: MW
HStem: -10 26<427.5 460.5 427.5 493.5> 245 24<427.5 460.5> 328 26<140.5 173.5 140.5 206.5> 583 24<140.5 173.5>
VStem: 6 108<429 508> 201 106<428 507 428 512.5> 293 108<91 170> 488 106<90 169 90 174.5>
LayerCount: 2
Back
Fore
SplineSet
64 10 m 1xfd
 491 609 l 1
 533 581 l 1
 104 -21 l 1
 64 10 l 1xfd
6 467 m 0
 6 549 61 607 156 607 c 0
 256 607 307 547 307 467 c 0
 307 389 257 328 156 328 c 0
 55 328 6 391 6 467 c 0
114 468 m 0
 114 379 124 354 157 354 c 0
 190 354 201 381 201 468 c 0
 201 557 190 583 157 583 c 0
 124 583 114 554 114 468 c 0
293 129 m 0xfb
 293 211 348 269 443 269 c 0
 543 269 594 209 594 129 c 0
 594 51 544 -10 443 -10 c 0
 342 -10 293 53 293 129 c 0xfb
401 130 m 0
 401 41 411 16 444 16 c 0
 477 16 488 43 488 130 c 0
 488 219 477 245 444 245 c 0
 411 245 401 216 401 130 c 0
EndSplineSet
EndChar
StartChar: ampersand
Encoding: 38 38 326
Width: 624
Flags: MW
HStem: -10 39<247 277> 0 34<591.5 598 591.5 639> 365 34<477 482.5 539.5 544> 568 38<287 322.5 229.5 325>
VStem: 22 134<127.5 189.5> 126 117<502.5 518> 372 37<478 519.5> 435 151<363 399 363 399>
LayerCount: 2
Back
Fore
SplineSet
598 34 m 2x79
 639 36 l 1
 639 0 l 1
 447 0 l 1x79
 412 48 l 1
 370 13 315 -10 239 -10 c 0
 136 -10 22 33 22 152 c 0xb9
 22 227 67 291 190 347 c 1
 160 390 126 431 126 485 c 0
 126 551 181 606 278 606 c 0
 367 606 409 558 409 500 c 0
 409 447 375 407 325 376 c 1x77
 462 190 l 1
 481 239 491 290 491 333 c 0
 491 356 488 365 477 365 c 2
 435 363 l 1
 435 399 l 1
 586 399 l 1
 586 363 l 1
 544 365 l 2
 535 365 532 358 531 343 c 0
 527 298 519 224 488 155 c 1
 568 47 l 2
 575 38 585 34 598 34 c 2x79
304 568 m 0xb7
 270 568 243 552 243 517 c 0
 243 488 263 461 286 429 c 2
 304 404 l 1
 349 432 372 458 372 498 c 0
 372 541 346 568 304 568 c 0xb7
282 29 m 0
 324 29 360 47 390 76 c 1
 214 313 l 1
 172 278 156 222 156 174 c 0xb9
 156 81 212 29 282 29 c 0
EndSplineSet
EndChar
StartChar: quotesingle
Encoding: 39 39 263
Width: 134
Flags: MW
HStem: 409 231<61 73>
VStem: 50 34<423.5 454>
LayerCount: 2
Back
Fore
SplineSet
15 585 m 0
 15 619 34 640 67 640 c 0
 100 640 119 619 119 585 c 0
 119 548 84 478 84 430 c 0
 84 417 79 409 67 409 c 0
 55 409 50 417 50 430 c 0
 50 478 15 548 15 585 c 0
EndSplineSet
Substitution2: "Single Substitution lookup 17 subtable" quoteright
Position2: "Single Positioning lookup 5 subtable" dx=0 dy=0 dh=-40 dv=0
EndChar
StartChar: parenleft
Encoding: 40 40 271
Width: 277
Flags: MW
HStem: -231 942<226 277 226 277>
VStem: 18 147<147 333.5 147 343.5>
LayerCount: 2
Back
Fore
SplineSet
18 240 m 0
 18 447 110 575 226 711 c 1
 277 711 l 1
 206 596 165 427 165 240 c 0
 165 54 206 -116 277 -231 c 1
 226 -231 l 1
 110 -95 18 33 18 240 c 0
EndSplineSet
Position2: "'cpsp' Capital Spacing lookup 0 per glyph data 0" dx=0 dy=20 dh=0 dv=0
EndChar
StartChar: parenright
Encoding: 41 41 272
Width: 277
Flags: MW
HStem: -231 942<0 51 0 51>
VStem: 112 147<147 333.5>
LayerCount: 2
Back
Fore
SplineSet
259 240 m 0
 259 33 167 -95 51 -231 c 1
 0 -231 l 1
 71 -116 112 54 112 240 c 0
 112 427 71 596 0 711 c 1
 51 711 l 1
 167 575 259 447 259 240 c 0
EndSplineSet
Position2: "'cpsp' Capital Spacing lookup 0 per glyph data 0" dx=0 dy=20 dh=0 dv=0
EndChar
StartChar: asterisk
Encoding: 42 42 249
Width: 338
Flags: MW
HStem: 436 112<155 155 183 183> 477 31<96 117 221 242>
VStem: 66 83<392 419> 131 18.09 189 83<566 592.5> 189.06 17.94
LayerCount: 2
Back
Fore
SplineSet
285 538 m 0x54
 309 538 318 526 318 492 c 0
 318 458 306 446 285 446 c 0
 259 446 259 477 225 477 c 0
 217 477 211 474 207 471 c 1
 205 464 208 456 211 451 c 0
 228 422 254 437 267 415 c 0
 271 408 273 401 273 396 c 0x54
 273 385 264 374 244 363 c 0
 231 356 221 353 212 353 c 0
 201 353 193 359 187 369 c 0
 185 373 184 378 184 382 c 0
 184 399 197 413 183 436 c 1
 180 443 174 447 169 448 c 1
 164 447 158 443 155 436 c 1
 150 428 149 422 149 416 c 0
 149 399 161 385 151 369 c 0
 144 357 137 351 127 351 c 0
 119 351 109 356 95 363 c 0
 74 374 66 386 66 398 c 0
 66 404 68 409 71 415 c 0
 84 437 111 422 128 451 c 0xa4
 132 458 132 465 130 471 c 1
 126 474 121 477 113 477 c 0
 79 477 80 446 53 446 c 0
 29 446 20 458 20 492 c 0
 20 526 33 538 53 538 c 0
 80 538 79 508 113 508 c 0x64
 121 508 127 510 131 513 c 1
 133 522 131 528 128 533 c 0
 111 562 84 547 71 569 c 0
 67 577 65 582 65 588 c 0x54
 65 600 74 610 95 621 c 1
 107 629 118 632 126 632 c 0
 137 632 145 626 151 616 c 0
 154 611 155 606 155 602 c 0
 155 585 141 571 155 548 c 1
 158 541 164 537 169 536 c 1
 174 537 180 541 183 548 c 1
 188 556 189 563 189 569 c 0
 189 586 177 599 187 616 c 0
 194 627 202 633 211 633 c 0
 219 633 229 629 243 621 c 0
 264 610 272 598 272 587 c 0
 272 581 270 575 267 569 c 0
 254 547 228 562 211 533 c 0x98
 206 526 206 519 208 513 c 1
 212 510 217 508 225 508 c 0x58
 259 508 259 538 285 538 c 0x54
EndSplineSet
EndChar
StartChar: plus
Encoding: 43 43 317
Width: 460
Flags: MW
HStem: 255 52<20 202 20 202 259 440>
VStem: 202 57<73 255 73 255 307 488>
LayerCount: 2
Back
Fore
SplineSet
20 255 m 1
 20 307 l 1
 202 307 l 1
 202 488 l 1
 259 488 l 1
 259 307 l 1
 440 307 l 1
 440 255 l 1
 259 255 l 1
 259 73 l 1
 202 73 l 1
 202 255 l 1
 20 255 l 1
EndSplineSet
EndChar
StartChar: comma
Encoding: 44 44 254
Width: 276
Flags: MW
HStem: -7 21G<84 115.5> -7 134<100.5 115.5>
VStem: 141 90<-56.5 50>
LayerCount: 2
Back
Fore
SplineSet
75 -139 m 1xa0
 108 -119 141 -76 141 -37 c 0
 141 -16 128 -7 103 -7 c 0
 65 -7 47 16 47 52 c 0
 47 91 75 127 126 127 c 0x60
 192 127 231 78 231 22 c 0
 231 -61 161 -127 95 -160 c 1
 75 -139 l 1xa0
EndSplineSet
EndChar
StartChar: hyphen
Encoding: 45 45 275
Width: 250
Flags: MW
HStem: 182 62<22 228 22 228>
VStem: 22 206<182 244 182 244>
LayerCount: 2
Back
Fore
SplineSet
22 182 m 1
 22 244 l 1
 228 244 l 1
 228 182 l 1
 22 182 l 1
EndSplineSet
Position2: "'cpsp' Capital Spacing lookup 0 per glyph data 0" dx=0 dy=20 dh=0 dv=0
EndChar
StartChar: period
Encoding: 46 46 259
Width: 275
Flags: MW
HStem: -10 150<110.5 164>
VStem: 45 185<41.5 88>
LayerCount: 2
Back
Fore
SplineSet
45 65 m 0
 45 111 84 140 137 140 c 0
 191 140 230 111 230 65 c 0
 230 18 191 -10 137 -10 c 0
 84 -10 45 18 45 65 c 0
EndSplineSet
EndChar
StartChar: slash
Encoding: 47 47 265
Width: 255
Flags: MW
HStem: -7 21G<42 42>
VStem: -5 265
LayerCount: 2
Back
Fore
SplineSet
-5 6 m 1
 214 635 l 1
 260 625 l 1
 42 -7 l 1
 -5 6 l 1
EndSplineSet
EndChar
StartChar: zero
Encoding: 48 48 232
Width: 540
Flags: MW
HStem: -10 35<228.5 312 228.5 343.5> 575 32<228.5 312>
VStem: 19 134<200.5 398.5> 388 133<198.5 397 198.5 407.5>
LayerCount: 2
Back
Fore
SplineSet
19 297 m 0
 19 500 127 607 270 607 c 0
 415 607 521 497 521 297 c 0
 521 100 417 -10 270 -10 c 0
 121 -10 19 104 19 297 c 0
153 298 m 0
 153 80 187 25 270 25 c 0
 354 25 388 85 388 298 c 0
 388 517 354 575 270 575 c 0
 187 575 153 510 153 298 c 0
EndSplineSet
EndChar
StartChar: one
Encoding: 49 49 233
Width: 365
Flags: MW
HStem: 0 31<117 123.5 271 277>
VStem: 136 123<51 484 484 490>
LayerCount: 2
Back
Fore
SplineSet
39 514 m 1
 99 528 148 555 182 577 c 0
 203 590 221 604 238 618 c 1
 259 618 l 1
 259 51 l 2
 259 38 265 31 277 31 c 2
 335 32 l 1
 335 0 l 1
 58 0 l 1
 58 32 l 1
 117 31 l 2
 130 31 136 38 136 51 c 2
 136 484 l 2
 136 496 128 504 117 499 c 1
 51 476 l 1
 39 514 l 1
EndSplineSet
Substitution2: "'sups' Superscript lookup 7 subtable" uni00B9
Substitution2: "'aalt' Access All Alternates lookup 0 subtable" uni00B9
EndChar
StartChar: two
Encoding: 50 50 234
Width: 499
Flags: MW
HStem: 0 96<122 311 311 346.5 122 380 44 311> 573 34<209 253>
VStem: 39 120<504 510.5> 313 134<405.5 500.5>
LayerCount: 2
Back
Fore
SplineSet
423 169 m 1
 462 169 l 1
 447 93 441 21 440 -3 c 1
 434 -1 400 0 380 0 c 2
 44 0 l 1
 41 80 l 1
 162 193 l 2
 240 266 313 344 313 461 c 0
 313 540 277 573 229 573 c 0
 189 573 159 551 159 514 c 0
 159 494 169 474 169 454 c 0
 169 420 140 405 108 405 c 0
 63 405 39 437 39 476 c 0
 39 545 114 607 238 607 c 0
 353 607 447 560 447 450 c 0
 447 361 392 297 252 191 c 1
 122 96 l 1
 311 96 l 2
 382 96 415 113 423 169 c 1
EndSplineSet
Substitution2: "'sups' Superscript lookup 7 subtable" uni00B2
Substitution2: "'aalt' Access All Alternates lookup 0 subtable" uni00B2
EndChar
StartChar: three
Encoding: 51 51 235
Width: 499
Flags: MW
HStem: -10 35<198 259.5 198 297> 298 33<135 135> 573 34<203.5 253.5>
VStem: 15 121<75.5 86 59.5 130> 30 119<512 525.5> 135 108<321 324 321 331 321 331> 309 135<437 508.5> 346 134<123.5 204.5>
LayerCount: 2
Back
Fore
SplineSet
243 324 m 1xe5
 243 321 l 1xe5
 395 319 480 268 480 167 c 0
 480 58 370 -10 224 -10 c 0
 105 -10 15 40 15 111 c 0
 15 149 40 177 84 177 c 0
 119 177 144 157 144 126 c 0
 144 111 136 94 136 78 c 0
 136 41 178 25 218 25 c 0
 301 25 346 86 346 161 c 0xf1
 346 248 288 286 135 298 c 1
 135 331 l 1xe6
 222 334 309 388 309 484 c 0
 309 533 283 573 224 573 c 0
 183 573 149 553 149 521 c 0
 149 503 158 490 158 471 c 0
 158 434 126 421 98 421 c 0
 47 421 30 454 30 487 c 0
 30 564 133 607 237 607 c 0
 349 607 444 567 444 481 c 0xea
 444 393 352 338 243 324 c 1xe5
EndSplineSet
Substitution2: "'sups' Superscript lookup 7 subtable" uni00B3
Substitution2: "'aalt' Access All Alternates lookup 0 subtable" uni00B3
EndChar
StartChar: four
Encoding: 52 52 236
Width: 486
Flags: MW
HStem: 0 31<253 260 408.5 415> 147 77<73 273 9 274 395 474> 584 20G<341 395 395 395>
VStem: 274 121<224 463 463 463>
LayerCount: 2
Back
Fore
SplineSet
395 604 m 1
 395 224 l 1
 474 224 l 1
 474 147 l 1
 395 147 l 1
 395 51 l 2
 395 38 402 31 415 31 c 2
 458 32 l 1
 458 0 l 1
 184 0 l 1
 184 32 l 1
 253 31 l 2
 267 31 273 38 273 51 c 2
 273 147 l 1
 9 147 l 1
 9 215 l 1
 19 223 29 233 40 245 c 2
 70 276 l 1
 302 554 l 1
 320 576 l 1
 341 604 l 1
 395 604 l 1
274 463 m 1
 73 224 l 1
 274 224 l 1
 274 463 l 1
EndSplineSet
EndChar
StartChar: five
Encoding: 53 53 237
Width: 485
Flags: MW
HStem: -10 34<201 260.5 201 286.5> 325 50<219.5 240> 501 96<114 352 352 378 81 418 114 114> 580 20G
VStem: 26 119<63 85.5 59 133> 325 132<129.5 225.5>
LayerCount: 2
Back
Fore
SplineSet
247 375 m 0xec
 367 375 457 310 457 189 c 0
 457 64 352 -10 221 -10 c 0
 142 -10 26 16 26 110 c 0
 26 156 57 181 94 181 c 0
 129 181 155 160 155 129 c 0
 155 108 145 93 145 78 c 0
 145 40 182 24 220 24 c 0
 301 24 325 85 325 174 c 0
 325 277 281 325 199 325 c 0
 152 325 102 302 85 276 c 1
 55 276 l 1
 81 597 l 1
 352 597 l 2xec
 404 597 421 599 434 600 c 1xdc
 427 576 420 531 418 501 c 1
 114 501 l 1
 96 331 l 1
 134 356 192 375 247 375 c 0xec
EndSplineSet
EndChar
StartChar: six
Encoding: 54 54 238
Width: 500
Flags: MW
HStem: -11 30<224.5 295 224.5 326> 363 32<249 299.5> 571 36<242.5 303>
VStem: 30 130<187 239 149.5 352> 331 127<482 493> 352 131<136 230>
LayerCount: 2
Back
Fore
SplineSet
272 395 m 0xf4
 407 395 483 321 483 195 c 0xf4
 483 74 393 -11 259 -11 c 0
 81 -11 30 111 30 263 c 0
 30 441 88 607 293 607 c 0
 394 607 458 558 458 502 c 0
 458 462 431 438 394 438 c 0
 355 438 331 455 331 484 c 0
 331 502 339 514 339 531 c 0xf8
 339 551 323 571 283 571 c 0
 202 571 169 475 162 354 c 1
 188 379 226 395 272 395 c 0xf4
260 19 m 0
 330 19 352 80 352 192 c 0
 352 268 339 363 260 363 c 0
 172 363 160 285 160 193 c 0
 160 106 189 19 260 19 c 0
EndSplineSet
EndChar
StartChar: seven
Encoding: 55 55 239
Width: 447
Flags: MW
HStem: 0 21G<137 267 137 137> 501 96<118.5 438 164 350> 551 46<164 444>
VStem: 137 127<0 161>
LayerCount: 2
Back
Fore
SplineSet
444 551 m 1xb0
 321 413 264 258 264 64 c 0
 264 48 265 33 267 0 c 1
 137 0 l 1
 139 138 164 299 350 501 c 1
 147 501 l 2
 90 501 65 487 60 447 c 1
 22 447 l 1
 26 492 38 577 38 601 c 1
 51 597 100 597 164 597 c 2
 438 597 l 1xd0
 444 551 l 1xb0
EndSplineSet
EndChar
StartChar: eight
Encoding: 56 56 240
Width: 515
Flags: MW
HStem: -10 34<217.5 289.5 217.5 310> 573 34<242 305>
VStem: 26 104<107 166 107 169.5> 48 123<464.5 506> 368 125<102 152> 373 99<455 507.5>
LayerCount: 2
Back
Fore
SplineSet
345 338 m 1xe8
 421 295 493 245 493 157 c 0
 493 47 374 -10 246 -10 c 0
 121 -10 26 27 26 131 c 0xe8
 26 208 88 258 172 295 c 1
 103 334 48 379 48 455 c 0
 48 557 147 607 269 607 c 0
 383 607 472 567 472 481 c 0xd4
 472 414 407 357 345 338 c 1xe8
274 573 m 0xd4
 210 573 171 539 171 494 c 0
 171 435 237 398 309 358 c 1
 354 388 373 433 373 477 c 0
 373 538 336 573 274 573 c 0xd4
258 24 m 0xe8
 321 24 368 55 368 113 c 0
 368 191 287 232 210 274 c 1
 165 246 130 192 130 140 c 0
 130 74 177 24 258 24 c 0xe8
EndSplineSet
EndChar
StartChar: nine
Encoding: 57 57 241
Width: 514
Flags: MW
HStem: -11 36<215 275.5 215 327.5> 201 32<218.5 269> 577 30<223 293.5>
VStem: 35 131<366 460 366 461.5> 60 127<103 114> 358 130<357 409 244 446.5>
LayerCount: 2
Back
Fore
SplineSet
259 607 m 0xf4
 437 607 488 485 488 333 c 0
 488 155 430 -11 225 -11 c 0
 124 -11 60 38 60 94 c 0
 60 134 87 158 124 158 c 0
 163 158 187 141 187 112 c 0
 187 94 179 82 179 65 c 0xec
 179 45 195 25 235 25 c 0
 316 25 349 121 356 242 c 1
 330 217 292 201 246 201 c 0
 111 201 35 275 35 401 c 0
 35 522 125 607 259 607 c 0xf4
258 233 m 0
 346 233 358 311 358 403 c 0
 358 490 329 577 258 577 c 0
 188 577 166 516 166 404 c 0
 166 328 179 233 258 233 c 0
EndSplineSet
EndChar
StartChar: colon
Encoding: 58 58 253
Width: 275
Flags: MW
HStem: -10 150<110.5 164> 279 150<110.5 164>
VStem: 45 185<41.5 88 330.5 377>
LayerCount: 2
Back
Fore
SplineSet
45 354 m 0
 45 400 84 429 137 429 c 0
 191 429 230 400 230 354 c 0
 230 307 191 279 137 279 c 0
 84 279 45 307 45 354 c 0
45 65 m 0
 45 111 84 140 137 140 c 0
 191 140 230 111 230 65 c 0
 230 18 191 -10 137 -10 c 0
 84 -10 45 18 45 65 c 0
EndSplineSet
EndChar
StartChar: semicolon
Encoding: 59 59 264
Width: 276
Flags: MW
HStem: -7 21G<86 117.5> -7 134<102.5 117.5> 279 150<104.5 158>
VStem: 39 185<330.5 377> 143 90<-56.5 50>
LayerCount: 2
Back
Fore
SplineSet
39 354 m 0xb0
 39 400 78 429 131 429 c 0
 185 429 224 400 224 354 c 0
 224 307 185 279 131 279 c 0
 78 279 39 307 39 354 c 0xb0
77 -139 m 1x68
 110 -119 143 -76 143 -37 c 0
 143 -16 130 -7 105 -7 c 0
 67 -7 49 16 49 52 c 0
 49 91 77 127 128 127 c 0
 194 127 233 78 233 22 c 0
 233 -61 163 -127 97 -160 c 1
 77 -139 l 1x68
EndSplineSet
EndChar
StartChar: less
Encoding: 60 60 307
Width: 460
Flags: MW
HStem: -6 21G<406 406>
VStem: 54 352<-6 229 -6 229>
LayerCount: 2
Back
Fore
SplineSet
406 441 m 1
 406 385 l 1
 150 230 l 1
 118 218 l 1
 150 204 l 1
 406 50 l 1
 406 -6 l 1
 54 205 l 1
 54 229 l 1
 406 441 l 1
EndSplineSet
EndChar
StartChar: equal
Encoding: 61 61 301
Width: 460
Flags: MW
HStem: 103 51<35 425 35 425> 295 50<35 425 35 425>
VStem: 35 390<103 154 103 154 295 345 103 345>
LayerCount: 2
Back
Fore
SplineSet
35 295 m 1
 35 345 l 1
 425 345 l 1
 425 295 l 1
 35 295 l 1
35 103 m 1
 35 154 l 1
 425 154 l 1
 425 103 l 1
 35 103 l 1
EndSplineSet
EndChar
StartChar: greater
Encoding: 62 62 302
Width: 460
Flags: MW
HStem: -5 21G<54 54>
VStem: 54 352<-5 231 51 231 207 442 207 442>
LayerCount: 2
Back
Fore
SplineSet
54 -5 m 1
 54 51 l 1
 310 206 l 1
 342 218 l 1
 310 232 l 1
 54 386 l 1
 54 442 l 1
 406 231 l 1
 406 207 l 1
 54 -5 l 1
EndSplineSet
EndChar
StartChar: question
Encoding: 63 63 260
Width: 413
Flags: MW
HStem: -10 149<168 220 167 220.5> 636 34<167.5 202.5>
VStem: 13 120<596.5 612.5> 103 183<43 84.5> 114 87<305 357.5 299.5 378> 251 141<518 586>
LayerCount: 2
Back
Fore
SplineSet
228 216 m 1xcc
 186 227 114 274 114 336 c 0xcc
 114 420 251 471 251 565 c 0
 251 607 224 636 181 636 c 0
 154 636 133 624 133 603 c 0
 133 590 141 579 141 563 c 0
 141 531 110 517 80 517 c 0
 33 517 13 549 13 581 c 0xe4
 13 644 95 670 198 670 c 0
 323 670 392 631 392 560 c 0
 392 443 201 403 201 312 c 0
 201 287 215 260 245 242 c 1
 228 216 l 1xcc
194 -10 m 0xd0
 142 -10 103 21 103 64 c 0
 103 105 140 139 194 139 c 0
 246 139 286 108 286 65 c 0
 286 21 247 -10 194 -10 c 0xd0
EndSplineSet
EndChar
StartChar: at
Encoding: 64 64 325
Width: 776
Flags: MW
HStem: -153 36<300.5 394> -10 21G<229.5 290.5 453 487> -10 70<229.5 358> 405 30<417 439.5 353 454> 567 37<321 519>
VStem: 21 49<88 264.5 88 287.5> 167 134<107.5 148 107.5 192> 716 38<253 376.5>
LayerCount: 2
Back
Fore
SplineSet
21 178 m 0xdf
 21 397 200 604 442 604 c 0
 621 604 754 474 754 306 c 0
 754 200 696 82 576 21 c 1
 538 0 504 -10 470 -10 c 0
 436 -10 430 5 430 36 c 0
 430 62 439 114 453 172 c 1
 394 36 322 -10 259 -10 c 0xbf
 200 -10 167 36 167 112 c 0
 167 272 281 435 425 435 c 0
 454 435 480 423 493 396 c 1
 498 416 l 1
 635 433 l 1
 612 338 l 2
 587 238 568 128 568 92 c 0
 568 81 572 75 581 75 c 0
 632 75 716 192 716 305 c 0
 716 448 596 567 442 567 c 0
 195 567 70 356 70 173 c 0
 70 3 198 -117 403 -117 c 1
 528 -118 620 -78 710 12 c 1
 734 -17 l 1
 635 -116 532 -154 394 -153 c 1
 168 -153 21 -23 21 178 c 0xdf
301 131 m 0xbf
 301 84 314 60 338 60 c 0
 378 60 481 241 481 353 c 0
 481 381 467 405 441 405 c 0
 393 405 347 341 320 243 c 1
 308 204 301 165 301 131 c 0xbf
EndSplineSet
EndChar
StartChar: B
Encoding: 66 66 13
Width: 581
GlyphClass: 2
Flags: MW
HStem: 0 36<255 304 304 335> 294 35<241 293 293 317 241 293> 562 35<86 91.5 249.5 253 253 291>
VStem: 103 138<57 294 329 542 542 546.5> 383 140<418.5 488> 414 142<120 206.5 108 210>
LayerCount: 2
Back
Fore
SplineSet
350 597 m 2xf8
 462 597 523 549 523 454 c 0xf8
 523 383 468 332 385 317 c 1
 480 317 556 251 556 162 c 0xf4
 556 54 482 0 335 0 c 2
 39 0 l 1
 39 37 l 1
 87 35 l 2
 98 35 103 42 103 57 c 2
 103 542 l 2
 103 551 97 562 86 562 c 2
 39 560 l 1
 39 597 l 1
 350 597 l 2xf8
291 562 m 2
 253 562 l 2
 246 562 242 558 241 550 c 1
 241 329 l 1
 293 329 l 2
 353 329 383 364 383 449 c 0
 383 527 350 562 291 562 c 2
317 294 m 2xf4
 241 294 l 1
 241 49 l 2
 241 40 246 36 255 36 c 2
 304 36 l 2
 369 36 414 76 414 164 c 0
 414 256 381 294 317 294 c 2xf4
EndSplineSet
Position2: "'cpsp' Capital Spacing lookup 0 per glyph data 2" dx=5 dy=0 dh=10 dv=0
EndChar
StartChar: C
Encoding: 67 67 14
Width: 596
GlyphClass: 2
Flags: MW
HStem: -10 35<305 381> 35 132<530 557 557 563> 433 131<525 557 525 525> 575 32<300.5 395.5>
VStem: 30 151<208 386 208 393.5> 525 32<433 433>
AnchorPoint: "Anchor-0" 327 0 basechar 0
LayerCount: 2
Back
Fore
SplineSet
30 295 m 0
 30 492 146 607 341 607 c 0x9c
 452 607 480 564 557 564 c 1
 554 541 553 513 553 489 c 0
 553 459 555 435 557 433 c 1xbc
 525 433 l 1
 509 511 436 575 355 575 c 0
 246 575 181 477 181 295 c 0
 181 121 251 25 359 25 c 0x9c
 444 25 513 87 530 167 c 1
 566 167 l 1
 561 126 560 95 560 82 c 0xdc
 560 63 561 47 563 35 c 1
 557 35 l 2
 497 35 426 -10 336 -10 c 0
 147 -10 30 106 30 295 c 0
EndSplineSet
Position2: "'cpsp' Capital Spacing lookup 0 per glyph data 2" dx=5 dy=0 dh=10 dv=0
EndChar
StartChar: D
Encoding: 68 68 18
Width: 634
GlyphClass: 2
Flags: MW
HStem: 0 36<243 266 266 295> 562 35<74 80.5 239 243 243 266>
VStem: 93 138<57 541 541 546.5> 456 151<201.5 403.5>
LayerCount: 2
Back
Fore
SplineSet
39 0 m 1
 39 37 l 1
 78 35 l 2
 89 34 93 45 93 57 c 2
 93 541 l 2
 93 552 87 562 74 562 c 2
 39 560 l 1
 39 597 l 1
 283 597 l 2
 501 597 607 516 607 299 c 0
 607 104 509 0 295 0 c 2
 39 0 l 1
231 49 m 2
 231 40 235 36 243 36 c 2
 266 36 l 2
 404 36 456 86 456 298 c 0
 456 509 404 562 266 562 c 2
 243 562 l 2
 235 562 231 558 231 549 c 2
 231 49 l 2
EndSplineSet
Position2: "'cpsp' Capital Spacing lookup 0 per glyph data 2" dx=5 dy=0 dh=10 dv=0
EndChar
StartChar: F
Encoding: 70 70 31
Width: 529
GlyphClass: 2
Flags: MW
HStem: 0 35<75 81 244.5 250> 280 35<231 299 231 299> 443 154<472 492 492 495.5 39 507 472 472> 562 35<74 76 74 74 239 243 243 330>
VStem: 93 138<57 280 315 541 541 548> 378 34<180 210.5 385 417> 472 35<443 598>
LayerCount: 2
Back
Fore
SplineSet
39 0 m 1xde
 39 38 l 1
 75 35 l 2
 87 35 93 42 93 57 c 2
 93 541 l 2
 93 555 87 562 76 562 c 2
 74 562 l 1
 39 560 l 1
 39 597 l 1
 492 597 l 2
 499 597 504 597 507 598 c 1xde
 507 443 l 1
 472 443 l 1xee
 474 526 429 562 330 562 c 2
 243 562 l 2
 235 562 231 558 231 549 c 2
 231 315 l 1
 299 315 l 2
 346 315 378 353 378 417 c 1
 412 417 l 1
 412 180 l 1
 378 180 l 1
 378 241 346 280 299 280 c 2
 231 280 l 1
 231 56 l 2
 231 44 239 35 250 35 c 2
 302 38 l 1
 302 0 l 1
 39 0 l 1xde
EndSplineSet
Position2: "'cpsp' Capital Spacing lookup 0 per glyph data 2" dx=5 dy=0 dh=10 dv=0
EndChar
StartChar: G
Encoding: 71 71 32
Width: 650
GlyphClass: 2
Flags: MW
HStem: -10 35<292 363.5 292 396> 238 34<423 429.5 593 599> 426 138<541.5 564 541.5 564 514 564> 575 32<299.5 396.5 244 405.5>
VStem: 30 151<196.5 382.5 196.5 399.5> 442 138<68 216 216 217 35 223.5> 515 49<426 444>
AnchorPoint: "Anchor-0" 331 0 basechar 0
LayerCount: 2
Back
Fore
SplineSet
30 297 m 0xdc
 30 502 145 607 343 607 c 0xda
 450 607 519 564 564 564 c 1
 562 551 560 533 560 504 c 0
 560 482 562 456 564 426 c 1
 514 426 l 1xfa
 515 433 515 437 515 444 c 0xda
 512 526 457 575 354 575 c 0
 245 575 181 477 181 288 c 0
 181 105 240 25 344 25 c 0
 383 25 413 35 442 68 c 1
 442 216 l 2
 442 231 436 238 423 238 c 2
 364 236 l 1
 364 272 l 1
 631 272 l 1
 631 236 l 1
 599 238 l 2
 587 238 580 228 580 217 c 2
 580 35 l 1
 575 36 568 37 561 37 c 0
 511 37 457 -10 335 -10 c 0
 149 -10 30 91 30 297 c 0xdc
EndSplineSet
Position2: "'cpsp' Capital Spacing lookup 0 per glyph data 2" dx=5 dy=0 dh=10 dv=0
EndChar
StartChar: H
Encoding: 72 72 35
Width: 696
GlyphClass: 2
Flags: MW
HStem: 0 35<74 74 244.5 251 446 452.5> 287 35<231 465 231 465> 561 36
VStem: 93 138<57 287 322 541> 465 138<57 287 287 287 322 541>
LayerCount: 2
Back
Fore
SplineSet
39 0 m 1
 39 37 l 1
 74 35 l 2
 87 34 93 42 93 57 c 2
 93 541 l 2
 93 552 89 563 74 562 c 2
 39 560 l 1
 39 597 l 1
 300 597 l 1
 300 560 l 1
 251 562 l 2
 238 563 231 553 231 541 c 2
 231 322 l 1
 465 322 l 1
 465 541 l 2
 465 552 461 563 446 562 c 2
 397 560 l 1
 397 597 l 1
 658 597 l 1
 658 560 l 1
 622 562 l 2
 609 563 603 553 603 541 c 2
 603 57 l 2
 603 42 609 34 622 35 c 2
 658 37 l 1
 658 0 l 1
 397 0 l 1
 397 37 l 1
 446 35 l 2
 459 35 465 42 465 57 c 2
 465 287 l 1
 231 287 l 1
 231 57 l 2
 231 42 238 35 251 35 c 2
 300 37 l 1
 300 0 l 1
 39 0 l 1
EndSplineSet
Position2: "'cpsp' Capital Spacing lookup 0 per glyph data 2" dx=5 dy=0 dh=10 dv=0
EndChar
StartChar: I
Encoding: 73 73 36
Width: 325
GlyphClass: 2
Flags: MW
HStem: 0 36 561 36
VStem: 93 138<57 541>
LayerCount: 2
Back
Fore
SplineSet
39 0 m 1
 39 37 l 1
 74 35 l 2
 87 34 93 42 93 57 c 2
 93 541 l 2
 93 552 87 563 74 562 c 2
 39 560 l 1
 39 597 l 1
 287 597 l 1
 287 560 l 1
 251 562 l 2
 239 563 231 553 231 541 c 2
 231 57 l 2
 231 42 238 34 251 35 c 2
 287 37 l 1
 287 0 l 1
 39 0 l 1
EndSplineSet
Position2: "'cpsp' Capital Spacing lookup 0 per glyph data 2" dx=5 dy=0 dh=10 dv=0
EndChar
StartChar: J
Encoding: 74 74 45
Width: 459
GlyphClass: 2
Flags: MW
HStem: -10 34<149.5 181.5 119.5 240> -1 21G<24 24> 5 167<53.5 68 24 72.5> 561 36
VStem: 24 44<144 172 144 172 144 172> 233 138<179 541 541 542>
LayerCount: 2
Back
Fore
SplineSet
24 -1 m 1x5c
 24 172 l 1x3c
 68 172 l 1
 68 116 86 24 153 24 c 0
 210 24 233 64 233 179 c 2
 233 541 l 2
 233 553 225 563 214 562 c 2
 145 560 l 1
 145 597 l 1
 425 597 l 1
 425 560 l 1
 391 562 l 2
 378 563 371 553 371 542 c 2
 371 179 l 2
 371 51 304 -10 176 -10 c 0x9c
 123 -10 86 5 59 5 c 0
 48 5 31 6 24 -1 c 1x5c
EndSplineSet
Position2: "'cpsp' Capital Spacing lookup 0 per glyph data 2" dx=5 dy=0 dh=10 dv=0
EndChar
StartChar: K
Encoding: 75 75 46
Width: 639
GlyphClass: 2
Flags: MW
HStem: 0 36 562 35<74 74 244.5 251 447 450.5 557 557>
VStem: 93 138<57 224 278 540> 411 180<560 597 560 597>
AnchorPoint: "Anchor-0" 323 0 basechar 0
LayerCount: 2
Back
Fore
SplineSet
602 34 m 0
 612 34 623 35 632 37 c 1
 632 0 l 1
 347 0 l 1
 347 37 l 1
 390 34 l 2
 407 33 417 40 405 59 c 2
 267 265 l 1
 231 224 l 1
 231 57 l 2
 231 42 238 34 251 35 c 2
 297 37 l 1
 297 0 l 1
 39 0 l 1
 39 37 l 1
 74 35 l 2
 87 34 93 42 93 57 c 2
 93 541 l 2
 93 553 87 563 74 562 c 2
 39 560 l 1
 39 597 l 1
 300 597 l 1
 300 560 l 1
 251 562 l 2
 238 562 231 555 231 540 c 2
 231 278 l 1
 440 526 l 2
 456 545 457 550 457 553 c 0
 457 559 454 562 447 562 c 2
 411 560 l 1
 411 597 l 1
 591 597 l 1
 591 560 l 1
 557 562 l 2
 537 563 521 558 499 533 c 2
 359 372 l 1
 578 48 l 2
 584 39 593 34 602 34 c 0
EndSplineSet
Position2: "'cpsp' Capital Spacing lookup 0 per glyph data 2" dx=5 dy=0 dh=10 dv=0
EndChar
StartChar: L
Encoding: 76 76 48
Width: 514
GlyphClass: 2
Flags: MW
HStem: 0 36<243 326 326 368> 561 36
VStem: 93 138<57 541> 459 33<127 171>
AnchorPoint: "Anchor-0" 257 0 basechar 0
LayerCount: 2
Back
Fore
SplineSet
39 0 m 1
 39 38 l 1
 78 35 l 2
 89 35 93 45 93 57 c 2
 93 541 l 2
 93 552 85 563 74 562 c 2
 39 560 l 1
 39 597 l 1
 300 597 l 1
 300 560 l 1
 251 562 l 2
 239 563 231 553 231 541 c 2
 231 49 l 2
 231 40 235 36 243 36 c 2
 326 36 l 2
 413 36 459 83 459 171 c 1
 492 171 l 1
 492 -3 l 1
 480 -1 439 0 368 0 c 2
 39 0 l 1
EndSplineSet
Position2: "Single Positioning lookup 4 subtable" dx=0 dy=0 dh=-40 dv=0
Position2: "'cpsp' Capital Spacing lookup 0 per glyph data 2" dx=5 dy=0 dh=10 dv=0
EndChar
StartChar: M
Encoding: 77 77 54
Width: 884
GlyphClass: 2
Flags: MW
HStem: -10 21G<391 423 391 391> 0 35<73 79.5 147.5 154 633 639.5> 561 36
VStem: 93 42<57 527> 653 137<57 501 501 501>
LayerCount: 2
Back
Fore
SplineSet
810 35 m 2x78
 845 37 l 1
 845 0 l 1
 584 0 l 1
 584 37 l 1
 633 35 l 2
 646 35 653 42 653 57 c 2x78
 653 501 l 1
 423 -10 l 1
 391 -10 l 1
 391 -9 l 1xb8
 135 527 l 1
 135 57 l 2
 135 42 141 35 154 35 c 2
 203 37 l 1
 203 0 l 1
 34 0 l 1
 34 37 l 1
 73 35 l 2
 86 35 93 42 93 57 c 2
 93 556 l 2
 93 561 90 563 83 562 c 2
 41 560 l 1
 41 597 l 1
 248 597 l 1
 457 161 l 1
 654 597 l 1
 840 597 l 1
 840 560 l 1
 810 562 l 2
 798 563 790 553 790 542 c 2
 790 57 l 2
 790 42 797 34 810 35 c 2x78
EndSplineSet
Position2: "'cpsp' Capital Spacing lookup 0 per glyph data 2" dx=5 dy=0 dh=10 dv=0
EndChar
StartChar: N
Encoding: 78 78 55
Width: 677
GlyphClass: 2
Flags: MW
HStem: -6 21G<526 586 526 526> 0 27<73 79.5 147.5 154> 569 28<73 73 524 524 524 527 597.5 603 603 605>
VStem: 93 42<49 525> 544 42<184 548 -6 549 -6 555.5>
AnchorPoint: "Anchor-0" 342 0 basechar 0
LayerCount: 2
Back
Fore
SplineSet
475 597 m 1x78
 644 597 l 1
 644 567 l 1
 605 569 l 1
 603 569 l 2
 592 569 586 562 586 548 c 2
 586 -6 l 1
 526 -6 l 1xb8
 135 525 l 1
 135 49 l 2
 135 34 141 27 154 27 c 2
 203 29 l 1
 203 0 l 1
 34 0 l 1
 34 29 l 1
 73 27 l 2
 86 27 93 34 93 49 c 2
 93 548 l 2
 93 559 86 570 73 569 c 2
 34 567 l 1
 34 597 l 1
 240 597 l 1
 544 184 l 1
 544 549 l 2
 544 562 538 569 527 569 c 2
 524 569 l 1
 475 567 l 1
 475 597 l 1x78
EndSplineSet
Position2: "'cpsp' Capital Spacing lookup 0 per glyph data 2" dx=5 dy=0 dh=10 dv=0
EndChar
StartChar: P
Encoding: 80 80 70
Width: 547
GlyphClass: 2
Flags: MW
HStem: 0 35<74 74 244.5 251> 248 36<231 286 286 312.5 231 329 231 286> 562 35<70 70 240.5 243 243 283>
VStem: 93 138<57 248 284 540 540 547.5> 379 145<387 468.5>
LayerCount: 2
Back
Fore
SplineSet
39 0 m 1
 39 37 l 1
 74 35 l 2
 87 34 93 42 93 57 c 2
 93 540 l 2
 93 555 89 563 70 562 c 2
 39 560 l 1
 39 597 l 1
 302 597 l 2
 454 597 524 542 524 429 c 0
 524 320 449 248 329 248 c 2
 231 248 l 1
 231 57 l 2
 231 42 238 35 251 35 c 2
 300 37 l 1
 300 0 l 1
 39 0 l 1
231 284 m 1
 286 284 l 2
 339 284 379 345 379 429 c 0
 379 508 341 562 283 562 c 2
 243 562 l 2
 238 562 231 557 231 550 c 2
 231 284 l 1
EndSplineSet
Position2: "'cpsp' Capital Spacing lookup 0 per glyph data 2" dx=5 dy=0 dh=10 dv=0
EndChar
StartChar: Q
Encoding: 81 81 72
Width: 669
GlyphClass: 2
Flags: MW
HStem: -196 36<506 541> -5 30 573 34<285.5 392.5>
VStem: 30 151<215 399> 497 151<213 396 213 404.5>
LayerCount: 2
Back
Fore
SplineSet
648 299 m 0
 648 127 561 19 407 -5 c 1
 405 -94 461 -160 551 -160 c 1
 541 -196 l 1
 370 -196 258 -116 261 -3 c 1
 113 24 30 131 30 299 c 0
 30 499 145 607 339 607 c 0
 539 607 648 493 648 299 c 0
181 299 m 0
 181 87 232 25 339 25 c 0
 446 25 497 87 497 299 c 0
 497 510 446 573 339 573 c 0
 232 573 181 510 181 299 c 0
EndSplineSet
Position2: "'cpsp' Capital Spacing lookup 0 per glyph data 2" dx=5 dy=0 dh=10 dv=0
EndChar
StartChar: R
Encoding: 82 82 73
Width: 597
GlyphClass: 2
Flags: MW
HStem: 0 29 0 35<74 74 244.5 251> 271 35<231 258 231 294> 562 35<71 71 239 243 243 275>
VStem: 93 138<57 271 306 541 541 546.5> 373 136<406 479.5> 388 135<105.5 137 137 176.5 105.5 186>
AnchorPoint: "Anchor-0" 291 0 basechar 0
LayerCount: 2
Back
Fore
SplineSet
39 0 m 1x7a
 39 37 l 1
 74 35 l 2
 87 34 93 42 93 57 c 2
 93 541 l 2
 93 552 87 563 71 562 c 2
 39 560 l 1
 39 597 l 1
 299 597 l 2
 441 597 509 550 509 447 c 0x7c
 509 365 453 309 364 290 c 1
 432 290 523 231 523 122 c 0
 523 89 534 33 552 28 c 0
 560 25 573 25 581 30 c 1xba
 581 0 l 1
 404 0 l 1
 396 16 391 39 390 66 c 0
 389 79 388 92 388 104 c 2
 388 137 l 2
 388 235 323 271 258 271 c 2
 231 271 l 1
 231 57 l 2
 231 42 238 35 251 35 c 2
 300 37 l 1
 300 0 l 1
 39 0 l 1x7a
231 306 m 1
 294 306 l 2
 341 306 373 354 373 434 c 0
 373 525 341 562 275 562 c 2
 243 562 l 2
 235 562 231 559 231 552 c 2
 231 306 l 1
EndSplineSet
Position2: "'cpsp' Capital Spacing lookup 0 per glyph data 2" dx=5 dy=0 dh=10 dv=0
EndChar
StartChar: T
Encoding: 84 84 82
Width: 544
GlyphClass: 2
Flags: MW
HStem: 0 35<184 190 354.5 361> 444 154<15 482 15 482 63 496 63 529> 563 35<128.5 173 173 191 349.5 353 353 373>
VStem: 15 34<444 484 444 600> 203 138<60 551 551 552> 496 33<444 484>
AnchorPoint: "Anchor-0" 273 0 basechar 0
LayerCount: 2
Back
Fore
SplineSet
15 444 m 1xdc
 15 600 l 1
 24 599 40 598 63 598 c 2
 482 598 l 2
 509 598 524 599 529 600 c 1xbc
 529 444 l 1
 496 444 l 1xdc
 496 524 462 563 373 563 c 2
 353 563 l 2
 346 563 342 559 341 552 c 1
 341 57 l 2
 341 42 348 35 361 35 c 2
 414 37 l 1
 414 0 l 1
 130 0 l 1
 130 37 l 1
 184 35 l 2
 196 35 203 47 203 60 c 2
 203 551 l 2
 203 559 199 563 191 563 c 2
 173 563 l 2xbc
 84 563 49 524 49 444 c 1
 15 444 l 1xdc
EndSplineSet
Position2: "'cpsp' Capital Spacing lookup 0 per glyph data 2" dx=5 dy=0 dh=10 dv=0
EndChar
StartChar: U
Encoding: 85 85 86
Width: 659
GlyphClass: 2
Flags: MW
HStem: -10 41<335.5 433> 561 36
VStem: 92 138<199 541 541 542> 532 43<203 541 541 542>
LayerCount: 2
Back
Fore
SplineSet
35 560 m 1
 35 597 l 1
 299 597 l 1
 299 560 l 1
 250 562 l 2
 238 563 230 554 230 542 c 2
 230 199 l 2
 230 83 287 31 384 31 c 0
 491 31 532 103 532 203 c 2
 532 541 l 2
 532 554 525 563 514 562 c 2
 465 560 l 1
 465 597 l 1
 634 597 l 1
 634 560 l 1
 595 562 l 2
 583 563 575 554 575 542 c 2
 575 203 l 2
 575 73 508 -10 358 -10 c 0
 186 -10 92 55 92 199 c 2
 92 541 l 2
 92 552 84 563 73 562 c 2
 35 560 l 1
EndSplineSet
Position2: "'cpsp' Capital Spacing lookup 0 per glyph data 2" dx=5 dy=0 dh=10 dv=0
EndChar
StartChar: V
Encoding: 86 86 95
Width: 607
GlyphClass: 2
Flags: MW
HStem: -4 21G<283 335 283 283> 562 35<26 30.5 199.5 204 514 521.5 591 591>
VStem: 526.25 100.75
LayerCount: 2
Back
Fore
SplineSet
466 597 m 1
 627 597 l 1
 627 560 l 1
 591 562 l 2
 580 563 577 555 570 539 c 2
 335 -4 l 1
 283 -4 l 1
 49 539 l 2
 42 554 35 562 26 562 c 2
 -2 560 l 1
 -2 597 l 1
 254 597 l 1
 254 560 l 1
 204 562 l 2
 195 562 191 549 195 538 c 2
 359 159 l 1
 519 527 l 2
 530 551 529 562 514 562 c 2
 466 560 l 1
 466 597 l 1
EndSplineSet
Position2: "'cpsp' Capital Spacing lookup 0 per glyph data 2" dx=5 dy=0 dh=10 dv=0
EndChar
StartChar: W
Encoding: 87 87 96
Width: 911
GlyphClass: 2
Flags: MW
HStem: -10 21G<250 299 250 250 644 690 644 644> 562 35<28 32.5 197.5 202 410 410 568.5 574 822 822 901 901>
VStem: 770.5 160.5
LayerCount: 2
Back
Fore
SplineSet
771 597 m 1
 931 597 l 1
 931 560 l 1
 901 562 l 2
 888 563 879 550 876 541 c 2
 690 -10 l 1
 644 -10 l 1
 461 468 l 1
 299 -10 l 1
 250 -10 l 1
 49 540 l 2
 44 555 37 562 28 562 c 2
 -3 560 l 1
 -3 597 l 1
 253 597 l 1
 253 560 l 1
 202 562 l 2
 193 562 189 560 189 551 c 0
 189 550 190 546 192 540 c 2
 321 181 l 1
 439 526 l 1
 437 531 l 2
 429 550 424 563 410 562 c 2
 369 560 l 1
 369 597 l 1
 616 597 l 1
 616 560 l 1
 574 562 l 2
 563 562 561 548 564 540 c 2
 704 160 l 1
 833 542 l 2
 837 553 833 563 822 562 c 2
 770 560 l 1
 771 597 l 1
EndSplineSet
Position2: "'cpsp' Capital Spacing lookup 0 per glyph data 2" dx=5 dy=0 dh=10 dv=0
EndChar
StartChar: X
Encoding: 88 88 101
Width: 585
GlyphClass: 2
Flags: MW
HStem: 0 35.5 562 35<57 62.5 259 259 441 441 521 527>
VStem: 19 167<0 38 0 38> 398 163<560 597>
LayerCount: 2
Back
Fore
SplineSet
561 34 m 2
 593 37 l 1
 593 0 l 1
 316 0 l 1
 316 37 l 1
 365 34 l 2
 380 33 380 45 372 57 c 2
 257 250 l 1
 135 55 l 2
 128 43 133 34 141 35 c 2
 186 38 l 1
 186 0 l 1
 19 0 l 1
 19 38 l 1
 55 36 l 2
 69 36 80 43 89 58 c 2
 237 293 l 1
 89 543 l 2
 80 558 68 562 57 562 c 2
 32 560 l 1
 32 597 l 1
 301 597 l 1
 301 560 l 1
 259 562 l 2
 242 563 239 550 245 541 c 2
 342 372 l 1
 449 542 l 2
 456 553 456 563 441 562 c 2
 398 560 l 1
 398 597 l 1
 561 597 l 1
 561 560 l 1
 527 562 l 2
 515 562 504 555 496 542 c 2
 364 331 l 1
 531 51 l 2
 536 42 546 32 561 34 c 2
EndSplineSet
Position2: "'cpsp' Capital Spacing lookup 0 per glyph data 2" dx=5 dy=0 dh=10 dv=0
EndChar
StartChar: Z
Encoding: 90 90 107
Width: 547
GlyphClass: 2
Flags: MW
HStem: 0 35<201 342 342 387.5> 443 154<55 517 55 517> 562 35<182.5 230 230 350>
VStem: 55 34<443 484 443 600> 492 31
LayerCount: 2
Back
Fore
SplineSet
492 167 m 1xb8
 527 167 l 1
 519 -4 l 1
 510 -1 473 0 406 0 c 2
 31 0 l 1
 31 27 l 1
 350 562 l 1
 230 562 l 2xb8
 135 562 89 525 89 443 c 1
 55 443 l 1xd8
 55 600 l 1
 78 600 120 597 164 597 c 2
 517 597 l 1
 517 573 l 1
 201 35 l 1
 342 35 l 2
 433 35 492 84 492 167 c 1xb8
EndSplineSet
Position2: "'cpsp' Capital Spacing lookup 0 per glyph data 2" dx=5 dy=0 dh=10 dv=0
EndChar
StartChar: bracketleft
Encoding: 91 91 269
Width: 279
Flags: MW
HStem: -147 34<164 246 164 246> 641 34<164 246 164 164>
VStem: 46 118<-113 641 -113 675 -113 675>
LayerCount: 2
Back
Fore
SplineSet
46 -147 m 1
 46 675 l 1
 246 675 l 1
 246 641 l 1
 164 641 l 1
 164 -113 l 1
 246 -113 l 1
 246 -147 l 1
 46 -147 l 1
EndSplineSet
Position2: "'cpsp' Capital Spacing lookup 0 per glyph data 0" dx=0 dy=20 dh=0 dv=0
EndChar
StartChar: backslash
Encoding: 92 92 250
Width: 257
Flags: MW
HStem: -5 21G<210 210>
VStem: -8 267
LayerCount: 2
Back
Fore
SplineSet
-8 626 m 1
 40 637 l 1
 259 8 l 1
 210 -5 l 1
 -8 626 l 1
EndSplineSet
EndChar
StartChar: bracketright
Encoding: 93 93 270
Width: 279
Flags: MW
HStem: -147 34<33 115 33 233 33 115> 641 34<33 115 33 233>
VStem: 115 118<-113 641 641 641>
LayerCount: 2
Back
Fore
SplineSet
233 -147 m 1
 33 -147 l 1
 33 -113 l 1
 115 -113 l 1
 115 641 l 1
 33 641 l 1
 33 675 l 1
 233 675 l 1
 233 -147 l 1
EndSplineSet
Position2: "'cpsp' Capital Spacing lookup 0 per glyph data 0" dx=0 dy=20 dh=0 dv=0
EndChar
StartChar: underscore
Encoding: 95 95 266
Width: 493
Flags: MW
HStem: -191 48<0 493 0 493>
VStem: 0 493<-191 -143 -191 -143>
LayerCount: 2
Back
Fore
SplineSet
0 -143 m 1
 493 -143 l 1
 493 -191 l 1
 0 -191 l 1
 0 -143 l 1
EndSplineSet
EndChar
StartChar: grave
Encoding: 96 96 345
Width: 276
Flags: MW
HStem: 487 166<80 232>
VStem: 25 215<494 623>
LayerCount: 2
Back
Fore
SplineSet
25 616 m 0
 25 630 68 653 92 653 c 0
 107 653 111 647 128 628 c 2
 223 524 l 2
 234 512 240 505 240 497 c 0
 240 491 236 487 228 487 c 0
 221 487 210 492 205 496 c 2
 38 598 l 2
 29 604 25 609 25 616 c 0
EndSplineSet
Substitution2: "'case' Case-Sensitive Forms lookup 10 subtable" grave.case
Substitution2: "'aalt' Access All Alternates lookup 0 subtable" grave.case
EndChar
StartChar: a
Encoding: 97 97 111
Width: 467
GlyphClass: 2
Flags: MW
HStem: -5 59<99.5 218.5> 0 32<418.5 423 418.5 456> 216 35<232.5 279> 401 34<186.5 242>
VStem: 13 136<97 151 97 156.5> 39 118<312.5 325 302 360.5> 279 131<64 64 150 216 216 216 251 302>
LayerCount: 2
Back
Fore
SplineSet
423 32 m 2x76
 456 34 l 1
 456 0 l 1
 274 0 l 1
 275 6 278 31 278 37 c 2x76
 279 64 l 1
 247 14 200 -5 141 -5 c 0
 58 -5 13 32 13 108 c 0xba
 13 205 94 251 279 251 c 1
 279 321 l 2
 279 362 272 401 212 401 c 0
 161 401 148 378 148 360 c 0
 148 341 157 333 157 317 c 0
 157 287 132 271 102 271 c 0
 64 271 39 296 39 329 c 0
 39 392 109 435 224 435 c 0
 342 435 410 396 410 302 c 2
 410 51 l 2
 410 38 414 32 423 32 c 2x76
198 54 m 0xba
 239 54 272 93 279 150 c 1
 279 216 l 1
 186 216 149 182 149 120 c 0
 149 74 167 54 198 54 c 0xba
EndSplineSet
Substitution2: "Single Substitution lookup 17 subtable" ordfeminine
Substitution2: "'aalt' Access All Alternates lookup 0 subtable" ordfeminine
Position2: "Single Positioning lookup 5 subtable" dx=0 dy=0 dh=-40 dv=0
EndChar
StartChar: b
Encoding: 98 98 122
Width: 514
GlyphClass: 2
Flags: MW
HStem: -10 46<276 312.5 251.5 373> -5 21G<62 132 62 62> 390 45<290.5 315.5> 700 30<49 54.5>
VStem: 62 132<356 680 680 684.5> 358 140<145.5 268>
LayerCount: 2
Back
Fore
SplineSet
17 698 m 1xbc
 17 730 l 1
 194 730 l 1
 194 356 l 1
 212 403 259 435 322 435 c 0
 438 435 498 359 498 211 c 0
 498 64 431 -10 315 -10 c 0
 237 -10 209 21 186 52 c 0
 182 57 177 61 168 61 c 0xbc
 143 61 132 34 132 -5 c 1
 62 -5 l 1x7c
 62 680 l 2
 62 689 60 700 49 700 c 2
 17 698 l 1xbc
196 186 m 2
 196 100 219 36 284 36 c 0
 341 36 358 80 358 211 c 0
 358 325 345 390 286 390 c 0
 228 390 196 325 196 229 c 2
 196 186 l 2
EndSplineSet
Position2: "Single Positioning lookup 5 subtable" dx=0 dy=0 dh=-40 dv=0
EndChar
StartChar: c
Encoding: 99 99 123
Width: 439
GlyphClass: 2
Flags: MW
HStem: -10 37<237.5 287> 401 34<222.5 265>
VStem: 20 138<146 286> 310 109<347 359.5 314 371.5>
AnchorPoint: "Anchor-0" 225 0 basechar 0
LayerCount: 2
Back
Fore
SplineSet
244 435 m 0
 346 435 419 389 419 330 c 0
 419 298 399 268 355 268 c 0
 325 268 301 283 301 313 c 0
 301 330 310 338 310 356 c 0
 310 387 281 401 249 401 c 0
 196 401 158 360 158 223 c 0
 158 69 206 27 269 27 c 0
 318 27 369 50 395 123 c 1
 426 108 l 1
 395 22 330 -10 244 -10 c 0
 125 -10 20 51 20 209 c 0
 20 363 117 435 244 435 c 0
EndSplineSet
Position2: "Single Positioning lookup 5 subtable" dx=0 dy=0 dh=-40 dv=0
EndChar
StartChar: d
Encoding: 100 100 127
Width: 522
GlyphClass: 2
Flags: MW
HStem: -10 46<209.5 237.5> 0 32<467.5 472 467.5 506> 390 45<209 236.5 145 266> 700 30<315 319.5>
VStem: 24 140<146.5 265.5 146.5 285> 328 131<357 680 680 685.5>
LayerCount: 2
Back
Fore
SplineSet
24 211 m 0x7c
 24 359 86 435 204 435 c 0
 269 435 314 398 328 357 c 1
 328 680 l 2
 328 691 324 700 315 700 c 2
 269 698 l 1
 269 730 l 1
 459 730 l 1
 459 51 l 2
 459 38 463 32 472 32 c 2
 506 34 l 1
 506 0 l 1
 321 0 l 1
 322 4 323 9 323 16 c 2
 323 38 l 2x7c
 323 50 325 60 325 63 c 1
 309 20 270 -10 205 -10 c 0xbc
 72 -10 24 65 24 211 c 0x7c
164 211 m 0xbc
 164 82 181 36 238 36 c 0
 299 36 326 86 326 186 c 2
 326 229 l 2
 326 329 295 390 237 390 c 0
 181 390 164 320 164 211 c 0xbc
EndSplineSet
Position2: "Single Positioning lookup 5 subtable" dx=0 dy=0 dh=-40 dv=0
EndChar
StartChar: f
Encoding: 102 102 140
Width: 299
GlyphClass: 2
Flags: MW
HStem: 0 32<57 61.5 209.5 214> 393 32<31 70 31 70 201 201 201 279> 702 34<234.5 264.5>
VStem: 70 131<51 393> 288 109<648.5 662 618 669>
LayerCount: 2
Back
Fore
SplineSet
20 0 m 1
 20 34 l 1
 57 32 l 2
 66 32 70 38 70 51 c 2
 70 393 l 1
 31 393 l 1
 31 425 l 1
 70 425 l 1
 70 486 l 2
 70 590 97 736 253 736 c 0
 334 736 397 691 397 633 c 0
 397 603 379 572 333 572 c 0
 303 572 279 586 279 612 c 0
 279 628 288 639 288 658 c 0
 288 680 278 702 251 702 c 0
 218 702 194 681 194 594 c 0
 194 546 200 493 200 449 c 2
 200 425 l 1
 279 425 l 1
 279 393 l 1
 201 393 l 1
 201 51 l 2
 201 38 205 32 214 32 c 2
 276 34 l 1
 276 0 l 1
 20 0 l 1
EndSplineSet
Substitution2: "Single Substitution lookup 17 subtable" f.ss01
Substitution2: "'ss01' Style Set 1 lookup 15 subtable" f.ss01
Substitution2: "'salt' Stylistic Alternatives lookup 14 subtable" f.ss01
Substitution2: "'aalt' Access All Alternates lookup 0 subtable" f.ss01
Position2: "Single Positioning lookup 5 subtable" dx=0 dy=0 dh=-40 dv=0
Position2: "Single Positioning lookup 4 subtable" dx=0 dy=0 dh=50 dv=0
EndChar
StartChar: g
Encoding: 103 103 141
Width: 511
GlyphClass: 2
Flags: MW
HStem: -245 33<203 287 203 312.5> -11 110<187 304 187 304 205 289> -5 21G 159 30<234.5 269.5 221.5 306.5> 401 34<222.5 261.5 189 269> 407 20G 414 96<450 475.5 426 486>
VStem: 36 92<-143 -96.5> 49 134<267 334.5 255 340> 50 97<53 137.5> 309 134<257.5 329.5 253 332.5> 382 109<-112.5 -63>
LayerCount: 2
Back
Fore
SplineSet
410 449 m 0xd310
 394 449 371 436 356 418 c 1
 407 398 443 361 443 298 c 0
 443 208 365 159 248 159 c 0
 221 159 194 162 168 168 c 1
 155 157 147 144 147 131 c 0
 147 108 169 99 205 99 c 2xd260
 304 99 l 2
 420 99 491 59 491 -51 c 0
 491 -174 390 -245 235 -245 c 0
 110 -245 36 -202 36 -123 c 0xd910
 36 -70 74 -32 136 -5 c 1
 88 5 50 31 50 75 c 0
 50 103 62 122 97 154 c 1xb850
 128 181 l 1
 82 202 49 239 49 295 c 0
 49 385 130 435 248 435 c 0xd890
 275 435 301 433 326 427 c 1xd510
 358 469 401 510 451 510 c 0
 500 510 512 480 512 459 c 0
 512 440 502 414 470 414 c 0
 430 414 437 449 410 449 c 0xd310
245 189 m 0xd8a0
 294 189 309 220 309 295 c 0
 309 370 293 401 245 401 c 0
 200 401 183 375 183 294 c 0
 183 216 198 189 245 189 c 0xd8a0
289 -11 m 2xd910
 189 -11 l 1
 187 -11 l 1
 154 -24 128 -69 128 -114 c 0
 128 -172 162 -212 244 -212 c 0
 330 -212 382 -161 382 -89 c 0
 382 -37 356 -11 289 -11 c 2xd910
EndSplineSet
Position2: "Single Positioning lookup 5 subtable" dx=0 dy=0 dh=-40 dv=0
EndChar
StartChar: i
Encoding: 105 105 145
Width: 263
GlyphClass: 2
Flags: MW
HStem: 0 33 393 32 532 125<106.5 151.5>
VStem: 52 154<575 614> 66 131<51 374 374 379.5>
LayerCount: 2
Back
Fore
SplineSet
129 657 m 0xf0
 174 657 206 633 206 595 c 0
 206 555 174 532 129 532 c 0
 84 532 52 555 52 595 c 0
 52 633 84 657 129 657 c 0xf0
197 425 m 1xc8
 197 51 l 2
 197 38 201 31 210 32 c 2
 243 34 l 1
 243 0 l 1
 20 0 l 1
 20 34 l 1
 53 32 l 2
 62 31 66 38 66 51 c 2
 66 374 l 2
 66 385 62 392 54 394 c 1
 21 392 l 1
 21 425 l 1
 197 425 l 1xc8
EndSplineSet
Substitution2: "'locl' Localized Forms in Latin lookup 6 subtable" i.loclTRK
Substitution2: "'locl' Localized Forms in Latin lookup 5 subtable" i.loclTRK
Substitution2: "'locl' Localized Forms in Latin lookup 3 subtable" i.loclTRK
Substitution2: "'locl' Localized Forms in Latin lookup 2 subtable" i.loclTRK
Substitution2: "'locl' Localized Forms in Latin lookup 1 subtable" i.loclTRK
Substitution2: "'aalt' Access All Alternates lookup 0 subtable" i.loclTRK
Position2: "Single Positioning lookup 5 subtable" dx=0 dy=0 dh=-40 dv=0
EndChar
StartChar: j
Encoding: 106 106 155
Width: 262
GlyphClass: 2
Flags: MW
HStem: -243 34<36.5 54 36.5 90.5> 393 32 532 125<106.5 151.5>
VStem: -90 117<-158 -148.5> 52 154<575 614> 66 131<-37 -12 -12 374 374 379.5>
LayerCount: 2
Back
Fore
SplineSet
129 657 m 0xe8
 174 657 206 633 206 595 c 0
 206 555 174 532 129 532 c 0
 84 532 52 555 52 595 c 0
 52 633 84 657 129 657 c 0xe8
197 425 m 1xd4
 197 -12 l 2
 197 -171 142 -243 39 -243 c 0
 -44 -243 -90 -211 -90 -166 c 0
 -90 -131 -65 -108 -27 -108 c 0
 -13 -108 27 -114 27 -153 c 0
 27 -163 21 -175 21 -184 c 0
 21 -200 30 -209 43 -209 c 0
 65 -209 75 -185 75 -159 c 0
 75 -135 66 -106 66 -37 c 2
 66 374 l 2
 66 385 62 395 53 394 c 2
 19 392 l 1
 19 425 l 1
 197 425 l 1xd4
EndSplineSet
Position2: "Single Positioning lookup 5 subtable" dx=0 dy=0 dh=-40 dv=0
EndChar
StartChar: k
Encoding: 107 107 157
Width: 524
GlyphClass: 2
Flags: MW
HStem: 0 33 395 30<354 354 439.5 445> 700 30<54 58>
VStem: 66 131<51 196 238 679 679 686> 311 170<393 425 393 425>
AnchorPoint: "Anchor-0" 260 0 basechar 0
LayerCount: 2
Back
Fore
SplineSet
489 32 m 2
 517 34 l 1
 517 0 l 1
 277 0 l 1
 277 34 l 1
 310 32 l 2
 322 31 324 39 319 46 c 2
 220 215 l 1
 197 196 l 1
 197 51 l 2
 197 38 201 31 210 32 c 2
 245 34 l 1
 245 0 l 1
 20 0 l 1
 20 34 l 1
 53 32 l 1
 62 34 66 40 66 51 c 2
 66 679 l 2
 66 693 62 700 54 700 c 2
 21 698 l 1
 21 730 l 1
 197 730 l 1
 197 238 l 1
 357 375 l 2
 364 382 366 396 354 395 c 2
 311 393 l 1
 311 425 l 1
 481 425 l 1
 481 393 l 1
 445 395 l 2
 434 395 424 390 414 381 c 2
 318 299 l 1
 462 50 l 2
 468 39 481 31 489 32 c 2
EndSplineSet
Position2: "Single Positioning lookup 5 subtable" dx=0 dy=0 dh=-40 dv=0
EndChar
StartChar: l
Encoding: 108 108 159
Width: 263
GlyphClass: 2
Flags: MW
HStem: 0 33 700 31
VStem: 66 131<51 680 680 685.5>
AnchorPoint: "Anchor-0" 128 0 basechar 0
LayerCount: 2
Back
Fore
SplineSet
20 0 m 1
 20 34 l 1
 53 32 l 1
 62 34 66 40 66 51 c 2
 66 680 l 2
 66 691 62 698 54 701 c 1
 21 699 l 1
 21 731 l 1
 197 731 l 1
 197 51 l 2
 197 38 201 31 210 32 c 2
 243 34 l 1
 243 0 l 1
 20 0 l 1
EndSplineSet
Position2: "Single Positioning lookup 5 subtable" dx=0 dy=0 dh=-40 dv=0
EndChar
StartChar: m
Encoding: 109 109 165
Width: 807
GlyphClass: 2
Flags: MW
HStem: 0 33 388 47<313.5 320 589.5 597> 393 32
VStem: 66 131<51 213> 343 131<51 221> 619 131<51 292>
LayerCount: 2
Back
Fore
SplineSet
763 32 m 2xbc
 796 34 l 1
 796 0 l 1
 570 0 l 1
 570 34 l 1
 606 32 l 1
 615 34 619 40 619 51 c 2
 619 293 l 2
 619 354 615 388 579 388 c 0
 540 388 482 331 474 221 c 1
 474 51 l 2
 474 38 478 32 487 32 c 2
 522 34 l 1
 522 0 l 1
 294 0 l 1
 294 34 l 1
 330 32 l 1
 339 34 343 40 343 51 c 2
 343 293 l 2
 343 358 338 388 302 388 c 0xdc
 262 388 203 327 197 213 c 1
 197 51 l 2
 197 38 201 31 210 32 c 2
 246 34 l 1
 246 0 l 1
 20 0 l 1
 20 34 l 1
 53 32 l 1
 62 34 66 40 66 51 c 2
 66 374 l 2
 66 385 62 392 53 394 c 1
 20 392 l 1
 20 425 l 1
 203 425 l 1
 200 416 198 405 198 391 c 2xbc
 198 335 l 1
 225 395 276 435 351 435 c 0
 421 435 461 405 471 329 c 1
 499 396 552 435 627 435 c 0xdc
 713 435 750 391 750 292 c 2
 750 51 l 2
 750 38 754 32 763 32 c 2xbc
EndSplineSet
Position2: "Single Positioning lookup 5 subtable" dx=0 dy=0 dh=-40 dv=0
EndChar
StartChar: n
Encoding: 110 110 166
Width: 539
GlyphClass: 2
Flags: MW
HStem: 0 32<53 53 205.5 210 490.5 495> 388 47<315 325.5> 393 32
VStem: 66 131<51 213 334 374 374 379.5> 351 131<51 292>
AnchorPoint: "Anchor-0" 274 0 basechar 0
LayerCount: 2
Back
Fore
SplineSet
495 32 m 2xb8
 529 34 l 1
 529 0 l 1
 300 0 l 1
 300 34 l 1
 338 32 l 1
 347 34 351 40 351 51 c 2
 351 293 l 2
 351 354 347 388 304 388 c 0xd8
 252 388 197 321 198 191 c 1
 197 213 l 1
 197 51 l 2
 197 38 201 32 210 32 c 2
 249 34 l 1
 249 0 l 1
 20 0 l 1
 20 34 l 1
 53 32 l 1
 62 34 66 40 66 51 c 2
 66 374 l 2
 66 385 62 392 53 394 c 1
 20 392 l 1
 20 425 l 1
 202 425 l 1
 199 416 197 405 197 390 c 2xb8
 197 334 l 1
 225 396 278 435 352 435 c 0xd8
 443 435 482 391 482 292 c 2
 482 51 l 2
 482 38 486 32 495 32 c 2xb8
EndSplineSet
Position2: "Single Positioning lookup 5 subtable" dx=0 dy=0 dh=-40 dv=0
EndChar
StartChar: o
Encoding: 111 111 171
Width: 487
GlyphClass: 2
Flags: MW
HStem: -10 35<215 274 215 320.5> 401 34<215 274>
VStem: 20 140<143 281 143 284> 328 139<143 281>
LayerCount: 2
Back
Fore
SplineSet
20 213 m 0
 20 355 93 435 244 435 c 0
 397 435 467 355 467 213 c 0
 467 69 397 -10 244 -10 c 0
 93 -10 20 69 20 213 c 0
160 211 m 0
 160 75 186 25 244 25 c 0
 304 25 328 75 328 211 c 0
 328 351 304 401 244 401 c 0
 186 401 160 351 160 211 c 0
EndSplineSet
Substitution2: "Single Substitution lookup 17 subtable" ordmasculine
Substitution2: "'aalt' Access All Alternates lookup 0 subtable" ordmasculine
Position2: "Single Positioning lookup 5 subtable" dx=0 dy=0 dh=-40 dv=0
EndChar
StartChar: p
Encoding: 112 112 181
Width: 521
GlyphClass: 2
Flags: MW
HStem: -239 31<49 49 200.5 206 20 49> -10 46<279.5 310.5 254 372.5> 390 45<286.5 314.5> 394 31<49 54.5>
VStem: 62 131<-188 39 349 374> 357 140<145 278>
LayerCount: 2
Back
Fore
SplineSet
325 435 m 0xec
 442 435 497 362 497 211 c 0
 497 65 438 -10 307 -10 c 0
 252 -10 212 8 193 39 c 1
 193 -188 l 2
 193 -196 195 -208 206 -208 c 2
 268 -206 l 1
 268 -239 l 1
 20 -239 l 1
 20 -206 l 1
 49 -208 l 1
 58 -207 62 -201 62 -188 c 2
 62 374 l 2
 62 383 60 394 49 394 c 2
 16 392 l 1
 16 425 l 1
 197 425 l 1
 194 406 193 387 193 374 c 2xdc
 193 349 l 1
 212 401 248 435 325 435 c 0xec
286 390 m 0
 228 390 195 325 195 229 c 2
 195 186 l 2
 195 79 227 36 281 36 c 0xdc
 340 36 357 79 357 211 c 0
 357 345 343 390 286 390 c 0
EndSplineSet
Position2: "Single Positioning lookup 5 subtable" dx=0 dy=0 dh=-40 dv=0
EndChar
StartChar: q
Encoding: 113 113 183
Width: 513
GlyphClass: 2
Flags: MW
HStem: -239 32.5 -10 46<213 236.5> 390 45<211 234.5 146.5 275> 405 20G<389 459 459 459>
VStem: 24 140<147.5 279 147.5 284.5> 328 131<-188 62 62 62>
LayerCount: 2
Back
Fore
SplineSet
207 435 m 0xec
 262 435 301 420 330 380 c 0
 333 376 338 366 353 366 c 0xec
 372 366 389 379 389 425 c 1
 459 425 l 1xdc
 459 -188 l 2
 459 -201 463 -208 472 -207 c 2
 500 -206 l 1
 500 -239 l 1
 259 -239 l 1
 259 -206 l 1
 315 -207 l 1
 324 -206 328 -200 328 -188 c 2
 328 62 l 1
 315 30 274 -10 199 -10 c 0
 87 -10 24 63 24 212 c 0
 24 357 86 435 207 435 c 0xec
240 390 m 0
 182 390 164 339 164 219 c 0
 164 76 188 36 238 36 c 0
 306 36 326 129 326 187 c 2
 326 231 l 2
 326 307 310 390 240 390 c 0
EndSplineSet
Position2: "Single Positioning lookup 5 subtable" dx=0 dy=0 dh=-40 dv=0
EndChar
StartChar: r
Encoding: 114 114 184
Width: 419
GlyphClass: 2
Flags: MW
HStem: 0 32<53 57.5 205.5 210 25 57.5> 389 46<290 294.5> 394 31<53 57.5>
VStem: 66 131<51 201 333 374 374 379> 299 114<324 333.5>
AnchorPoint: "Anchor-0" 142 0 basechar 0
LayerCount: 2
Back
Fore
SplineSet
315 435 m 0xd8
 371 435 413 399 413 345 c 0
 413 303 384 285 353 285 c 0
 328 285 299 297 299 326 c 0
 299 341 306 352 306 367 c 0
 306 377 302 389 287 389 c 0xd8
 231 389 198 278 197 201 c 1
 197 51 l 2
 197 38 201 32 210 32 c 2
 279 34 l 1
 279 0 l 1
 25 0 l 1
 25 34 l 1
 53 32 l 2
 62 32 66 38 66 51 c 2
 66 374 l 2
 66 387 62 394 53 394 c 2
 21 392 l 1
 21 425 l 1
 203 425 l 1
 200 417 197 395 197 379 c 2xb0
 197 333 l 1
 223 407 265 435 315 435 c 0xd8
EndSplineSet
Position2: "Single Positioning lookup 5 subtable" dx=0 dy=0 dh=-40 dv=0
EndChar
StartChar: s
Encoding: 115 115 188
Width: 415
GlyphClass: 2
Flags: MW
HStem: -10 35<198 241 180 265> 16 127 307 106<330 340.5 318 360 330 330> 401 34<192 234.5 153 251>
VStem: 37.5 36.5 42 103<334.5 336.5> 291 98<91.5 99> 330 33
AnchorPoint: "Anchor-0" 220 0 basechar 0
LayerCount: 2
Back
Fore
SplineSet
35 10 m 1x59
 40 142 l 1x59
 74 144 l 1x99
 74 74 141 25 219 25 c 0
 263 25 291 47 291 84 c 0
 291 114 275 131 227 143 c 1
 155 163 l 2
 76 185 42 229 42 296 c 0
 42 377 100 435 206 435 c 0x96
 263 435 300 413 336 413 c 0
 345 413 357 416 366 421 c 1
 360 307 l 1xa9
 330 307 l 1x99
 330 354 289 401 213 401 c 0
 171 401 145 377 145 347 c 0
 145 322 164 303 200 294 c 2
 269 276 l 2
 367 251 389 202 389 140 c 0
 389 43 316 -10 214 -10 c 0x96
 182 -10 158 -5 94 12 c 0
 82 15 73 16 66 16 c 0
 52 16 41 14 35 10 c 1x59
EndSplineSet
Position2: "Single Positioning lookup 5 subtable" dx=0 dy=0 dh=-40 dv=0
EndChar
StartChar: t
Encoding: 116 116 194
Width: 325
GlyphClass: 2
Flags: MW
HStem: -9 37<226.5 227.5> 393 32<10 47.5 10 70 10 47.5 201 300>
VStem: 70 131<89 393>
AnchorPoint: "Anchor-0" 166 0 basechar 0
LayerCount: 2
Back
Fore
SplineSet
201 527 m 1
 201 425 l 1
 300 425 l 1
 300 393 l 1
 201 393 l 1
 201 87 l 2
 201 38 215 28 238 28 c 0
 253 28 274 41 284 67 c 1
 311 52 l 1
 293 7 254 -9 201 -9 c 0
 125 -9 70 17 70 89 c 2
 70 393 l 1
 10 393 l 1
 10 425 l 1
 85 425 107 439 128 527 c 1
 201 527 l 1
EndSplineSet
Position2: "Single Positioning lookup 5 subtable" dx=0 dy=0 dh=-40 dv=0
EndChar
StartChar: u
Encoding: 117 117 198
Width: 532
GlyphClass: 2
Flags: MW
HStem: -10 47<212.5 219> 0 33 394 31<44 48.5 322 326.5>
VStem: 57 131<138 375 375 381.5> 335 131<222 374 374 381>
LayerCount: 2
Back
Fore
SplineSet
479 32 m 1x78
 512 34 l 1
 512 0 l 1
 329 0 l 1
 332 9 334 20 334 44 c 2x78
 334 89 l 1
 306 27 256 -10 182 -10 c 0
 95 -10 57 35 57 138 c 2
 57 375 l 2
 57 388 53 394 44 394 c 2
 11 392 l 1
 11 425 l 1
 188 425 l 1
 188 132 l 2
 188 71 193 37 232 37 c 0xb8
 281 37 336 104 334 234 c 1
 335 222 l 1
 335 374 l 2
 335 388 331 394 322 394 c 2
 283 392 l 1
 283 425 l 1
 466 425 l 1
 466 51 l 2
 466 40 470 33 479 32 c 1x78
EndSplineSet
Position2: "Single Positioning lookup 5 subtable" dx=0 dy=0 dh=-40 dv=0
EndChar
StartChar: v
Encoding: 118 118 207
Width: 475
GlyphClass: 2
Flags: MW
HStem: -5 21G<193 254 193 193> 394 31<19 19 192.5 197 362 362 433 433>
VStem: 321 144<392 425 392 425>
LayerCount: 2
Back
Fore
SplineSet
321 425 m 1
 465 425 l 1
 465 392 l 1
 433 394 l 2
 422 395 414 390 410 379 c 2
 254 -5 l 1
 193 -5 l 1
 39 381 l 2
 36 388 28 395 19 394 c 2
 -13 392 l 1
 -13 425 l 1
 238 425 l 1
 238 392 l 1
 197 394 l 2
 188 394 177 385 182 374 c 2
 277 144 l 1
 370 378 l 2
 373 385 373 395 362 394 c 2
 321 392 l 1
 321 425 l 1
EndSplineSet
Position2: "Single Positioning lookup 5 subtable" dx=0 dy=0 dh=-40 dv=0
EndChar
StartChar: w
Encoding: 119 119 208
Width: 742
GlyphClass: 2
Flags: MW
HStem: -10 21G<187 231 187 187 480 527 480 480> 394 31<29 33 197 197 624 624 692 696> 410 20G<386 434 434 434>
VStem: 571 162<392 425 392 425>
LayerCount: 2
Back
Fore
SplineSet
571 425 m 1xd0
 733 425 l 1
 733 392 l 1
 696 394 l 2
 688 394 680 389 675 377 c 2
 527 -10 l 1
 480 -10 l 1
 358 276 l 1
 231 -10 l 1
 187 -10 l 1
 46 381 l 2
 43 388 37 394 29 394 c 2
 -13 392 l 1
 -13 425 l 1
 241 425 l 1
 241 392 l 1
 197 394 l 2
 182 395 178 385 182 374 c 2xd0
 264 144 l 1
 386 430 l 1
 434 430 l 1xb0
 552 150 l 1
 635 377 l 2
 638 385 639 395 624 394 c 2
 571 392 l 1
 571 425 l 1xd0
EndSplineSet
Position2: "Single Positioning lookup 5 subtable" dx=0 dy=0 dh=-40 dv=0
EndChar
StartChar: x
Encoding: 120 120 213
Width: 523
GlyphClass: 2
Flags: MW
HStem: 0 32<45 48.5 114.5 119 467.5 471> 394 31<41 44.5 220 224 400 405.5 467.5 471>
VStem: 6 156<0 34 0 34> 357 152<392 425 392 425>
LayerCount: 2
Back
Fore
SplineSet
471 32 m 2
 511 34 l 1
 511 0 l 1
 242 0 l 1
 242 34 l 1
 291 31 l 2
 300 30 302 40 298 45 c 2
 204 178 l 1
 108 46 l 2
 107 45 106 43 106 42 c 0
 106 35 110 32 119 32 c 2
 162 34 l 1
 162 0 l 1
 6 0 l 1
 6 34 l 1
 45 32 l 2
 52 32 60 36 66 45 c 2
 183 207 l 1
 60 381 l 1
 55 390 48 394 41 394 c 2
 6 392 l 1
 6 425 l 1
 270 425 l 1
 270 392 l 1
 224 394 l 2
 216 394 208 389 215 381 c 1
 307 251 l 1
 406 377 l 2
 411 384 411 394 400 394 c 2
 357 392 l 1
 357 425 l 1
 509 425 l 1
 509 392 l 1
 471 394 l 2
 464 394 453 388 446 379 c 2
 327 223 l 1
 452 45 l 2
 458 36 464 32 471 32 c 2
EndSplineSet
Position2: "Single Positioning lookup 5 subtable" dx=0 dy=0 dh=-40 dv=0
EndChar
StartChar: y
Encoding: 121 121 214
Width: 501
GlyphClass: 2
Flags: MW
HStem: -239 71<68.5 155> 394 31<37 41 206.5 211 389 394.5 455.5 461 461 463>
VStem: 342 158<392 425 392 425>
LayerCount: 2
Back
Fore
SplineSet
342 425 m 1
 500 425 l 1
 500 392 l 1
 463 394 l 1
 461 394 l 2
 450 394 441 388 436 375 c 2
 232 -116 l 2
 192 -212 152 -239 92 -239 c 0
 45 -239 11 -218 8 -174 c 1
 8 -130 39 -109 65 -109 c 0
 124 -109 115 -168 146 -168 c 0
 164 -168 175 -155 190 -119 c 2
 237 -6 l 1
 53 381 l 2
 49 389 45 394 37 394 c 2
 -2 392 l 1
 -2 425 l 1
 256 425 l 1
 256 392 l 1
 211 394 l 2
 202 394 195 385 199 377 c 2
 306 157 l 1
 399 379 l 2
 402 387 400 394 389 394 c 2
 342 392 l 1
 342 425 l 1
EndSplineSet
Position2: "Single Positioning lookup 5 subtable" dx=0 dy=0 dh=-40 dv=0
EndChar
StartChar: z
Encoding: 122 122 219
Width: 443
GlyphClass: 2
Flags: MW
HStem: 0 33<192 248 248 290> 0 139<377 406 377 406> 285 140<46 399 46 399> 393 32<154 186 186 246>
VStem: 377 29<103.5 139>
LayerCount: 2
Back
Fore
SplineSet
377 139 m 1x58
 406 139 l 1x58
 406 0 l 1
 138 0 l 2
 87 0 46 -2 34 -2 c 1
 34 26 l 1
 246 393 l 1
 186 393 l 2x98
 122 393 85 353 74 285 c 1
 46 285 l 1xa8
 55 427 l 1
 59 427 100 425 151 425 c 2
 399 425 l 1
 399 399 l 1
 192 33 l 1
 248 33 l 2x98
 332 33 377 68 377 139 c 1x58
EndSplineSet
Position2: "Single Positioning lookup 5 subtable" dx=0 dy=0 dh=-40 dv=0
EndChar
StartChar: braceleft
Encoding: 123 123 267
Width: 280
Flags: MW
HStem: -146 37<152 250 223 250 223 250> 638 37<212.5 223 223 250>
VStem: 80 112<-53 176 358 582 582 589>
LayerCount: 2
Back
Fore
SplineSet
30 253 m 1
 30 281 l 1
 67 289 80 309 80 358 c 2
 80 582 l 2
 80 654 106 675 201 675 c 2
 250 675 l 1
 250 638 l 1
 223 638 l 2
 202 638 192 621 192 589 c 2
 192 358 l 2
 192 296 168 280 81 267 c 1
 168 251 191 238 192 176 c 1
 192 -60 l 2
 192 -91 199 -109 223 -109 c 2
 250 -109 l 1
 250 -146 l 1
 201 -146 l 2
 103 -146 80 -125 80 -53 c 2
 80 176 l 2
 80 233 71 240 30 253 c 1
EndSplineSet
Position2: "'cpsp' Capital Spacing lookup 0 per glyph data 0" dx=0 dy=20 dh=0 dv=0
EndChar
StartChar: bar
Encoding: 124 124 323
Width: 240
Flags: MW
HStem: -239 969<98 142 98 142>
VStem: 98 44<-239 730 -239 730>
LayerCount: 2
Back
Fore
SplineSet
98 -239 m 1
 98 730 l 1
 142 730 l 1
 142 -239 l 1
 98 -239 l 1
EndSplineSet
EndChar
StartChar: braceright
Encoding: 125 125 268
Width: 283
Flags: MW
HStem: -146 37<33 60 60 72 33 82 33 60> 638 37<33 60 33 82>
VStem: 91 112<-60 -53 -53 176 358 582>
LayerCount: 2
Back
Fore
SplineSet
253 253 m 1
 212 240 203 233 203 176 c 2
 203 -53 l 2
 203 -125 180 -146 82 -146 c 2
 33 -146 l 1
 33 -109 l 1
 60 -109 l 2
 84 -109 91 -91 91 -60 c 2
 91 176 l 1
 92 238 115 251 202 267 c 1
 115 280 91 296 91 358 c 2
 91 589 l 2
 91 621 81 638 60 638 c 2
 33 638 l 1
 33 675 l 1
 82 675 l 2
 177 675 203 654 203 582 c 2
 203 358 l 2
 203 309 216 289 253 281 c 1
 253 253 l 1
EndSplineSet
Position2: "'cpsp' Capital Spacing lookup 0 per glyph data 0" dx=0 dy=20 dh=0 dv=0
EndChar
StartChar: asciitilde
Encoding: 126 126 297
Width: 460
Flags: MW
HStem: 211 56<294.5 341.5 294.5 347> 276 56<114.5 161.5>
VStem: 17 425<256 293>
LayerCount: 2
Back
Fore
SplineSet
17 256 m 1
 46 308 87 332 131 332 c 0x60
 196 332 264 267 325 267 c 0
 358 267 380 281 411 326 c 1
 442 293 l 1
 413 241 369 211 325 211 c 0xe0
 262 211 192 276 131 276 c 0
 98 276 80 267 49 222 c 1
 17 256 l 1
EndSplineSet
EndChar
StartChar: exclamdown
Encoding: 161 161 257
Width: 286
Flags: MW
HStem: 296 149<104.5 157.5>
VStem: 39 183<349.5 391> 116 30<138.5 220>
LayerCount: 2
Back
Fore
SplineSet
131 445 m 0xc0
 184 445 222 412 222 370 c 0
 222 329 184 296 131 296 c 0
 78 296 39 329 39 370 c 0
 39 412 78 445 131 445 c 0xc0
131 234 m 0xa0
 142 234 146 226 146 214 c 0
 146 63 203 -106 203 -166 c 0
 203 -211 181 -242 133 -242 c 0
 82 -242 59 -211 59 -166 c 0
 59 -103 116 63 116 214 c 0
 116 226 120 234 131 234 c 0xa0
EndSplineSet
Position2: "'cpsp' Capital Spacing lookup 0 per glyph data 1" dx=0 dy=35 dh=0 dv=0
EndChar
StartChar: cent
Encoding: 162 162 288
Width: 414
Flags: MW
HStem: 113 33<206 274 251 251> 439 30<206 246>
VStem: 34 133<234.5 349> 206 45<-95 113 -95 113 469 647> 270 112<369.5 379.5>
LayerCount: 2
Back
Fore
SplineSet
257 146 m 0
 291 146 328 159 354 218 c 1
 382 208 l 1
 357 139 309 117 251 113 c 1
 251 -95 l 1
 206 -95 l 1
 206 113 l 1
 118 118 34 161 34 289 c 0
 34 409 109 462 206 469 c 1
 206 647 l 1
 251 647 l 1
 251 469 l 1xf0
 332 464 382 429 382 384 c 0
 382 355 362 330 323 330 c 0
 295 330 270 343 270 372 c 0
 270 387 277 393 277 406 c 0xf8
 277 430 257 439 235 439 c 0
 196 439 167 408 167 301 c 0
 167 168 211 146 257 146 c 0
EndSplineSet
EndChar
StartChar: sterling
Encoding: 163 163 293
Width: 507
Flags: MW
HStem: -3 21G<30 30 445.5 454> 0 97<126 308 179 308 308 357.5 179 376> 299 30<36 111 36 112 36 111 257 376> 577 30<285 316>
VStem: 109 131<475 478.5> 116 141<128 241> 333 119<500.5 511.5> 432 27
LayerCount: 2
Back
Fore
SplineSet
432 168 m 1x79
 464 168 l 1
 454 -3 l 1
 437 -3 412 0 376 0 c 2
 143 0 l 2x79
 109 0 55 -2 30 -3 c 1
 28 16 l 1
 81 46 116 100 116 156 c 1
 112 299 l 1
 36 299 l 1
 36 329 l 1xb5
 111 329 l 1
 109 410 l 1
 109 547 169 607 318 607 c 0
 400 607 452 567 452 518 c 0
 452 483 423 461 390 461 c 0
 359 461 333 479 333 504 c 0
 333 519 342 529 342 543 c 0
 342 567 329 577 303 577 c 0
 267 577 240 543 240 487 c 0
 240 463 255 386 257 329 c 1x7a
 376 329 l 1
 376 299 l 1
 257 299 l 1
 257 241 l 2
 257 183 220 131 179 97 c 1x75
 308 97 l 2
 407 97 432 114 432 168 c 1x79
EndSplineSet
EndChar
StartChar: currency
Encoding: 164 164 289
Width: 443
Flags: MW
HStem: 94 40<202.5 241> 396 39<203 242 203 258> 415 20
VStem: 52 38<245.5 285> 353 40<244.5 284 244.5 300.5>
LayerCount: 2
Back
Fore
SplineSet
393 265 m 0xd8
 393 224 379 187 357 159 c 1
 405 110 l 1
 374 79 l 1
 326 128 l 1
 296 106 260 94 222 94 c 0
 183 94 147 107 119 130 c 1
 69 80 l 1
 38 111 l 1
 88 161 l 1
 65 190 52 226 52 265 c 0
 52 305 65 340 87 368 c 1
 39 416 l 1
 70 447 l 1xb8
 118 399 l 1
 147 422 184 435 222 435 c 0
 262 435 299 421 328 399 c 1
 375 446 l 1xd8
 406 415 l 1
 358 368 l 1xb8
 380 339 393 303 393 265 c 0xd8
222 134 m 0
 294 134 353 193 353 265 c 0
 353 336 294 396 222 396 c 0
 149 396 90 336 90 265 c 0
 90 193 149 134 222 134 c 0
EndSplineSet
EndChar
StartChar: yen
Encoding: 165 165 294
Width: 577
Flags: MW
HStem: 0 35<204 210.5 373.5 381> 195 36<88 223 88 223 361 500> 305 36<88 172 88 194 88 172 400 500> 562 35<27 31.5 216 216 462 468 533.5 539>
VStem: 223 138<57 195 231 256 256 256> 410 159<560 597 560 597>
LayerCount: 2
Back
Fore
SplineSet
410 597 m 1
 569 597 l 1
 569 560 l 1
 539 562 l 2
 528 562 519 555 511 541 c 2
 400 341 l 1
 500 341 l 1
 500 305 l 1
 380 305 l 1
 361 272 l 1
 361 231 l 1
 500 231 l 1
 500 195 l 1
 361 195 l 1
 361 56 l 2
 361 44 366 35 381 35 c 2
 429 37 l 1
 429 0 l 1
 155 0 l 1
 155 37 l 1
 204 35 l 2
 217 35 223 42 223 57 c 2
 223 195 l 1
 88 195 l 1
 88 231 l 1
 223 231 l 1
 223 256 l 1
 194 305 l 1
 88 305 l 1
 88 341 l 1
 172 341 l 1
 51 543 l 2
 43 556 36 562 27 562 c 2
 -1 560 l 1
 -1 597 l 1
 269 597 l 1
 269 560 l 1
 216 562 l 2
 201 563 202 549 209 538 c 2
 342 316 l 1
 469 542 l 2
 473 550 474 562 462 562 c 2
 410 560 l 1
 410 597 l 1
EndSplineSet
EndChar
StartChar: brokenbar
Encoding: 166 166 324
Width: 240
Flags: MW
HStem: 587 20G<97 143 143 143>
VStem: 97 46<-231 113 -231 113 265 607>
LayerCount: 2
Back
Fore
SplineSet
97 265 m 1
 97 607 l 1
 143 607 l 1
 143 265 l 1
 97 265 l 1
97 113 m 1
 143 113 l 1
 143 -231 l 1
 97 -231 l 1
 97 113 l 1
EndSplineSet
EndChar
StartChar: section
Encoding: 167 167 330
Width: 439
Flags: MW
HStem: -135 30<198 238.5 198 275> 577 30<201.5 242>
VStem: 27 103<193 285.5> 32 110<-67.5 -52.5 -76.5 -14.5> 34 105<498 506> 298 110<524.5 539.5 486.5 548.5> 301 105<-34 -26> 310 103<186.5 279>
LayerCount: 2
Back
Fore
SplineSet
329 136 m 1xca
 386 98 406 57 406 10 c 0
 406 -78 335 -135 215 -135 c 0
 125 -135 32 -102 32 -33 c 0
 32 4 58 30 99 30 c 0
 136 30 153 9 153 -17 c 0
 153 -37 142 -44 142 -61 c 0xd2
 142 -92 181 -105 215 -105 c 0
 262 -105 301 -82 301 -42 c 0
 301 -10 277 10 243 28 c 2
 120 93 l 2
 51 129 27 170 27 216 c 0xe2
 27 265 54 307 111 337 c 1
 54 375 34 415 34 462 c 0
 34 550 105 607 225 607 c 0
 315 607 408 574 408 505 c 0
 408 468 382 442 341 442 c 0
 304 442 287 464 287 489 c 0
 287 509 298 516 298 533 c 0xcc
 298 564 259 577 225 577 c 0
 178 577 139 554 139 514 c 0
 139 482 163 462 197 445 c 1
 320 379 l 2
 389 343 413 302 413 256 c 0xc9
 413 207 386 165 329 136 c 1xca
200 208 m 1xe1
 295 155 l 1
 305 166 310 179 310 194 c 0
 310 224 291 238 240 265 c 2
 145 317 l 1
 135 306 130 293 130 278 c 0
 130 248 149 234 200 208 c 1xe1
EndSplineSet
EndChar
StartChar: dieresis
Encoding: 168 168 343
Width: 420
Flags: MW
HStem: 532 126<81.5 126 81.5 126.5 292.5 337>
VStem: 27 154<575.5 614> 238 154<575.5 614>
LayerCount: 2
Back
Fore
SplineSet
27 595 m 0
 27 633 59 658 104 658 c 0
 148 658 181 633 181 595 c 0
 181 556 149 532 104 532 c 0
 59 532 27 556 27 595 c 0
238 595 m 0
 238 633 270 658 315 658 c 0
 359 658 392 633 392 595 c 0
 392 556 360 532 315 532 c 0
 270 532 238 556 238 595 c 0
EndSplineSet
Substitution2: "'case' Case-Sensitive Forms lookup 10 subtable" dieresis.case
Substitution2: "'aalt' Access All Alternates lookup 0 subtable" dieresis.case
EndChar
StartChar: copyright
Encoding: 169 169 328
Width: 708
Flags: MW
HStem: -10 38<277 428.5 277 438> 130 31<359 387.5> 158 75<469.5 490 490 494> 372 72 441 29<356.5 398.5 306 402> 570 37<277 428.5>
VStem: 45 40<222.5 373 222.5 383> 181 120<247.5 351.5 247.5 352.5> 465 25 621 41<222.5 373>
LayerCount: 2
Back
Fore
SplineSet
353 607 m 0xcfc0
 523 607 662 468 662 298 c 0
 662 126 523 -10 353 -10 c 0
 181 -10 45 126 45 298 c 0
 45 468 181 607 353 607 c 0xcfc0
353 28 m 0
 504 28 621 147 621 298 c 0
 621 448 504 570 353 570 c 0
 201 570 85 448 85 298 c 0
 85 147 201 28 353 28 c 0
468 233 m 1xafc0
 495 233 l 1
 493 203 492 188 492 181 c 0xafc0
 492 171 493 165 494 158 c 1
 490 158 l 2
 449 158 414 130 361 130 c 0
 249 130 181 194 181 298 c 0
 181 407 248 470 364 470 c 0xcfc0
 433 470 447 444 490 444 c 1
 489 432 488 418 488 405 c 0
 488 390 489 375 490 373 c 1xd7c0
 465 371 l 1
 458 409 420 441 384 441 c 0
 329 441 301 405 301 298 c 0
 301 197 332 161 386 161 c 0xcfc0
 424 161 460 193 468 233 c 1xafc0
EndSplineSet
EndChar
StartChar: ordfeminine
Encoding: 170 170 226
Width: 343
GlyphClass: 2
Flags: MW
HStem: 342 42<76 161> 350 31<295 297 295 323> 467 31<164 193> 585 30<143.5 171>
VStem: 20 100<407.5 434.5 407.5 440.5> 31 96<542.5 564.5 538.5 575> 194 97<498 527>
LayerCount: 2
Back
Fore
SplineSet
20 411 m 0xba
 20 470 69 498 194 498 c 1
 194 539 l 2
 194 569 183 585 159 585 c 0
 128 585 127 578 127 551 c 0
 127 526 106 514 79 514 c 0
 54 514 31 528 31 557 c 0
 31 593 71 615 156 615 c 0
 250 615 291 588 291 527 c 2
 291 388 l 2
 291 383 293 381 297 381 c 2
 323 382 l 1
 323 350 l 1
 195 350 l 1x76
 198 390 l 1
 183 358 147 342 104 342 c 0
 48 342 20 365 20 411 c 0xba
120 418 m 0x7a
 120 397 130 384 148 384 c 0
 174 384 193 414 193 451 c 2
 193 467 l 1
 135 467 120 451 120 418 c 0x7a
EndSplineSet
EndChar
StartChar: guillemotleft
Encoding: 171 171 277
Width: 488
Flags: MW
HStem: 35 342<212 255 212 255 212 395 395 438>
VStem: 25 413<35 206>
LayerCount: 2
Back
Fore
SplineSet
25 206 m 1
 212 377 l 1
 255 377 l 1
 157 206 l 1
 255 35 l 1
 212 35 l 1
 25 206 l 1
208 206 m 1
 395 377 l 1
 438 377 l 1
 340 206 l 1
 438 35 l 1
 395 35 l 1
 208 206 l 1
EndSplineSet
Position2: "'cpsp' Capital Spacing lookup 0 per glyph data 0" dx=0 dy=20 dh=0 dv=0
EndChar
StartChar: logicalnot
Encoding: 172 172 309
Width: 460
Flags: MW
HStem: 312 48<20 440 20 390>
VStem: 390 50<146 312 312 312>
LayerCount: 2
Back
Fore
SplineSet
20 312 m 1
 20 360 l 1
 440 360 l 1
 440 146 l 1
 390 146 l 1
 390 312 l 1
 20 312 l 1
EndSplineSet
EndChar
StartChar: uni00AD
Encoding: 173 173 276
Width: 250
Flags: MW
HStem: 182 62<22 228 22 228>
VStem: 22 206<182 244 182 244>
LayerCount: 2
Back
Fore
SplineSet
22 182 m 1
 22 244 l 1
 228 244 l 1
 228 182 l 1
 22 182 l 1
EndSplineSet
EndChar
StartChar: registered
Encoding: 174 174 329
Width: 487
Flags: MW
HStem: 215 31<193.5 292.5 193.5 302.5> 316 27<136 154 154 156 240 254 136 154> 387 30<231 243 243 249 231 243> 486 27<136 151 136 267 234.5 236 236 246> 576 31<193.5 292.5>
VStem: 41 34<362 460 362 469> 160 71<350 387 347.5 417 417 479 479 481> 272 71<451 465.5> 273 92<316 361 316 373> 411 35<362 460>
LayerCount: 2
Back
Fore
SplineSet
244 607 m 0xfec0
 361 607 446 527 446 411 c 0
 446 296 361 215 244 215 c 0
 126 215 41 296 41 411 c 0
 41 527 126 607 244 607 c 0xfec0
243 576 m 0
 144 576 75 509 75 411 c 0
 75 313 144 246 243 246 c 0
 342 246 411 313 411 411 c 0
 411 509 342 576 243 576 c 0
136 513 m 1
 267 513 l 2
 319 513 343 498 343 466 c 0
 343 436 323 413 282 407 c 1xff40
 312 407 346 390 347 360 c 0
 347 352 350 340 365 343 c 1
 365 316 l 1
 316 316 l 2
 286 316 273 329 273 355 c 2
 273 361 l 2
 273 385 259 387 249 387 c 2
 231 387 l 1
 231 350 l 2
 231 345 234 343 240 343 c 2
 254 343 l 1
 254 316 l 1
 136 316 l 1
 136 343 l 1
 154 343 l 2
 158 343 160 345 160 350 c 2
 160 479 l 2
 160 483 158 486 151 486 c 2
 136 486 l 1
 136 513 l 1
246 486 m 2
 236 486 l 2
 233 486 231 485 231 483 c 2
 231 417 l 1
 243 417 l 2
 263 417 272 435 272 453 c 0
 272 478 258 486 246 486 c 2
EndSplineSet
EndChar
StartChar: macron
Encoding: 175 175 347
Width: 447
Flags: MW
HStem: 560 47<104 343 104 343>
VStem: 104 239<560 607 560 607>
LayerCount: 2
Back
Fore
SplineSet
104 560 m 1
 104 607 l 1
 343 607 l 1
 343 560 l 1
 104 560 l 1
EndSplineSet
Substitution2: "'case' Case-Sensitive Forms lookup 10 subtable" macron.case
Substitution2: "'aalt' Access All Alternates lookup 0 subtable" macron.case
EndChar
StartChar: degree
Encoding: 176 176 332
Width: 374
Flags: MW
HStem: 404 48<173 201.5 173 215> 558 49<173 201.5>
VStem: 85 50<490.5 520 490.5 533.5> 240 49<490.5 520>
LayerCount: 2
Back
Fore
SplineSet
85 505 m 0
 85 562 131 607 187 607 c 0
 243 607 289 562 289 505 c 0
 289 449 243 404 187 404 c 0
 131 404 85 449 85 505 c 0
135 505 m 0
 135 476 159 452 187 452 c 0
 216 452 240 476 240 505 c 0
 240 535 216 558 187 558 c 0
 159 558 135 535 135 505 c 0
EndSplineSet
EndChar
StartChar: plusminus
Encoding: 177 177 318
Width: 460
Flags: MW
HStem: 0 49<20 440 20 440> 273 49<20 203 20 203 256 440>
VStem: 203 53<87 273 87 273 322 506>
LayerCount: 2
Back
Fore
SplineSet
20 273 m 1
 20 322 l 1
 203 322 l 1
 203 506 l 1
 256 506 l 1
 256 322 l 1
 440 322 l 1
 440 273 l 1
 256 273 l 1
 256 87 l 1
 203 87 l 1
 203 273 l 1
 20 273 l 1
20 0 m 1
 20 49 l 1
 440 49 l 1
 440 0 l 1
 20 0 l 1
EndSplineSet
EndChar
StartChar: uni00B2
Encoding: 178 178 247
Width: 293
Flags: MW
HStem: 403 66<70 205 205 220 70 227 23 205> 656 22<131.5 149>
VStem: 13 104<600 608 590 631> 171 108<587.5 626>
LayerCount: 2
Back
Fore
SplineSet
205 469 m 2
 235 469 249 480 251 495 c 1
 276 495 l 1
 269 466 266 417 265 401 c 1
 261 402 239 403 227 403 c 2
 23 403 l 1
 20 467 l 1
 100 509 l 1
 148 536 171 563 171 612 c 0
 171 640 158 656 140 656 c 0
 123 656 111 647 111 634 c 0
 111 622 117 614 117 602 c 0
 117 578 93 566 66 566 c 0
 28 566 13 588 13 612 c 0
 13 650 55 678 140 678 c 0
 218 678 279 655 279 603 c 0
 279 557 233 527 152 497 c 1
 70 469 l 1
 205 469 l 2
EndSplineSet
EndChar
StartChar: uni00B3
Encoding: 179 179 248
Width: 291
Flags: MW
HStem: 397 23<132 150.5 132 174> 530 21<73 93> 656 22<128.5 144>
VStem: 7 102<455.5 467> 13 102<609 620.5 602.5 638.5> 73 91<544 547 544 551 544 551> 163 102<595.5 631> 179 103<458 493.5>
LayerCount: 2
Back
Fore
SplineSet
73 530 m 1xe9
 73 551 l 1
 113 551 163 566 163 620 c 0
 163 642 153 656 135 656 c 0
 122 656 111 648 111 638 c 0
 111 631 115 626 115 615 c 0
 115 590 90 578 63 578 c 0
 28 578 13 599 13 619 c 0
 13 658 69 678 139 678 c 0
 205 678 265 661 265 615 c 0xea
 265 576 222 553 164 547 c 1
 164 544 l 1xe5
 238 544 282 523 282 480 c 0
 282 429 219 397 129 397 c 0
 55 397 7 415 7 455 c 0
 7 479 28 497 58 497 c 0
 88 497 109 481 109 459 c 0
 109 452 107 445 107 439 c 0xf1
 107 423 127 420 137 420 c 0
 164 420 179 441 179 475 c 0
 179 512 161 526 73 530 c 1xe9
EndSplineSet
EndChar
StartChar: acute
Encoding: 180 180 338
Width: 276
Flags: MW
HStem: 487 166<44 196>
VStem: 36 215<494 623>
LayerCount: 2
Back
Fore
SplineSet
251 616 m 0
 251 609 247 604 238 598 c 2
 71 496 l 2
 66 492 55 487 48 487 c 0
 40 487 36 491 36 497 c 0
 36 505 42 512 53 524 c 2
 148 628 l 2
 165 647 169 653 184 653 c 0
 208 653 251 630 251 616 c 0
EndSplineSet
Substitution2: "'case' Case-Sensitive Forms lookup 10 subtable" acute.case
Substitution2: "'aalt' Access All Alternates lookup 0 subtable" acute.case
EndChar
StartChar: uni00B5
Encoding: 181 181 310
Width: 540
Flags: MW
HStem: -239 32<52 52 203.5 209> -7 44<220.5 243.5> 0 33 394 31<52 56.5 330 334>
VStem: 65 131<-188 -5 101.5 132 132 375 375 381.5> 342 132<45.5 51 51 90 90 90 231 374 374 381>
LayerCount: 2
Back
Fore
SplineSet
487 32 m 1xbc
 520 34 l 1
 520 0 l 1
 337 0 l 1
 340 10 342 25 342 45 c 2xbc
 342 90 l 1
 320 40 273 -7 214 -7 c 0
 208 -7 202 -6 196 -5 c 1
 196 -188 l 2
 196 -196 198 -207 209 -207 c 2
 267 -206 l 1
 267 -239 l 1
 19 -239 l 1
 19 -206 l 1
 52 -207 l 1
 60 -206 65 -200 65 -188 c 2
 65 375 l 2
 65 388 61 394 52 394 c 2
 19 392 l 1
 19 425 l 1
 196 425 l 1
 196 132 l 2
 196 71 201 37 240 37 c 0xdc
 289 37 342 102 342 231 c 2
 342 374 l 2
 342 388 338 394 330 394 c 2
 291 392 l 1
 291 425 l 1
 474 425 l 1
 474 51 l 2
 474 40 478 33 487 32 c 1xbc
EndSplineSet
EndChar
StartChar: paragraph
Encoding: 182 182 327
Width: 499
Flags: MW
HStem: 559 38<297.5 309 309 342 385 478 385 385>
VStem: 228 43<-269 266 266 266> 342 43<-269 559 -269 559>
LayerCount: 2
Back
Fore
SplineSet
30 431 m 0
 30 534 104 597 228 597 c 2
 478 597 l 1
 478 559 l 1
 385 559 l 1
 385 -269 l 1
 342 -269 l 1
 342 559 l 1
 309 559 l 2
 286 559 271 548 271 521 c 2
 271 -269 l 1
 228 -269 l 1
 228 266 l 1
 104 266 30 323 30 431 c 0
EndSplineSet
EndChar
StartChar: periodcentered
Encoding: 183 183 251
Width: 275
Flags: MW
HStem: 119 150<110.5 164>
VStem: 45 185<170.5 217>
LayerCount: 2
Back
Fore
SplineSet
45 194 m 0
 45 240 84 269 137 269 c 0
 191 269 230 240 230 194 c 0
 230 147 191 119 137 119 c 0
 84 119 45 147 45 194 c 0
EndSplineSet
EndChar
StartChar: cedilla
Encoding: 184 184 341
Width: 241
Flags: MW
HStem: -214 35<87.5 88 67.5 123>
VStem: 57 59<-67.5 -62.5> 125 88<-145 -124.5>
LayerCount: 2
Back
Fore
SplineSet
27 -198 m 1
 40 -166 l 1
 48 -175 60 -179 75 -179 c 0
 101 -179 125 -157 125 -133 c 0
 125 -116 108 -103 91 -94 c 1xa0
 68 -80 l 2
 61 -75 57 -70 57 -65 c 0
 57 -60 59 -56 63 -52 c 2
 104 0 l 1
 145 0 l 1
 122 -36 l 2
 118 -43 116 -50 116 -55 c 0xe0
 116 -81 213 -60 213 -122 c 0
 213 -186 150 -214 96 -214 c 0
 79 -214 50 -213 27 -198 c 1
EndSplineSet
EndChar
StartChar: uni00B9
Encoding: 185 185 246
Width: 222
Flags: MW
HStem: 403 26<27 60 60 63 184 209 27 60>
VStem: 69 106<438 603 603 606>
LayerCount: 2
Back
Fore
SplineSet
175 682 m 1
 175 438 l 2
 175 432 178 429 184 429 c 2
 209 429 l 1
 209 403 l 1
 27 403 l 1
 27 429 l 1
 60 429 l 2
 66 429 69 432 69 438 c 2
 69 603 l 2
 69 609 65 612 60 611 c 2
 23 604 l 1
 16 634 l 1
 73 643 134 670 156 682 c 1
 175 682 l 1
EndSplineSet
EndChar
StartChar: ordmasculine
Encoding: 186 186 227
Width: 351
GlyphClass: 2
Flags: MW
HStem: 344 32<156 192 156 223.5> 587 31<157 193>
VStem: 21 109<443 518 443 523.5> 221 108<437.5 520>
LayerCount: 2
Back
Fore
SplineSet
21 480 m 0
 21 567 80 618 175 618 c 0
 268 618 329 569 329 480 c 0
 329 395 272 344 175 344 c 0
 70 344 21 404 21 480 c 0
130 480 m 0
 130 406 137 376 175 376 c 0
 209 376 221 394 221 480 c 0
 221 560 211 587 175 587 c 0
 139 587 130 556 130 480 c 0
EndSplineSet
EndChar
StartChar: guillemotright
Encoding: 187 187 278
Width: 478
Flags: MW
HStem: 35 342<51 94 51 94 51 223 223 266>
VStem: 51 402<35 206 206 377>
LayerCount: 2
Back
Fore
SplineSet
281 206 m 1
 94 35 l 1
 51 35 l 1
 149 206 l 1
 51 377 l 1
 94 377 l 1
 281 206 l 1
453 206 m 1
 266 35 l 1
 223 35 l 1
 321 206 l 1
 223 377 l 1
 266 377 l 1
 453 206 l 1
EndSplineSet
Position2: "'cpsp' Capital Spacing lookup 0 per glyph data 0" dx=0 dy=20 dh=0 dv=0
EndChar
StartChar: onequarter
Encoding: 188 188 244
Width: 580
Flags: MW
HStem: 0 26<359 395 395 398.5 520 539 359 395> 61 41<320 405 320 405 511 547> 332 26<56 89 89 92 213 238 56 89>
VStem: 98 106<367 532 532 535> 405 106<35 61 32 61 102 185 185 185>
LayerCount: 2
Back
Fore
SplineSet
89 358 m 2
 95 358 98 361 98 367 c 2
 98 532 l 2
 98 538 94 541 89 540 c 2
 52 533 l 1
 45 563 l 1
 102 572 163 599 185 611 c 1
 204 611 l 1
 204 367 l 2
 204 361 207 358 213 358 c 2
 238 358 l 1
 238 332 l 1
 56 332 l 1
 56 358 l 1
 89 358 l 2
492 609 m 1
 534 581 l 1
 105 -21 l 1
 65 10 l 1
 492 609 l 1
547 61 m 1
 511 61 l 1
 511 35 l 2
 511 29 514 26 520 26 c 2
 539 26 l 1
 539 0 l 1
 359 0 l 1
 359 26 l 1
 395 26 l 2
 402 26 405 29 405 35 c 2
 405 61 l 1
 277 61 l 1
 277 98 l 1
 453 274 l 1
 511 274 l 1
 511 102 l 1
 547 102 l 1
 547 61 l 1
320 102 m 1
 405 102 l 1
 405 185 l 1
 320 102 l 1
EndSplineSet
Ligature2: "'frac' Diagonal Fractions lookup 8 subtable" one slash four
EndChar
StartChar: onehalf
Encoding: 189 189 243
Width: 625
Flags: MW
HStem: 0 66<382 517 517 532 382 539 335 517> 253 22<443.5 461> 332 26<56 89 89 92 213 238 56 89>
VStem: 98 106<367 532 532 535> 325 104<197 205 187 228> 483 108<184.5 223>
LayerCount: 2
Back
Fore
SplineSet
89 358 m 2
 95 358 98 361 98 367 c 2
 98 532 l 2
 98 538 94 541 89 540 c 2
 52 533 l 1
 45 563 l 1
 102 572 163 599 185 611 c 1
 204 611 l 1
 204 367 l 2
 204 361 207 358 213 358 c 2
 238 358 l 1
 238 332 l 1
 56 332 l 1
 56 358 l 1
 89 358 l 2
495 609 m 1
 537 581 l 1
 108 -21 l 1
 68 10 l 1
 495 609 l 1
517 66 m 2
 547 66 561 77 563 92 c 1
 588 92 l 1
 581 63 578 14 577 -2 c 1
 573 -1 551 0 539 0 c 2
 335 0 l 1
 332 64 l 1
 412 106 l 1
 460 133 483 160 483 209 c 0
 483 237 470 253 452 253 c 0
 435 253 423 244 423 231 c 0
 423 219 429 211 429 199 c 0
 429 175 405 163 378 163 c 0
 340 163 325 185 325 209 c 0
 325 247 367 275 452 275 c 0
 530 275 591 252 591 200 c 0
 591 154 545 124 464 94 c 1
 382 66 l 1
 517 66 l 2
EndSplineSet
Ligature2: "'frac' Diagonal Fractions lookup 8 subtable" one slash two
EndChar
StartChar: threequarters
Encoding: 190 190 245
Width: 580
Flags: MW
HStem: 0 26<362 398 398 401.5 523 542 362 398> 61 41<323 408 323 408 514 550> 326 23<156 174.5 156 198> 406 20G<67 97> 459 21<97 117> 585 22<152.5 168>
VStem: 31 102<384.5 396> 37 102<538 549.5 531.5 567.5> 97 91<473 476 473 480 473 480> 187 102<524.5 560> 203 103<387 422.5> 408 106<35 61 32 61 102 185 185 185>
LayerCount: 2
Back
Fore
SplineSet
510 609 m 1xfc30
 552 581 l 1
 123 -21 l 1
 83 10 l 1
 510 609 l 1xfc30
306 409 m 0
 306 358 243 326 153 326 c 0
 79 326 31 344 31 384 c 0
 31 408 52 426 82 426 c 0
 112 426 133 410 133 388 c 0
 133 381 131 374 131 368 c 0
 131 352 151 349 161 349 c 0
 188 349 203 370 203 404 c 0xfe30
 203 441 185 455 97 459 c 1
 97 480 l 1
 137 480 187 495 187 549 c 0
 187 571 177 585 159 585 c 0
 146 585 135 577 135 567 c 0
 135 560 139 555 139 544 c 0
 139 519 114 507 87 507 c 0
 52 507 37 528 37 548 c 0
 37 587 93 607 163 607 c 0
 229 607 289 590 289 544 c 0xfd50
 289 505 246 482 188 476 c 1
 188 473 l 1xfcb0
 262 473 306 452 306 409 c 0
514 274 m 1
 514 102 l 1
 550 102 l 1
 550 61 l 1
 514 61 l 1
 514 35 l 2
 514 29 517 26 523 26 c 2
 542 26 l 1
 542 0 l 1
 362 0 l 1
 362 26 l 1
 398 26 l 2
 405 26 408 29 408 35 c 2
 408 61 l 1
 280 61 l 1
 280 98 l 1
 456 274 l 1
 514 274 l 1
323 102 m 1
 408 102 l 1
 408 185 l 1
 323 102 l 1
EndSplineSet
Ligature2: "'frac' Diagonal Fractions lookup 8 subtable" three slash four
EndChar
StartChar: questiondown
Encoding: 191 191 261
Width: 413
Flags: MW
HStem: -235 34<210.5 245.5 210.5 266.5> 296 149<193 245 192.5 246>
VStem: 21 141<-151 -83 -151 -66.5> 127 183<350.5 392> 212 87<77.5 130 57 135.5> 280 120<-177.5 -161.5>
LayerCount: 2
Back
Fore
SplineSet
219 445 m 0xd0
 271 445 310 414 310 371 c 0
 310 330 273 296 219 296 c 0
 167 296 127 327 127 370 c 0
 127 414 166 445 219 445 c 0xd0
185 219 m 1xa8
 227 208 299 161 299 99 c 0xa8
 299 15 162 -36 162 -130 c 0
 162 -172 189 -201 232 -201 c 0
 259 -201 280 -189 280 -168 c 0
 280 -155 272 -144 272 -128 c 0
 272 -96 303 -82 333 -82 c 0
 380 -82 400 -114 400 -146 c 0xa4
 400 -209 318 -235 215 -235 c 0
 90 -235 21 -196 21 -125 c 0
 21 -8 212 32 212 123 c 0
 212 148 198 175 168 193 c 1
 185 219 l 1xa8
EndSplineSet
Position2: "'cpsp' Capital Spacing lookup 0 per glyph data 1" dx=0 dy=35 dh=0 dv=0
EndChar
StartChar: Agrave
Encoding: 192 192 7
Width: 613
GlyphClass: 2
Flags: MW
HStem: 0 35<9 13 13 19.5 9 161 -20 13 603 608> 186 35<156 348 156 362 142 348> 587 20G<282 331 331 331>
VStem: -20 114 408.92 224.08
LayerCount: 2
Back
Fore
SplineSet
175 771 m 2
 166 777 162 782 162 789 c 0
 162 803 205 826 229 826 c 0
 244 826 248 820 265 801 c 2
 360 697 l 2
 371 685 377 678 377 670 c 0
 377 664 373 660 365 660 c 0
 358 660 347 665 342 669 c 2
 175 771 l 2
608 35 m 1
 633 37 l 1
 633 0 l 1
 333 0 l 1
 333 37 l 1
 379 35 l 1
 419 32 412 67 399 98 c 2
 362 186 l 1
 142 186 l 1
 108 104 l 2
 93 69 83 31 116 34 c 2
 161 37 l 1
 161 0 l 1
 -20 0 l 1
 -20 37 l 1
 9 35 l 1
 13 35 l 2
 26 35 37 41 46 54 c 0
 56 68 66 87 76 112 c 2
 282 607 l 1
 331 607 l 1
 539 110 l 2
 549 85 559 66 568 53 c 0
 577 41 588 35 603 35 c 2
 608 35 l 1
156 221 m 1
 348 221 l 1
 251 451 l 1
 156 221 l 1
EndSplineSet
Position2: "'cpsp' Capital Spacing lookup 0 per glyph data 2" dx=5 dy=0 dh=10 dv=0
EndChar
StartChar: Acircumflex
Encoding: 194 194 5
Width: 613
GlyphClass: 2
Flags: MW
HStem: 0 35<9 13 13 19.5 9 161 -20 13 603 608> 186 35<156 348 156 362 142 348> 587 20G<282 331 331 331> 744 60<276 309>
VStem: -20 114 408.92 224.08
LayerCount: 2
Back
Fore
SplineSet
164 666 m 0
 155 666 153 671 153 674 c 0
 153 684 188 710 229 756 c 1
 252 780 l 1
 276 804 l 2
 287 816 299 822 309 822 c 0
 319 822 330 816 342 804 c 2
 366 780 l 1
 389 756 l 1
 430 710 465 684 465 674 c 0
 465 671 463 666 453 666 c 0
 441 666 428 673 420 678 c 2
 309 744 l 1
 197 678 l 2
 189 673 176 666 164 666 c 0
608 35 m 1
 633 37 l 1
 633 0 l 1
 333 0 l 1
 333 37 l 1
 379 35 l 1
 419 32 412 67 399 98 c 2
 362 186 l 1
 142 186 l 1
 108 104 l 2
 93 69 83 31 116 34 c 2
 161 37 l 1
 161 0 l 1
 -20 0 l 1
 -20 37 l 1
 9 35 l 1
 13 35 l 2
 26 35 37 41 46 54 c 0
 56 68 66 87 76 112 c 2
 282 607 l 1
 331 607 l 1
 539 110 l 2
 549 85 559 66 568 53 c 0
 577 41 588 35 603 35 c 2
 608 35 l 1
156 221 m 1
 348 221 l 1
 251 451 l 1
 156 221 l 1
EndSplineSet
Position2: "'cpsp' Capital Spacing lookup 0 per glyph data 2" dx=5 dy=0 dh=10 dv=0
EndChar
StartChar: Atilde
Encoding: 195 195 11
Width: 613
GlyphClass: 2
Flags: MW
HStem: 0 35<9 13 13 19.5 9 161 -20 13 603 608> 186 35<156 348 156 362 142 348> 587 20G<282 331 331 331> 671 61<373 401.5 373 410.5> 711 60<217.5 246>
VStem: -20 114 166 28<672 684 672 700.5> 408.92 224.08 425 27<758.5 770>
LayerCount: 2
Back
Fore
SplineSet
227 711 m 0xee80
 208 711 194 696 194 672 c 1
 166 672 l 1
 166 729 186 771 230 771 c 0xee80
 278 771 354 732 392 732 c 0
 411 732 425 747 425 770 c 1
 452 770 l 1
 452 713 433 671 388 671 c 0xf680
 339 671 265 711 227 711 c 0xee80
608 35 m 1
 633 37 l 1
 633 0 l 1
 333 0 l 1
 333 37 l 1
 379 35 l 1
 419 32 412 67 399 98 c 2
 362 186 l 1xef
 142 186 l 1
 108 104 l 2
 93 69 83 31 116 34 c 2
 161 37 l 1
 161 0 l 1
 -20 0 l 1
 -20 37 l 1
 9 35 l 1
 13 35 l 2
 26 35 37 41 46 54 c 0
 56 68 66 87 76 112 c 2
 282 607 l 1
 331 607 l 1
 539 110 l 2
 549 85 559 66 568 53 c 0
 577 41 588 35 603 35 c 2
 608 35 l 1
156 221 m 1
 348 221 l 1
 251 451 l 1
 156 221 l 1
EndSplineSet
Position2: "'cpsp' Capital Spacing lookup 0 per glyph data 2" dx=5 dy=0 dh=10 dv=0
EndChar
StartChar: Adieresis
Encoding: 196 196 6
Width: 613
GlyphClass: 2
Flags: MW
HStem: 0 35<9 13 13 19.5 9 161 -20 13 603 608> 186 35<156 348 156 362 142 348> 587 20G<282 331 331 331> 681 126<179.5 224 179.5 224.5 390.5 435>
VStem: -20 114 125 154<724.5 763> 336 154<724.5 763> 408.92 224.08
LayerCount: 2
Back
Fore
SplineSet
202 681 m 0xfe
 157 681 125 705 125 744 c 0
 125 782 157 807 202 807 c 0
 246 807 279 782 279 744 c 0
 279 705 247 681 202 681 c 0xfe
413 681 m 0
 368 681 336 705 336 744 c 0
 336 782 368 807 413 807 c 0
 457 807 490 782 490 744 c 0
 490 705 458 681 413 681 c 0
608 35 m 1
 633 37 l 1
 633 0 l 1
 333 0 l 1
 333 37 l 1
 379 35 l 1
 419 32 412 67 399 98 c 2
 362 186 l 1xfd
 142 186 l 1
 108 104 l 2
 93 69 83 31 116 34 c 2
 161 37 l 1
 161 0 l 1
 -20 0 l 1
 -20 37 l 1
 9 35 l 1
 13 35 l 2
 26 35 37 41 46 54 c 0
 56 68 66 87 76 112 c 2
 282 607 l 1
 331 607 l 1
 539 110 l 2
 549 85 559 66 568 53 c 0
 577 41 588 35 603 35 c 2
 608 35 l 1
156 221 m 1
 348 221 l 1
 251 451 l 1
 156 221 l 1
EndSplineSet
Position2: "'cpsp' Capital Spacing lookup 0 per glyph data 2" dx=5 dy=0 dh=10 dv=0
EndChar
StartChar: Aring
Encoding: 197 197 10
Width: 613
GlyphClass: 2
Flags: MW
HStem: 0 35<9 13 13 19.5 9 161 -20 13 603 608> 186 35<156 348 156 362 142 348> 587 20G<282 331 331 331> 665 41<297 319.5 297 333> 789 42<297 319.5>
VStem: -20 114 221 50<735 760.5 735 771.5> 347 49<735 760.5> 408.92 224.08
LayerCount: 2
Back
Fore
SplineSet
308 665 m 0
 257 665 221 700 221 748 c 0
 221 795 259 831 308 831 c 0
 358 831 396 796 396 748 c 0
 396 700 358 665 308 665 c 0
308 789 m 0
 286 789 271 773 271 748 c 0
 271 722 286 706 308 706 c 0
 331 706 347 722 347 748 c 0
 347 773 331 789 308 789 c 0
608 35 m 1
 633 37 l 1
 633 0 l 1
 333 0 l 1
 333 37 l 1
 379 35 l 1
 419 32 412 67 399 98 c 2
 362 186 l 1xff80
 142 186 l 1
 108 104 l 2
 93 69 83 31 116 34 c 2
 161 37 l 1
 161 0 l 1
 -20 0 l 1
 -20 37 l 1
 9 35 l 1
 13 35 l 2
 26 35 37 41 46 54 c 0
 56 68 66 87 76 112 c 2
 282 607 l 1
 331 607 l 1
 539 110 l 2
 549 85 559 66 568 53 c 0
 577 41 588 35 603 35 c 2
 608 35 l 1
156 221 m 1
 348 221 l 1
 251 451 l 1
 156 221 l 1
EndSplineSet
Position2: "'cpsp' Capital Spacing lookup 0 per glyph data 2" dx=5 dy=0 dh=10 dv=0
EndChar
StartChar: AE
Encoding: 198 198 12
Width: 850
GlyphClass: 2
Flags: MW
HStem: 0 34<587 631 631 678> 0 36.5 186 35<189 390 189 397 167 390> 289 35<520 575 575 576 520 520> 406 20G<651 686 686 686> 443 154<753 754 275 786 753 753> 562 35<471 611 471 471>
VStem: -20 115.5 651 35<395.5 426> 753 33<443 484.5> 772 34<126.5 171>
LayerCount: 2
Back
Fore
SplineSet
786 599 m 1x7bc0
 786 443 l 1
 753 443 l 1xbcc0
 753 526 707 562 611 562 c 2
 471 562 l 1
 514 324 l 1
 575 324 l 2
 618 324 651 365 651 426 c 1
 686 426 l 1
 686 191 l 1
 652 191 l 1
 652 247 619 289 576 289 c 2
 520 289 l 1
 566 53 l 2
 569 42 576 34 587 34 c 2
 631 34 l 2
 725 34 772 82 772 171 c 1
 806 171 l 1
 806 -3 l 1
 767 0 727 0 711 0 c 2
 342 0 l 1xbaa0
 342 38 l 1
 399 35 l 2
 416 34 424 48 421 60 c 2
 397 186 l 1
 167 186 l 1
 109 88 l 2
 98 68 82 32 115 35 c 1
 166 38 l 1x7ba0
 166 0 l 1
 -20 0 l 1xbba0
 -20 38 l 1
 11 35 l 1
 30 32 45 51 71 94 c 2
 341 536 l 2
 348 548 337 560 326 560 c 2
 275 558 l 1
 275 597 l 1
 745 597 l 2
 763 597 778 598 786 599 c 1x7bc0
342 473 m 1
 189 221 l 1
 390 221 l 1
 342 473 l 1
EndSplineSet
Position2: "'cpsp' Capital Spacing lookup 0 per glyph data 2" dx=5 dy=0 dh=10 dv=0
EndChar
StartChar: Ccedilla
Encoding: 199 199 17
Width: 596
GlyphClass: 2
Flags: MW
HStem: -214 35<294.5 295 274.5 330> -9 34<304 401.5> 35 132<530 557 557 563> 433 131<525 557 525 525> 575 32<300.5 395.5>
VStem: 30 151<208 386 208 393.5> 264 59<-67.5 -62.5> 332 88<-145 -124.5> 525 32<433 433>
AnchorPoint: "Anchor-0" 327 0 basechar 0
LayerCount: 2
Back
Fore
SplineSet
566 167 m 1
 561 126 560 95 560 82 c 0
 560 63 561 47 563 35 c 1
 557 35 l 2
 499 35 431 -7 346 -10 c 1
 329 -36 l 2
 325 -43 323 -50 323 -55 c 0xef80
 323 -81 420 -60 420 -122 c 0
 420 -186 357 -214 303 -214 c 0
 286 -214 257 -213 234 -198 c 1
 247 -166 l 1
 255 -175 267 -179 282 -179 c 0
 308 -179 332 -157 332 -133 c 0
 332 -116 315 -103 298 -94 c 1xcd80
 275 -80 l 2
 268 -75 264 -70 264 -65 c 0
 264 -60 266 -56 270 -52 c 2
 304 -9 l 1
 134 4 30 117 30 295 c 0
 30 492 146 607 341 607 c 0xcf80
 452 607 480 564 557 564 c 1
 554 541 553 513 553 489 c 0
 553 459 555 435 557 433 c 1xdd80
 525 433 l 1
 509 511 436 575 355 575 c 0
 246 575 181 477 181 295 c 0
 181 121 251 25 359 25 c 0xcd80
 444 25 513 87 530 167 c 1
 566 167 l 1
EndSplineSet
Position2: "'cpsp' Capital Spacing lookup 0 per glyph data 2" dx=5 dy=0 dh=10 dv=0
EndChar
StartChar: Edieresis
Encoding: 203 203 26
Width: 571
GlyphClass: 2
Flags: MW
HStem: 0 36<243 353 353 398.5> 290 35<231 303 231 303> 406 20G<379 413 413 413> 443 154<462 480 480 484 39 497 462 462> 562 35<73 73 239 243 243 320> 681 126<153.5 198 153.5 198.5 364.5 409>
VStem: 93 138<57 290 325 541 541 547> 99 154<724.5 763> 310 154<724.5 763> 379 34<191 219.5 394 426> 462 35<443 485> 492 35<133 179>
AnchorPoint: "Anchor-0" 282 0 basechar 0
LayerCount: 2
Back
Fore
SplineSet
99 744 m 0xed90
 99 782 131 807 176 807 c 0
 220 807 253 782 253 744 c 0
 253 705 221 681 176 681 c 0
 131 681 99 705 99 744 c 0xed90
310 744 m 0
 310 782 342 807 387 807 c 0
 431 807 464 782 464 744 c 0
 464 705 432 681 387 681 c 0
 342 681 310 705 310 744 c 0
39 0 m 1
 39 38 l 1
 75 35 l 2
 87 35 93 42 93 57 c 2
 93 541 l 2
 93 553 85 563 73 562 c 2
 39 560 l 1
 39 597 l 1
 480 597 l 2
 488 597 494 597 497 598 c 1xee60
 497 443 l 1
 462 443 l 1xf660
 462 527 419 562 320 562 c 2
 243 562 l 2
 235 562 231 557 231 548 c 2
 231 325 l 1
 303 325 l 2
 347 325 379 362 379 426 c 1
 413 426 l 1
 413 191 l 1
 379 191 l 1
 379 248 344 290 303 290 c 2
 231 290 l 1
 231 49 l 2
 231 40 235 36 243 36 c 2
 353 36 l 2
 444 36 492 87 492 179 c 1
 527 179 l 1
 527 -3 l 1
 512 -1 474 0 431 0 c 2xee50
 39 0 l 1
EndSplineSet
Position2: "'cpsp' Capital Spacing lookup 0 per glyph data 2" dx=5 dy=0 dh=10 dv=0
EndChar
StartChar: Igrave
Encoding: 204 204 42
Width: 325
GlyphClass: 2
Flags: MW
HStem: 0 36 561 36
VStem: 93 138<57 541>
LayerCount: 2
Back
Fore
SplineSet
15 789 m 0
 15 803 58 826 82 826 c 0
 97 826 101 820 118 801 c 2
 213 697 l 2
 224 685 230 678 230 670 c 0
 230 664 226 660 218 660 c 0
 211 660 200 665 195 669 c 2
 28 771 l 2
 19 777 15 782 15 789 c 0
39 0 m 1
 39 37 l 1
 74 35 l 2
 87 34 93 42 93 57 c 2
 93 541 l 2
 93 552 87 563 74 562 c 2
 39 560 l 1
 39 597 l 1
 287 597 l 1
 287 560 l 1
 251 562 l 2
 239 563 231 553 231 541 c 2
 231 57 l 2
 231 42 238 34 251 35 c 2
 287 37 l 1
 287 0 l 1
 39 0 l 1
EndSplineSet
Position2: "'cpsp' Capital Spacing lookup 0 per glyph data 2" dx=5 dy=0 dh=10 dv=0
EndChar
StartChar: Iacute
Encoding: 205 205 38
Width: 325
GlyphClass: 2
Flags: MW
HStem: 0 36 561 36
VStem: 93 138<57 541>
LayerCount: 2
Back
Fore
SplineSet
311 789 m 0
 311 782 307 777 298 771 c 2
 131 669 l 2
 126 665 115 660 108 660 c 0
 100 660 96 664 96 670 c 0
 96 678 102 685 113 697 c 2
 208 801 l 2
 225 820 229 826 244 826 c 0
 268 826 311 803 311 789 c 0
39 0 m 1
 39 37 l 1
 74 35 l 2
 87 34 93 42 93 57 c 2
 93 541 l 2
 93 552 87 563 74 562 c 2
 39 560 l 1
 39 597 l 1
 287 597 l 1
 287 560 l 1
 251 562 l 2
 239 563 231 553 231 541 c 2
 231 57 l 2
 231 42 238 34 251 35 c 2
 287 37 l 1
 287 0 l 1
 39 0 l 1
EndSplineSet
Position2: "'cpsp' Capital Spacing lookup 0 per glyph data 2" dx=5 dy=0 dh=10 dv=0
EndChar
StartChar: Icircumflex
Encoding: 206 206 39
Width: 325
GlyphClass: 2
Flags: MW
HStem: 0 36 561 36 744 60<129 162>
VStem: 93 138<57 541>
LayerCount: 2
Back
Fore
SplineSet
318 674 m 0
 318 671 316 666 306 666 c 0
 294 666 281 673 273 678 c 2
 162 744 l 1
 50 678 l 2
 42 673 29 666 17 666 c 0
 8 666 6 671 6 674 c 0
 6 684 41 710 82 756 c 1
 105 780 l 1
 129 804 l 2
 140 816 152 822 162 822 c 0
 172 822 183 816 195 804 c 2
 219 780 l 1
 242 756 l 1
 283 710 318 684 318 674 c 0
39 0 m 1
 39 37 l 1
 74 35 l 2
 87 34 93 42 93 57 c 2
 93 541 l 2
 93 552 87 563 74 562 c 2
 39 560 l 1
 39 597 l 1
 287 597 l 1
 287 560 l 1
 251 562 l 2
 239 563 231 553 231 541 c 2
 231 57 l 2
 231 42 238 34 251 35 c 2
 287 37 l 1
 287 0 l 1
 39 0 l 1
EndSplineSet
Position2: "'cpsp' Capital Spacing lookup 0 per glyph data 2" dx=5 dy=0 dh=10 dv=0
EndChar
StartChar: Idieresis
Encoding: 207 207 40
Width: 325
GlyphClass: 2
Flags: MW
HStem: 0 36 561 36 681 126<33.5 78 33.5 78.5 244.5 289>
VStem: -21 154<724.5 763> 93 138<57 541> 190 154<724.5 763>
LayerCount: 2
Back
Fore
SplineSet
-21 744 m 0xf4
 -21 782 11 807 56 807 c 0
 100 807 133 782 133 744 c 0
 133 705 101 681 56 681 c 0
 11 681 -21 705 -21 744 c 0xf4
190 744 m 0
 190 782 222 807 267 807 c 0
 311 807 344 782 344 744 c 0
 344 705 312 681 267 681 c 0
 222 681 190 705 190 744 c 0
39 0 m 1
 39 37 l 1
 74 35 l 2
 87 34 93 42 93 57 c 2
 93 541 l 2
 93 552 87 563 74 562 c 2
 39 560 l 1
 39 597 l 1
 287 597 l 1
 287 560 l 1
 251 562 l 2
 239 563 231 553 231 541 c 2
 231 57 l 2
 231 42 238 34 251 35 c 2
 287 37 l 1
 287 0 l 1xc8
 39 0 l 1
EndSplineSet
Position2: "'cpsp' Capital Spacing lookup 0 per glyph data 2" dx=5 dy=0 dh=10 dv=0
EndChar
StartChar: Ntilde
Encoding: 209 209 59
Width: 677
GlyphClass: 2
Flags: MW
HStem: -6 21G<526 586 526 526> 0 27<73 79.5 147.5 154> 569 28<73 73 524 524 524 527 597.5 603 603 605> 671 61<406 434.5 406 443.5> 711 60<250.5 279>
VStem: 93 42<49 525> 199 28<672 684 672 700.5> 458 27<758.5 770> 544 42<184 548 -6 549 -6 555.5>
AnchorPoint: "Anchor-0" 342 0 basechar 0
LayerCount: 2
Back
Fore
SplineSet
260 711 m 0x6f80
 241 711 227 696 227 672 c 1
 199 672 l 1
 199 729 219 771 263 771 c 0x6f80
 311 771 387 732 425 732 c 0
 444 732 458 747 458 770 c 1
 485 770 l 1
 485 713 466 671 421 671 c 0x7780
 372 671 298 711 260 711 c 0x6f80
475 597 m 1
 644 597 l 1
 644 567 l 1
 605 569 l 1
 603 569 l 2
 592 569 586 562 586 548 c 2
 586 -6 l 1
 526 -6 l 1xaf80
 135 525 l 1
 135 49 l 2
 135 34 141 27 154 27 c 2
 203 29 l 1
 203 0 l 1
 34 0 l 1
 34 29 l 1
 73 27 l 2
 86 27 93 34 93 49 c 2
 93 548 l 2
 93 559 86 570 73 569 c 2
 34 567 l 1
 34 597 l 1
 240 597 l 1
 544 184 l 1
 544 549 l 2
 544 562 538 569 527 569 c 2
 524 569 l 1
 475 567 l 1
 475 597 l 1
EndSplineSet
Position2: "'cpsp' Capital Spacing lookup 0 per glyph data 2" dx=5 dy=0 dh=10 dv=0
EndChar
StartChar: Ograve
Encoding: 210 210 64
Width: 678
GlyphClass: 2
Flags: MW
HStem: -10 35<285.5 392.5 285.5 437> 573 34<285.5 392.5>
VStem: 30 151<201 399> 497 151<201 396 201 404.5>
LayerCount: 2
Back
Fore
SplineSet
192 789 m 0
 192 803 235 826 259 826 c 0
 274 826 278 820 295 801 c 2
 390 697 l 2
 401 685 407 678 407 670 c 0
 407 664 403 660 395 660 c 0
 388 660 377 665 372 669 c 2
 205 771 l 2
 196 777 192 782 192 789 c 0
30 299 m 0
 30 499 145 607 339 607 c 0
 539 607 648 493 648 299 c 0
 648 103 535 -10 339 -10 c 0
 143 -10 30 103 30 299 c 0
181 299 m 0
 181 87 232 25 339 25 c 0
 446 25 497 87 497 299 c 0
 497 510 446 573 339 573 c 0
 232 573 181 510 181 299 c 0
EndSplineSet
Position2: "'cpsp' Capital Spacing lookup 0 per glyph data 2" dx=5 dy=0 dh=10 dv=0
EndChar
StartChar: Oacute
Encoding: 211 211 61
Width: 678
GlyphClass: 2
Flags: MW
HStem: -10 35<285.5 392.5 285.5 437> 573 34<285.5 392.5>
VStem: 30 151<201 399> 497 151<201 396 201 404.5>
LayerCount: 2
Back
Fore
SplineSet
487 789 m 0
 487 782 483 777 474 771 c 2
 307 669 l 2
 302 665 291 660 284 660 c 0
 276 660 272 664 272 670 c 0
 272 678 278 685 289 697 c 2
 384 801 l 2
 401 820 405 826 420 826 c 0
 444 826 487 803 487 789 c 0
30 299 m 0
 30 499 145 607 339 607 c 0
 539 607 648 493 648 299 c 0
 648 103 535 -10 339 -10 c 0
 143 -10 30 103 30 299 c 0
181 299 m 0
 181 87 232 25 339 25 c 0
 446 25 497 87 497 299 c 0
 497 510 446 573 339 573 c 0
 232 573 181 510 181 299 c 0
EndSplineSet
Position2: "'cpsp' Capital Spacing lookup 0 per glyph data 2" dx=5 dy=0 dh=10 dv=0
EndChar
StartChar: Ocircumflex
Encoding: 212 212 62
Width: 678
GlyphClass: 2
Flags: MW
HStem: -10 35<285.5 392.5 285.5 437> 573 34<285.5 392.5> 744 60<306 339>
VStem: 30 151<201 399> 497 151<201 396 201 404.5>
LayerCount: 2
Back
Fore
SplineSet
495 674 m 0
 495 671 493 666 483 666 c 0
 471 666 458 673 450 678 c 2
 339 744 l 1
 227 678 l 2
 219 673 206 666 194 666 c 0
 185 666 183 671 183 674 c 0
 183 684 218 710 259 756 c 1
 282 780 l 1
 306 804 l 2
 317 816 329 822 339 822 c 0
 349 822 360 816 372 804 c 2
 396 780 l 1
 419 756 l 1
 460 710 495 684 495 674 c 0
30 299 m 0
 30 499 145 607 339 607 c 0
 539 607 648 493 648 299 c 0
 648 103 535 -10 339 -10 c 0
 143 -10 30 103 30 299 c 0
181 299 m 0
 181 87 232 25 339 25 c 0
 446 25 497 87 497 299 c 0
 497 510 446 573 339 573 c 0
 232 573 181 510 181 299 c 0
EndSplineSet
Position2: "'cpsp' Capital Spacing lookup 0 per glyph data 2" dx=5 dy=0 dh=10 dv=0
EndChar
StartChar: Otilde
Encoding: 213 213 68
Width: 678
GlyphClass: 2
Flags: MW
HStem: -10 35<285.5 392.5 285.5 437> 573 34<285.5 392.5> 671 61<403 431.5 403 440.5> 711 60<247.5 276>
VStem: 30 151<201 399> 196 28<672 684 672 700.5> 455 27<758.5 770> 497 151<201 396 201 404.5>
LayerCount: 2
Back
Fore
SplineSet
196 672 m 1xdd
 196 729 216 771 260 771 c 0xdd
 308 771 384 732 422 732 c 0
 441 732 455 747 455 770 c 1
 482 770 l 1
 482 713 463 671 418 671 c 0xeb
 369 671 295 711 257 711 c 0
 238 711 224 696 224 672 c 1
 196 672 l 1xdd
30 299 m 0xd9
 30 499 145 607 339 607 c 0
 539 607 648 493 648 299 c 0
 648 103 535 -10 339 -10 c 0
 143 -10 30 103 30 299 c 0xd9
181 299 m 0
 181 87 232 25 339 25 c 0
 446 25 497 87 497 299 c 0
 497 510 446 573 339 573 c 0
 232 573 181 510 181 299 c 0
EndSplineSet
Position2: "'cpsp' Capital Spacing lookup 0 per glyph data 2" dx=5 dy=0 dh=10 dv=0
EndChar
StartChar: Odieresis
Encoding: 214 214 63
Width: 678
GlyphClass: 2
Flags: MW
HStem: -10 35<285.5 392.5 285.5 437> 573 34<285.5 392.5> 681 126<210.5 255 210.5 255.5 421.5 466>
VStem: 30 151<201 399> 156 154<724.5 763> 367 154<724.5 763> 497 151<201 396 201 404.5>
LayerCount: 2
Back
Fore
SplineSet
156 744 m 0xec
 156 782 188 807 233 807 c 0
 277 807 310 782 310 744 c 0
 310 705 278 681 233 681 c 0
 188 681 156 705 156 744 c 0xec
367 744 m 0
 367 782 399 807 444 807 c 0
 488 807 521 782 521 744 c 0
 521 705 489 681 444 681 c 0
 399 681 367 705 367 744 c 0
30 299 m 0xd2
 30 499 145 607 339 607 c 0
 539 607 648 493 648 299 c 0
 648 103 535 -10 339 -10 c 0
 143 -10 30 103 30 299 c 0xd2
181 299 m 0
 181 87 232 25 339 25 c 0
 446 25 497 87 497 299 c 0
 497 510 446 573 339 573 c 0
 232 573 181 510 181 299 c 0
EndSplineSet
Position2: "'cpsp' Capital Spacing lookup 0 per glyph data 2" dx=5 dy=0 dh=10 dv=0
EndChar
StartChar: multiply
Encoding: 215 215 312
Width: 460
Flags: MW
HStem: 416 20G<99 99>
VStem: 60 340<134 135>
LayerCount: 2
Back
Fore
SplineSet
60 135 m 1
 194 268 l 1
 62 399 l 1
 99 436 l 1
 229 304 l 1
 362 437 l 1
 400 400 l 1
 266 267 l 1
 400 134 l 1
 364 98 l 1
 230 231 l 1
 98 99 l 1
 60 135 l 1
EndSplineSet
EndChar
StartChar: Oslash
Encoding: 216 216 67
Width: 676
GlyphClass: 2
Flags: MW
HStem: -10 35<315 392.5 315 437> 573 34<285.5 360.5>
VStem: 30 151<261.5 399> 497 151<201 341>
LayerCount: 2
Back
Fore
SplineSet
519 564 m 1
 603 515 648 423 648 299 c 0
 648 103 535 -10 339 -10 c 0
 284 -10 236 -1 195 16 c 1
 130 -95 l 1
 85 -71 l 1
 150 39 l 1
 72 90 30 179 30 299 c 0
 30 499 145 607 339 607 c 0
 389 607 433 600 471 586 c 1
 531 689 l 1
 576 662 l 1
 519 564 l 1
181 299 m 0
 181 224 187 167 201 126 c 1
 442 537 l 1
 416 563 382 573 339 573 c 0
 232 573 181 510 181 299 c 0
339 25 m 0
 446 25 497 87 497 299 c 0
 497 383 489 444 472 486 c 1
 228 71 l 1
 254 38 291 25 339 25 c 0
EndSplineSet
Position2: "'cpsp' Capital Spacing lookup 0 per glyph data 2" dx=5 dy=0 dh=10 dv=0
EndChar
StartChar: Ugrave
Encoding: 217 217 90
Width: 659
GlyphClass: 2
Flags: MW
HStem: -10 41<335.5 433> 561 36
VStem: 92 138<199 541 541 542> 532 43<203 541 541 542>
LayerCount: 2
Back
Fore
SplineSet
197 789 m 0
 197 803 240 826 264 826 c 0
 279 826 283 820 300 801 c 2
 395 697 l 2
 406 685 412 678 412 670 c 0
 412 664 408 660 400 660 c 0
 393 660 382 665 377 669 c 2
 210 771 l 2
 201 777 197 782 197 789 c 0
35 560 m 1
 35 597 l 1
 299 597 l 1
 299 560 l 1
 250 562 l 2
 238 563 230 554 230 542 c 2
 230 199 l 2
 230 83 287 31 384 31 c 0
 491 31 532 103 532 203 c 2
 532 541 l 2
 532 554 525 563 514 562 c 2
 465 560 l 1
 465 597 l 1
 634 597 l 1
 634 560 l 1
 595 562 l 2
 583 563 575 554 575 542 c 2
 575 203 l 2
 575 73 508 -10 358 -10 c 0
 186 -10 92 55 92 199 c 2
 92 541 l 2
 92 552 84 563 73 562 c 2
 35 560 l 1
EndSplineSet
Position2: "'cpsp' Capital Spacing lookup 0 per glyph data 2" dx=5 dy=0 dh=10 dv=0
EndChar
StartChar: Uacute
Encoding: 218 218 87
Width: 659
GlyphClass: 2
Flags: MW
HStem: -10 41<335.5 433> 561 36
VStem: 92 138<199 541 541 542> 532 43<203 541 541 542>
LayerCount: 2
Back
Fore
SplineSet
492 789 m 0
 492 782 488 777 479 771 c 2
 312 669 l 2
 307 665 296 660 289 660 c 0
 281 660 277 664 277 670 c 0
 277 678 283 685 294 697 c 2
 389 801 l 2
 406 820 410 826 425 826 c 0
 449 826 492 803 492 789 c 0
35 560 m 1
 35 597 l 1
 299 597 l 1
 299 560 l 1
 250 562 l 2
 238 563 230 554 230 542 c 2
 230 199 l 2
 230 83 287 31 384 31 c 0
 491 31 532 103 532 203 c 2
 532 541 l 2
 532 554 525 563 514 562 c 2
 465 560 l 1
 465 597 l 1
 634 597 l 1
 634 560 l 1
 595 562 l 2
 583 563 575 554 575 542 c 2
 575 203 l 2
 575 73 508 -10 358 -10 c 0
 186 -10 92 55 92 199 c 2
 92 541 l 2
 92 552 84 563 73 562 c 2
 35 560 l 1
EndSplineSet
Position2: "'cpsp' Capital Spacing lookup 0 per glyph data 2" dx=5 dy=0 dh=10 dv=0
EndChar
StartChar: Ucircumflex
Encoding: 219 219 88
Width: 659
GlyphClass: 2
Flags: MW
HStem: -10 41<335.5 433> 561 36 744 60<311 344>
VStem: 92 138<199 541 541 542> 532 43<203 541 541 542>
LayerCount: 2
Back
Fore
SplineSet
500 674 m 0
 500 671 498 666 488 666 c 0
 476 666 463 673 455 678 c 2
 344 744 l 1
 232 678 l 2
 224 673 211 666 199 666 c 0
 190 666 188 671 188 674 c 0
 188 684 223 710 264 756 c 1
 287 780 l 1
 311 804 l 2
 322 816 334 822 344 822 c 0
 354 822 365 816 377 804 c 2
 401 780 l 1
 424 756 l 1
 465 710 500 684 500 674 c 0
35 560 m 1
 35 597 l 1
 299 597 l 1
 299 560 l 1
 250 562 l 2
 238 563 230 554 230 542 c 2
 230 199 l 2
 230 83 287 31 384 31 c 0
 491 31 532 103 532 203 c 2
 532 541 l 2
 532 554 525 563 514 562 c 2
 465 560 l 1
 465 597 l 1
 634 597 l 1
 634 560 l 1
 595 562 l 2
 583 563 575 554 575 542 c 2
 575 203 l 2
 575 73 508 -10 358 -10 c 0
 186 -10 92 55 92 199 c 2
 92 541 l 2
 92 552 84 563 73 562 c 2
 35 560 l 1
EndSplineSet
Position2: "'cpsp' Capital Spacing lookup 0 per glyph data 2" dx=5 dy=0 dh=10 dv=0
EndChar
StartChar: Udieresis
Encoding: 220 220 89
Width: 659
GlyphClass: 2
Flags: MW
HStem: -10 41<335.5 433> 561 36 681 126<214.5 259 214.5 259.5 425.5 470>
VStem: 92 138<199 541 541 542> 160 154<724.5 763> 371 154<724.5 763> 532 43<203 541 541 542>
LayerCount: 2
Back
Fore
SplineSet
160 744 m 0xec
 160 782 192 807 237 807 c 0
 281 807 314 782 314 744 c 0
 314 705 282 681 237 681 c 0
 192 681 160 705 160 744 c 0xec
371 744 m 0
 371 782 403 807 448 807 c 0
 492 807 525 782 525 744 c 0
 525 705 493 681 448 681 c 0
 403 681 371 705 371 744 c 0
35 560 m 1xd2
 35 597 l 1
 299 597 l 1
 299 560 l 1
 250 562 l 2
 238 563 230 554 230 542 c 2
 230 199 l 2
 230 83 287 31 384 31 c 0
 491 31 532 103 532 203 c 2
 532 541 l 2
 532 554 525 563 514 562 c 2
 465 560 l 1
 465 597 l 1
 634 597 l 1
 634 560 l 1
 595 562 l 2
 583 563 575 554 575 542 c 2
 575 203 l 2
 575 73 508 -10 358 -10 c 0
 186 -10 92 55 92 199 c 2
 92 541 l 2
 92 552 84 563 73 562 c 2
 35 560 l 1xd2
EndSplineSet
Position2: "'cpsp' Capital Spacing lookup 0 per glyph data 2" dx=5 dy=0 dh=10 dv=0
EndChar
StartChar: Yacute
Encoding: 221 221 103
Width: 559
GlyphClass: 2
Flags: MW
HStem: 0 35<204 210.5 373.5 381> 562 35<27 31.5 216 216 462 468 533.5 539>
VStem: 223 138<57 256 256 256> 410 159<560 597 560 597>
LayerCount: 2
Back
Fore
SplineSet
250 660 m 0
 242 660 238 664 238 670 c 0
 238 678 244 685 255 697 c 2
 350 801 l 2
 367 820 371 826 386 826 c 0
 410 826 453 803 453 789 c 0
 453 782 449 777 440 771 c 2
 273 669 l 2
 268 665 257 660 250 660 c 0
410 597 m 1
 569 597 l 1
 569 560 l 1
 539 562 l 2
 528 562 519 555 511 541 c 2
 361 272 l 1
 361 56 l 2
 361 44 366 35 381 35 c 2
 429 37 l 1
 429 0 l 1
 155 0 l 1
 155 37 l 1
 204 35 l 2
 217 35 223 42 223 57 c 2
 223 256 l 1
 51 543 l 2
 43 556 36 562 27 562 c 2
 -1 560 l 1
 -1 597 l 1
 269 597 l 1
 269 560 l 1
 216 562 l 2
 201 563 202 549 209 538 c 2
 342 316 l 1
 469 542 l 2
 473 550 474 562 462 562 c 2
 410 560 l 1
 410 597 l 1
EndSplineSet
Position2: "'cpsp' Capital Spacing lookup 0 per glyph data 2" dx=5 dy=0 dh=10 dv=0
EndChar
StartChar: Thorn
Encoding: 222 222 71
Width: 543
GlyphClass: 2
Flags: MW
HStem: 0 28 162 26<244 291 291 314.5 244 327 231 291> 471 25<231 275 231 306> 569 28<74 74 245 251>
VStem: 93 138<49 162 197.5 201 201 471 496 548> 378 141<289.5 378.5>
LayerCount: 2
Back
Fore
SplineSet
39 0 m 1
 39 29 l 1
 74 27 l 2
 87 26 93 36 93 49 c 2
 93 548 l 2
 93 559 87 570 74 569 c 2
 39 567 l 1
 39 597 l 1
 300 597 l 1
 300 567 l 1
 251 569 l 2
 239 569 231 559 231 548 c 2
 231 496 l 1
 306 496 l 2
 452 496 519 454 519 334 c 0
 519 223 448 162 327 162 c 2
 231 162 l 1
 231 49 l 2
 231 36 236 26 251 27 c 2
 300 29 l 1
 300 0 l 1
 39 0 l 1
231 201 m 2
 231 194 237 188 244 188 c 2
 291 188 l 2
 338 188 378 245 378 334 c 0
 378 423 340 471 275 471 c 2
 231 471 l 1
 231 201 l 2
EndSplineSet
Position2: "'cpsp' Capital Spacing lookup 0 per glyph data 2" dx=5 dy=0 dh=10 dv=0
EndChar
StartChar: germandbls
Encoding: 223 223 193
Width: 563
GlyphClass: 2
Flags: MW
HStem: -8 29<368 392 368 428.5> 0 27<53 57 205.5 210> 705 32<238 291.5>
VStem: 65 131<48 434> 241 101<343.5 432.5> 254 108<71.5 82> 348 124<584.5 624.5> 431 124<87 113.5>
LayerCount: 2
Back
Fore
SplineSet
281 737 m 0x72
 401 737 472 695 472 619 c 0x72
 472 550 411 515 374 481 c 0
 355 464 342 445 342 420 c 0
 342 386 372 357 420 316 c 2x79
 490 256 l 2
 533 220 555 179 555 132 c 0
 555 42 479 -8 378 -8 c 0
 301 -8 254 18 254 65 c 0
 254 99 277 121 314 121 c 0
 350 121 362 100 362 79 c 0
 362 64 356 51 356 39 c 0xb5
 356 31 359 21 377 21 c 0
 407 21 431 44 431 92 c 0
 431 135 410 174 371 207 c 1
 308 258 l 2
 266 292 241 324 241 363 c 0xb9
 241 416 278 439 314 487 c 0
 335 515 348 546 348 590 c 0
 348 659 319 705 264 705 c 0
 212 705 181 663 181 603 c 0
 181 564 196 484 196 434 c 2
 196 48 l 2
 196 37 201 27 210 27 c 2
 245 29 l 1
 245 0 l 1
 20 0 l 1
 20 29 l 1
 53 27 l 2
 61 27 65 37 65 48 c 2
 65 512 l 2
 65 671 139 737 281 737 c 0x72
EndSplineSet
EndChar
StartChar: atilde
Encoding: 227 227 120
Width: 467
GlyphClass: 2
Flags: MW
HStem: -5 59<99.5 218.5> 0 32<418.5 423 418.5 456> 216 35<232.5 279> 401 34<186.5 242> 530 61<290 318.5 290 327.5> 570 60<134.5 163>
VStem: 13 136<97 151 97 156.5> 39 118<312.5 325 302 360.5> 83 28<531 543 531 559.5> 279 131<64 64 150 216 216 216 251 302> 342 27<617.5 629>
LayerCount: 2
Back
Fore
SplineSet
144 570 m 0x74c0
 125 570 111 555 111 531 c 1
 83 531 l 1
 83 588 103 630 147 630 c 0x74c0
 195 630 271 591 309 591 c 0
 328 591 342 606 342 629 c 1
 369 629 l 1
 369 572 350 530 305 530 c 0x78a0
 256 530 182 570 144 570 c 0x74c0
423 32 m 2
 456 34 l 1
 456 0 l 1
 274 0 l 1
 275 6 278 31 278 37 c 2x74c0
 279 64 l 1
 247 14 200 -5 141 -5 c 0
 58 -5 13 32 13 108 c 0xb640
 13 205 94 251 279 251 c 1
 279 321 l 2
 279 362 272 401 212 401 c 0
 161 401 148 378 148 360 c 0
 148 341 157 333 157 317 c 0
 157 287 132 271 102 271 c 0
 64 271 39 296 39 329 c 0x7540
 39 392 109 435 224 435 c 0
 342 435 410 396 410 302 c 2
 410 51 l 2
 410 38 414 32 423 32 c 2
198 54 m 0xb640
 239 54 272 93 279 150 c 1
 279 216 l 1
 186 216 149 182 149 120 c 0
 149 74 167 54 198 54 c 0xb640
EndSplineSet
EndChar
StartChar: adieresis
Encoding: 228 228 115
Width: 467
GlyphClass: 2
Flags: MW
HStem: -5 59<99.5 218.5> 0 32<418.5 423 418.5 456> 216 35<232.5 279> 401 34<186.5 242> 537 126<97.5 142 97.5 142.5 308.5 353>
VStem: 13 136<97 151 97 156.5> 39 118<312.5 325 302 360.5> 43 154<580.5 619> 254 154<580.5 619> 279 131<64 64 150 216 216 216 251 302>
LayerCount: 2
Back
Fore
SplineSet
120 537 m 0x7940
 75 537 43 561 43 600 c 0
 43 638 75 663 120 663 c 0
 164 663 197 638 197 600 c 0
 197 561 165 537 120 537 c 0x7940
331 537 m 0x7980
 286 537 254 561 254 600 c 0
 254 638 286 663 331 663 c 0
 375 663 408 638 408 600 c 0
 408 561 376 537 331 537 c 0x7980
423 32 m 2x7a40
 456 34 l 1
 456 0 l 1
 274 0 l 1
 275 6 278 31 278 37 c 2x7940
 279 64 l 1
 247 14 200 -5 141 -5 c 0
 58 -5 13 32 13 108 c 0xbc40
 13 205 94 251 279 251 c 1
 279 321 l 2
 279 362 272 401 212 401 c 0
 161 401 148 378 148 360 c 0
 148 341 157 333 157 317 c 0
 157 287 132 271 102 271 c 0
 64 271 39 296 39 329 c 0
 39 392 109 435 224 435 c 0
 342 435 410 396 410 302 c 2
 410 51 l 2
 410 38 414 32 423 32 c 2x7a40
198 54 m 0xbc40
 239 54 272 93 279 150 c 1
 279 216 l 1
 186 216 149 182 149 120 c 0
 149 74 167 54 198 54 c 0xbc40
EndSplineSet
EndChar
StartChar: aring
Encoding: 229 229 119
Width: 467
GlyphClass: 2
Flags: MW
HStem: -5 59<99.5 218.5> 0 32<418.5 423 418.5 456> 216 35<232.5 279> 401 34<186.5 242> 497 41<214 236.5 214 250> 621 42<214 236.5>
VStem: 13 136<97 151 97 156.5> 39 118<312.5 325 302 360.5> 138 50<567 592.5 567 603.5> 264 49<567 592.5> 279 131<64 64 150 216 216 216 251 302>
LayerCount: 2
Back
Fore
SplineSet
225 497 m 0x7cc0
 174 497 138 532 138 580 c 0
 138 627 176 663 225 663 c 0
 275 663 313 628 313 580 c 0
 313 532 275 497 225 497 c 0x7cc0
225 621 m 0
 203 621 188 605 188 580 c 0
 188 554 203 538 225 538 c 0
 248 538 264 554 264 580 c 0
 264 605 248 621 225 621 c 0
423 32 m 2x7d20
 456 34 l 1
 456 0 l 1
 274 0 l 1
 275 6 278 31 278 37 c 2x7ca0
 279 64 l 1
 247 14 200 -5 141 -5 c 0
 58 -5 13 32 13 108 c 0xbe20
 13 205 94 251 279 251 c 1
 279 321 l 2
 279 362 272 401 212 401 c 0
 161 401 148 378 148 360 c 0
 148 341 157 333 157 317 c 0
 157 287 132 271 102 271 c 0
 64 271 39 296 39 329 c 0
 39 392 109 435 224 435 c 0
 342 435 410 396 410 302 c 2
 410 51 l 2
 410 38 414 32 423 32 c 2x7d20
198 54 m 0xbe20
 239 54 272 93 279 150 c 1
 279 216 l 1
 186 216 149 182 149 120 c 0
 149 74 167 54 198 54 c 0xbe20
EndSplineSet
EndChar
StartChar: ae
Encoding: 230 230 121
Width: 719
GlyphClass: 2
Flags: MW
HStem: -10 41<495.5 550> -5 58<103.5 220> 210 32<410 548 548 553.5> 401 34<187 242.5 470.5 521.5>
VStem: 13 136<92.5 144 92.5 154> 39 119<312.5 325 302 360.5> 279 131<156 208 208 208 242 288 153 321 153 341.5> 565 134<262.5 290.5 210 314>
LayerCount: 2
Back
Fore
SplineSet
499 435 m 0xbb
 628 435 699 371 699 210 c 1
 410 210 l 1
 410 96 453 31 538 31 c 0
 601 31 649 71 669 112 c 1
 696 93 l 1
 665 28 597 -10 503 -10 c 0xbb
 399 -10 335 19 301 77 c 1
 266 19 213 -5 145 -5 c 0
 62 -5 13 31 13 106 c 0x7b
 13 202 96 242 279 242 c 1
 279 321 l 2
 279 362 272 401 213 401 c 0
 161 401 149 378 149 360 c 0
 149 341 158 333 158 317 c 0
 158 287 132 271 102 271 c 0
 64 271 39 296 39 329 c 0xb7
 39 392 110 435 224 435 c 0
 283 435 329 425 360 403 c 1
 397 426 442 435 499 435 c 0xbb
496 401 m 0
 434 401 410 334 410 242 c 1
 548 242 l 2
 559 242 565 251 565 274 c 0
 565 354 547 401 496 401 c 0
279 208 m 1
 186 208 149 174 149 114 c 0
 149 71 169 53 200 53 c 0x7b
 240 53 274 95 279 156 c 1
 279 208 l 1
EndSplineSet
EndChar
StartChar: ccedilla
Encoding: 231 231 126
Width: 439
GlyphClass: 2
Flags: MW
HStem: -214 35<192.5 193 172.5 228> -10 37<244 287> -7 21G<203 203> 401 34<222.5 265>
VStem: 20 138<146 286> 162 59<-67.5 -62.5> 230 88<-145 -124.5> 310 109<347 359.5 314 371.5>
AnchorPoint: "Anchor-0" 225 0 basechar 0
LayerCount: 2
Back
Fore
SplineSet
244 -10 m 1xda
 227 -36 l 2
 223 -43 221 -50 221 -55 c 0xd6
 221 -81 318 -60 318 -122 c 0
 318 -186 255 -214 201 -214 c 0
 184 -214 155 -213 132 -198 c 1
 145 -166 l 1
 153 -175 165 -179 180 -179 c 0
 206 -179 230 -157 230 -133 c 0
 230 -116 213 -103 196 -94 c 1xda
 173 -80 l 2
 166 -75 162 -70 162 -65 c 0
 162 -60 164 -56 168 -52 c 2xd6
 203 -7 l 1
 102 6 20 69 20 209 c 0
 20 363 117 435 244 435 c 0
 346 435 419 389 419 330 c 0
 419 298 399 268 355 268 c 0
 325 268 301 283 301 313 c 0
 301 330 310 338 310 356 c 0xb9
 310 387 281 401 249 401 c 0
 196 401 158 360 158 223 c 0
 158 69 206 27 269 27 c 0
 318 27 369 50 395 123 c 1
 426 108 l 1
 395 22 330 -10 244 -10 c 1xda
EndSplineSet
EndChar
StartChar: eacute
Encoding: 233 233 132
Width: 468
GlyphClass: 2
Flags: MW
HStem: -10 41<286 296.5> 208 33<161 294 294 300 161 448 160 294> 401 34<213.5 269.5>
VStem: 20 140<151 208 151 288.5> 314 134<208 316>
AnchorPoint: "Anchor-0" 255 0 basechar 0
LayerCount: 2
Back
Fore
SplineSet
390 621 m 0
 390 614 386 609 377 603 c 2
 210 501 l 2
 205 497 194 492 187 492 c 0
 179 492 175 496 175 502 c 0
 175 510 181 517 192 529 c 2
 287 633 l 2
 304 652 308 658 323 658 c 0
 347 658 390 635 390 621 c 0
247 435 m 0
 365 435 447 369 448 245 c 1
 448 208 l 1
 160 208 l 1
 160 94 202 32 286 31 c 0
 354 31 398 72 417 112 c 1
 444 93 l 1
 413 28 344 -10 249 -10 c 0
 90 -10 20 61 20 211 c 0
 20 366 98 435 247 435 c 0
244 401 m 0
 183 401 161 328 161 241 c 1
 294 241 l 2
 306 241 314 247 314 274 c 0
 314 358 295 401 244 401 c 0
EndSplineSet
EndChar
StartChar: ecircumflex
Encoding: 234 234 134
Width: 468
GlyphClass: 2
Flags: MW
HStem: -10 41<286 296.5> 208 33<161 294 294 300 161 448 160 294> 401 34<213.5 269.5> 576 60<210 243>
VStem: 20 140<151 208 151 288.5> 314 134<208 316>
AnchorPoint: "Anchor-0" 255 0 basechar 0
LayerCount: 2
Back
Fore
SplineSet
399 506 m 0
 399 503 397 498 387 498 c 0
 375 498 362 505 354 510 c 2
 243 576 l 1
 131 510 l 2
 123 505 110 498 98 498 c 0
 89 498 87 503 87 506 c 0
 87 516 122 542 163 588 c 1
 186 612 l 1
 210 636 l 2
 221 648 233 654 243 654 c 0
 253 654 264 648 276 636 c 2
 300 612 l 1
 323 588 l 1
 364 542 399 516 399 506 c 0
247 435 m 0
 365 435 447 369 448 245 c 1
 448 208 l 1
 160 208 l 1
 160 94 202 32 286 31 c 0
 354 31 398 72 417 112 c 1
 444 93 l 1
 413 28 344 -10 249 -10 c 0
 90 -10 20 61 20 211 c 0
 20 366 98 435 247 435 c 0
244 401 m 0
 183 401 161 328 161 241 c 1
 294 241 l 2
 306 241 314 247 314 274 c 0
 314 358 295 401 244 401 c 0
EndSplineSet
EndChar
StartChar: edieresis
Encoding: 235 235 135
Width: 468
GlyphClass: 2
Flags: MW
HStem: -10 41<286 296.5> 208 33<161 294 294 300 161 448 160 294> 401 34<213.5 269.5> 537 126<114.5 159 114.5 159.5 325.5 370>
VStem: 20 140<151 208 151 288.5> 60 154<580.5 619> 271 154<580.5 619> 314 134<208 316>
AnchorPoint: "Anchor-0" 255 0 basechar 0
LayerCount: 2
Back
Fore
SplineSet
60 600 m 0xf6
 60 638 92 663 137 663 c 0
 181 663 214 638 214 600 c 0
 214 561 182 537 137 537 c 0
 92 537 60 561 60 600 c 0xf6
271 600 m 0
 271 638 303 663 348 663 c 0
 392 663 425 638 425 600 c 0
 425 561 393 537 348 537 c 0
 303 537 271 561 271 600 c 0
247 435 m 0xe9
 365 435 447 369 448 245 c 1
 448 208 l 1
 160 208 l 1
 160 94 202 32 286 31 c 0
 354 31 398 72 417 112 c 1
 444 93 l 1
 413 28 344 -10 249 -10 c 0
 90 -10 20 61 20 211 c 0
 20 366 98 435 247 435 c 0xe9
244 401 m 0
 183 401 161 328 161 241 c 1
 294 241 l 2
 306 241 314 247 314 274 c 0
 314 358 295 401 244 401 c 0
EndSplineSet
EndChar
StartChar: igrave
Encoding: 236 236 151
Width: 263
GlyphClass: 2
Flags: MW
HStem: 0 33 393 32
VStem: 66 131<51 374 374 379.5>
LayerCount: 2
Back
Fore
SplineSet
-19 621 m 0
 -19 635 24 658 48 658 c 0
 63 658 67 652 84 633 c 2
 179 529 l 2
 190 517 196 510 196 502 c 0
 196 496 192 492 184 492 c 0
 177 492 166 497 161 501 c 2
 -6 603 l 2
 -15 609 -19 614 -19 621 c 0
197 425 m 1
 197 51 l 2
 197 38 201 31 210 32 c 2
 243 34 l 1
 243 0 l 1
 20 0 l 1
 20 34 l 1
 53 32 l 2
 62 31 66 38 66 51 c 2
 66 374 l 2
 66 385 62 392 54 394 c 1
 21 392 l 1
 21 425 l 1
 197 425 l 1
EndSplineSet
EndChar
StartChar: iacute
Encoding: 237 237 147
Width: 263
GlyphClass: 2
Flags: MW
HStem: 0 33 393 32
VStem: 66 131<51 374 374 379.5>
LayerCount: 2
Back
Fore
SplineSet
275 621 m 0
 275 614 271 609 262 603 c 2
 95 501 l 2
 90 497 79 492 72 492 c 0
 64 492 60 496 60 502 c 0
 60 510 66 517 77 529 c 2
 172 633 l 2
 189 652 193 658 208 658 c 0
 232 658 275 635 275 621 c 0
197 425 m 1
 197 51 l 2
 197 38 201 31 210 32 c 2
 243 34 l 1
 243 0 l 1
 20 0 l 1
 20 34 l 1
 53 32 l 2
 62 31 66 38 66 51 c 2
 66 374 l 2
 66 385 62 392 54 394 c 1
 21 392 l 1
 21 425 l 1
 197 425 l 1
EndSplineSet
EndChar
StartChar: icircumflex
Encoding: 238 238 148
Width: 263
GlyphClass: 2
Flags: MW
HStem: 0 33 393 32 509 140<30 106 106 226>
VStem: 66 131<51 374 374 379.5>
LayerCount: 2
Back
Fore
SplineSet
30 509 m 2
 20 503 9 498 4 498 c 0
 -3 498 -7 503 -7 509 c 0
 -7 513 1 523 12 536 c 2
 106 649 l 2
 114 660 122 664 128 664 c 0
 135 664 142 659 151 649 c 2
 245 536 l 2
 255 523 263 513 263 509 c 0
 263 503 259 498 252 498 c 0
 247 498 237 503 226 509 c 1
 128 574 l 1
 30 509 l 2
197 425 m 1
 197 51 l 2
 197 38 201 31 210 32 c 2
 243 34 l 1
 243 0 l 1
 20 0 l 1
 20 34 l 1
 53 32 l 2
 62 31 66 38 66 51 c 2
 66 374 l 2
 66 385 62 392 54 394 c 1
 21 392 l 1
 21 425 l 1
 197 425 l 1
EndSplineSet
EndChar
StartChar: idieresis
Encoding: 239 239 149
Width: 263
GlyphClass: 2
Flags: MW
HStem: 0 33 393 32 537 126<-0.5 44 -0.5 44.5 210.5 255>
VStem: -55 154<580.5 619> 66 131<51 374 374 379.5> 156 154<580.5 619>
LayerCount: 2
Back
Fore
SplineSet
-55 600 m 0xf4
 -55 638 -23 663 22 663 c 0
 66 663 99 638 99 600 c 0
 99 561 67 537 22 537 c 0
 -23 537 -55 561 -55 600 c 0xf4
156 600 m 0
 156 638 188 663 233 663 c 0
 277 663 310 638 310 600 c 0
 310 561 278 537 233 537 c 0
 188 537 156 561 156 600 c 0
197 425 m 1xc8
 197 51 l 2
 197 38 201 31 210 32 c 2
 243 34 l 1
 243 0 l 1
 20 0 l 1
 20 34 l 1
 53 32 l 2
 62 31 66 38 66 51 c 2
 66 374 l 2
 66 385 62 392 54 394 c 1
 21 392 l 1
 21 425 l 1
 197 425 l 1xc8
EndSplineSet
EndChar
StartChar: eth
Encoding: 240 240 128
Width: 507
GlyphClass: 2
Flags: MW
HStem: -11 33<222.5 289 222.5 332.5> 403 32<221.5 249 171.5 287.5> 578 29<112 132>
VStem: 20 140<141 284.5 141 289> 348 139<153.5 281>
LayerCount: 2
Back
Fore
SplineSet
317 554 m 1
 413 496 487 391 487 224 c 0
 487 83 411 -11 254 -11 c 0
 103 -11 20 66 20 212 c 0
 20 366 111 435 232 435 c 0
 266 435 297 427 317 414 c 1
 301 453 274 486 244 512 c 1
 142 453 l 1
 125 483 l 1
 215 535 l 1
 179 559 141 574 112 578 c 1
 132 607 l 1
 182 605 233 594 281 572 c 1
 364 620 l 1
 380 590 l 1
 317 554 l 1
254 22 m 0
 324 22 348 80 348 212 c 0
 348 350 321 403 254 403 c 0
 189 403 160 357 160 212 c 0
 160 70 191 22 254 22 c 0
EndSplineSet
EndChar
StartChar: ntilde
Encoding: 241 241 170
Width: 539
GlyphClass: 2
Flags: MW
HStem: 0 32<53 53 205.5 210 490.5 495> 388 47<315 325.5> 393 32 530 61<338 366.5 338 375.5> 570 60<182.5 211>
VStem: 66 131<51 213 334 374 374 379.5> 131 28<531 543 531 559.5> 351 131<51 292> 390 27<617.5 629>
AnchorPoint: "Anchor-0" 274 0 basechar 0
LayerCount: 2
Back
Fore
SplineSet
192 570 m 0xab
 173 570 159 555 159 531 c 1
 131 531 l 1
 131 588 151 630 195 630 c 0xab
 243 630 319 591 357 591 c 0
 376 591 390 606 390 629 c 1
 417 629 l 1
 417 572 398 530 353 530 c 0xb480
 304 530 230 570 192 570 c 0xab
495 32 m 2xcd
 529 34 l 1
 529 0 l 1
 300 0 l 1
 300 34 l 1
 338 32 l 1
 347 34 351 40 351 51 c 2
 351 293 l 2
 351 354 347 388 304 388 c 0xcd
 252 388 197 321 198 191 c 1
 197 213 l 1
 197 51 l 2
 197 38 201 32 210 32 c 2
 249 34 l 1
 249 0 l 1
 20 0 l 1
 20 34 l 1
 53 32 l 1
 62 34 66 40 66 51 c 2
 66 374 l 2
 66 385 62 392 53 394 c 1
 20 392 l 1
 20 425 l 1
 202 425 l 1
 199 416 197 405 197 390 c 2xad
 197 334 l 1
 225 396 278 435 352 435 c 0
 443 435 482 391 482 292 c 2
 482 51 l 2
 482 38 486 32 495 32 c 2xcd
EndSplineSet
EndChar
StartChar: ograve
Encoding: 242 242 175
Width: 487
GlyphClass: 2
Flags: MW
HStem: -10 35<215 274 215 320.5> 401 34<215 274>
VStem: 20 140<143 281 143 284> 328 139<143 281>
LayerCount: 2
Back
Fore
SplineSet
97 621 m 0
 97 635 140 658 164 658 c 0
 179 658 183 652 200 633 c 2
 295 529 l 2
 306 517 312 510 312 502 c 0
 312 496 308 492 300 492 c 0
 293 492 282 497 277 501 c 2
 110 603 l 2
 101 609 97 614 97 621 c 0
20 213 m 0
 20 355 93 435 244 435 c 0
 397 435 467 355 467 213 c 0
 467 69 397 -10 244 -10 c 0
 93 -10 20 69 20 213 c 0
160 211 m 0
 160 75 186 25 244 25 c 0
 304 25 328 75 328 211 c 0
 328 351 304 401 244 401 c 0
 186 401 160 351 160 211 c 0
EndSplineSet
EndChar
StartChar: oacute
Encoding: 243 243 172
Width: 487
GlyphClass: 2
Flags: MW
HStem: -10 35<215 274 215 320.5> 401 34<215 274>
VStem: 20 140<143 281 143 284> 328 139<143 281>
LayerCount: 2
Back
Fore
SplineSet
391 621 m 0
 391 614 387 609 378 603 c 2
 211 501 l 2
 206 497 195 492 188 492 c 0
 180 492 176 496 176 502 c 0
 176 510 182 517 193 529 c 2
 288 633 l 2
 305 652 309 658 324 658 c 0
 348 658 391 635 391 621 c 0
20 213 m 0
 20 355 93 435 244 435 c 0
 397 435 467 355 467 213 c 0
 467 69 397 -10 244 -10 c 0
 93 -10 20 69 20 213 c 0
160 211 m 0
 160 75 186 25 244 25 c 0
 304 25 328 75 328 211 c 0
 328 351 304 401 244 401 c 0
 186 401 160 351 160 211 c 0
EndSplineSet
EndChar
StartChar: ocircumflex
Encoding: 244 244 173
Width: 487
GlyphClass: 2
Flags: MW
HStem: -10 35<215 274 215 320.5> 401 34<215 274> 576 60<211 244>
VStem: 20 140<143 281 143 284> 328 139<143 281>
LayerCount: 2
Back
Fore
SplineSet
400 506 m 0
 400 503 398 498 388 498 c 0
 376 498 363 505 355 510 c 2
 244 576 l 1
 132 510 l 2
 124 505 111 498 99 498 c 0
 90 498 88 503 88 506 c 0
 88 516 123 542 164 588 c 1
 187 612 l 1
 211 636 l 2
 222 648 234 654 244 654 c 0
 254 654 265 648 277 636 c 2
 301 612 l 1
 324 588 l 1
 365 542 400 516 400 506 c 0
20 213 m 0
 20 355 93 435 244 435 c 0
 397 435 467 355 467 213 c 0
 467 69 397 -10 244 -10 c 0
 93 -10 20 69 20 213 c 0
160 211 m 0
 160 75 186 25 244 25 c 0
 304 25 328 75 328 211 c 0
 328 351 304 401 244 401 c 0
 186 401 160 351 160 211 c 0
EndSplineSet
EndChar
StartChar: otilde
Encoding: 245 245 179
Width: 487
GlyphClass: 2
Flags: MW
HStem: -10 35<215 274 215 320.5> 401 34<215 274> 530 61<308 336.5 308 345.5> 570 60<152.5 181>
VStem: 20 140<143 281 143 284> 101 28<531 543 531 559.5> 328 139<143 281> 360 27<617.5 629>
LayerCount: 2
Back
Fore
SplineSet
101 531 m 1xd6
 101 588 121 630 165 630 c 0xd6
 213 630 289 591 327 591 c 0
 346 591 360 606 360 629 c 1
 387 629 l 1
 387 572 368 530 323 530 c 0xe9
 274 530 200 570 162 570 c 0
 143 570 129 555 129 531 c 1
 101 531 l 1xd6
20 213 m 0xda
 20 355 93 435 244 435 c 0
 397 435 467 355 467 213 c 0
 467 69 397 -10 244 -10 c 0
 93 -10 20 69 20 213 c 0xda
160 211 m 0
 160 75 186 25 244 25 c 0
 304 25 328 75 328 211 c 0
 328 351 304 401 244 401 c 0
 186 401 160 351 160 211 c 0
EndSplineSet
EndChar
StartChar: odieresis
Encoding: 246 246 174
Width: 487
GlyphClass: 2
Flags: MW
HStem: -10 35<215 274 215 320.5> 401 34<215 274> 537 126<114.5 159 114.5 159.5 325.5 370>
VStem: 20 140<143 281 143 284> 60 154<580.5 619> 271 154<580.5 619> 328 139<143 281>
LayerCount: 2
Back
Fore
SplineSet
60 600 m 0xec
 60 638 92 663 137 663 c 0
 181 663 214 638 214 600 c 0
 214 561 182 537 137 537 c 0
 92 537 60 561 60 600 c 0xec
271 600 m 0
 271 638 303 663 348 663 c 0
 392 663 425 638 425 600 c 0
 425 561 393 537 348 537 c 0
 303 537 271 561 271 600 c 0
20 213 m 0xd2
 20 355 93 435 244 435 c 0
 397 435 467 355 467 213 c 0
 467 69 397 -10 244 -10 c 0
 93 -10 20 69 20 213 c 0xd2
160 211 m 0
 160 75 186 25 244 25 c 0
 304 25 328 75 328 211 c 0
 328 351 304 401 244 401 c 0
 186 401 160 351 160 211 c 0
EndSplineSet
EndChar
StartChar: divide
Encoding: 247 247 299
Width: 460
Flags: MW
HStem: 34 125<206.5 251.5> 240 59<19 441 19 441> 376 125<206.5 251.5>
VStem: 152 154<76.5 115 418.5 457.5>
LayerCount: 2
Back
Fore
SplineSet
152 438 m 0
 152 477 184 501 229 501 c 0
 274 501 306 477 306 438 c 0
 306 399 274 376 229 376 c 0
 184 376 152 399 152 438 c 0
19 240 m 1
 19 299 l 1
 441 299 l 1
 441 240 l 1
 19 240 l 1
152 96 m 0
 152 134 184 159 229 159 c 0
 274 159 306 135 306 96 c 0
 306 57 274 34 229 34 c 0
 184 34 152 57 152 96 c 0
EndSplineSet
EndChar
StartChar: oslash
Encoding: 248 248 178
Width: 487
GlyphClass: 2
Flags: MW
HStem: -10 35<232 274 232 320.5> 0 21G<159 159> 401 34<215 257.5>
VStem: 20 140<192.5 281 192.5 284> 328 139<143 227.5>
LayerCount: 2
Back
Fore
SplineSet
382 402 m 1xb8
 440 366 467 301 467 213 c 0
 467 69 397 -10 244 -10 c 0xb8
 212 -10 184 -7 159 0 c 1
 110 -88 l 1
 64 -65 l 1
 111 20 l 1x78
 50 55 20 121 20 213 c 0
 20 355 93 435 244 435 c 0
 279 435 310 431 337 422 c 1
 384 507 l 1
 426 480 l 1
 382 402 l 1xb8
160 211 m 0
 160 174 162 143 166 117 c 1
 305 366 l 1
 291 391 271 401 244 401 c 0
 186 401 160 351 160 211 c 0
244 25 m 0
 304 25 328 75 328 211 c 0
 328 244 327 273 324 296 c 1
 188 53 l 1
 202 33 220 25 244 25 c 0
EndSplineSet
EndChar
StartChar: uacute
Encoding: 250 250 199
Width: 532
GlyphClass: 2
Flags: MW
HStem: -10 47<212.5 219> 0 33 394 31<44 48.5 322 326.5>
VStem: 57 131<138 375 375 381.5> 335 131<222 374 374 381>
LayerCount: 2
Back
Fore
SplineSet
199 492 m 0x78
 191 492 187 496 187 502 c 0
 187 510 193 517 204 529 c 2
 299 633 l 2
 316 652 320 658 335 658 c 0
 359 658 402 635 402 621 c 0
 402 614 398 609 389 603 c 2
 222 501 l 2
 217 497 206 492 199 492 c 0x78
479 32 m 1
 512 34 l 1
 512 0 l 1
 329 0 l 1
 332 9 334 20 334 44 c 2x78
 334 89 l 1
 306 27 256 -10 182 -10 c 0
 95 -10 57 35 57 138 c 2
 57 375 l 2
 57 388 53 394 44 394 c 2
 11 392 l 1
 11 425 l 1
 188 425 l 1
 188 132 l 2
 188 71 193 37 232 37 c 0xb8
 281 37 336 104 334 234 c 1
 335 222 l 1
 335 374 l 2
 335 388 331 394 322 394 c 2
 283 392 l 1
 283 425 l 1
 466 425 l 1
 466 51 l 2
 466 40 470 33 479 32 c 1
EndSplineSet
EndChar
StartChar: ucircumflex
Encoding: 251 251 200
Width: 532
GlyphClass: 2
Flags: MW
HStem: -10 47<212.5 219> 0 33 394 31<44 48.5 322 326.5> 576 60<222 255>
VStem: 57 131<138 375 375 381.5> 335 131<222 374 374 381>
LayerCount: 2
Back
Fore
SplineSet
110 498 m 0x7c
 101 498 99 503 99 506 c 0
 99 516 134 542 175 588 c 1
 198 612 l 1
 222 636 l 2
 233 648 245 654 255 654 c 0
 265 654 276 648 288 636 c 2
 312 612 l 1
 335 588 l 1
 376 542 411 516 411 506 c 0
 411 503 409 498 399 498 c 0
 387 498 374 505 366 510 c 2
 255 576 l 1
 143 510 l 2
 135 505 122 498 110 498 c 0x7c
479 32 m 1
 512 34 l 1
 512 0 l 1
 329 0 l 1
 332 9 334 20 334 44 c 2x7c
 334 89 l 1
 306 27 256 -10 182 -10 c 0
 95 -10 57 35 57 138 c 2
 57 375 l 2
 57 388 53 394 44 394 c 2
 11 392 l 1
 11 425 l 1
 188 425 l 1
 188 132 l 2
 188 71 193 37 232 37 c 0xbc
 281 37 336 104 334 234 c 1
 335 222 l 1
 335 374 l 2
 335 388 331 394 322 394 c 2
 283 392 l 1
 283 425 l 1
 466 425 l 1
 466 51 l 2
 466 40 470 33 479 32 c 1
EndSplineSet
EndChar
StartChar: udieresis
Encoding: 252 252 201
Width: 532
GlyphClass: 2
Flags: MW
HStem: -10 47<212.5 219> 0 33 394 31<44 48.5 322 326.5> 537 126<126.5 171 126.5 171.5 337.5 382>
VStem: 57 131<138 375 375 381.5> 72 154<580.5 619> 283 154<580.5 619> 335 131<222 374 374 381>
LayerCount: 2
Back
Fore
SplineSet
149 537 m 0x76
 104 537 72 561 72 600 c 0
 72 638 104 663 149 663 c 0
 193 663 226 638 226 600 c 0
 226 561 194 537 149 537 c 0x76
360 537 m 0
 315 537 283 561 283 600 c 0
 283 638 315 663 360 663 c 0
 404 663 437 638 437 600 c 0
 437 561 405 537 360 537 c 0
479 32 m 1x69
 512 34 l 1
 512 0 l 1
 329 0 l 1
 332 9 334 20 334 44 c 2x69
 334 89 l 1
 306 27 256 -10 182 -10 c 0
 95 -10 57 35 57 138 c 2
 57 375 l 2
 57 388 53 394 44 394 c 2
 11 392 l 1
 11 425 l 1
 188 425 l 1
 188 132 l 2
 188 71 193 37 232 37 c 0xa9
 281 37 336 104 334 234 c 1
 335 222 l 1
 335 374 l 2
 335 388 331 394 322 394 c 2
 283 392 l 1
 283 425 l 1
 466 425 l 1
 466 51 l 2
 466 40 470 33 479 32 c 1x69
EndSplineSet
EndChar
StartChar: yacute
Encoding: 253 253 215
Width: 501
GlyphClass: 2
Flags: MW
HStem: -239 71<68.5 155> 394 31<37 41 206.5 211 389 394.5 455.5 461 461 463>
VStem: 342 158<392 425 392 425>
LayerCount: 2
Back
Fore
SplineSet
216 492 m 0
 208 492 204 496 204 502 c 0
 204 510 210 517 221 529 c 2
 316 633 l 2
 333 652 337 658 352 658 c 0
 376 658 419 635 419 621 c 0
 419 614 415 609 406 603 c 2
 239 501 l 2
 234 497 223 492 216 492 c 0
342 425 m 1
 500 425 l 1
 500 392 l 1
 463 394 l 1
 461 394 l 2
 450 394 441 388 436 375 c 2
 232 -116 l 2
 192 -212 152 -239 92 -239 c 0
 45 -239 11 -218 8 -174 c 1
 8 -130 39 -109 65 -109 c 0
 124 -109 115 -168 146 -168 c 0
 164 -168 175 -155 190 -119 c 2
 237 -6 l 1
 53 381 l 2
 49 389 45 394 37 394 c 2
 -2 392 l 1
 -2 425 l 1
 256 425 l 1
 256 392 l 1
 211 394 l 2
 202 394 195 385 199 377 c 2
 306 157 l 1
 399 379 l 2
 402 387 400 394 389 394 c 2
 342 392 l 1
 342 425 l 1
EndSplineSet
EndChar
StartChar: thorn
Encoding: 254 254 182
Width: 520
GlyphClass: 2
Flags: MW
HStem: -239 31<48 48 199.5 205 19 48> -10 46<278.5 309.5 253 371.5> 384 46<286 313.5> 699 32
VStem: 61 131<-188 39 344 679 679 685> 356 140<143.5 274.5>
LayerCount: 2
Back
Fore
SplineSet
192 731 m 1
 192 344 l 1
 211 396 248 430 324 430 c 0
 441 430 496 358 496 209 c 0
 496 64 437 -10 306 -10 c 0
 251 -10 211 8 192 39 c 1
 192 -188 l 2
 192 -196 194 -208 205 -208 c 2
 267 -206 l 1
 267 -239 l 1
 19 -239 l 1
 19 -206 l 1
 48 -208 l 1
 57 -207 61 -201 61 -188 c 2
 61 679 l 2
 61 691 57 698 49 700 c 1
 16 698 l 1
 16 731 l 1
 192 731 l 1
285 384 m 0
 227 384 194 320 194 226 c 2
 194 184 l 2
 194 78 226 36 280 36 c 0
 339 36 356 78 356 209 c 0
 356 340 342 384 285 384 c 0
EndSplineSet
EndChar
StartChar: ydieresis
Encoding: 255 255 217
Width: 501
GlyphClass: 2
Flags: MW
HStem: -239 71<68.5 155> 394 31<37 41 206.5 211 389 394.5 455.5 461 461 463> 537 126<143.5 188 143.5 188.5 354.5 399>
VStem: 89 154<580.5 619> 300 154<580.5 619> 342 158<392 425 392 425>
LayerCount: 2
Back
Fore
SplineSet
166 537 m 0x74
 121 537 89 561 89 600 c 0
 89 638 121 663 166 663 c 0
 210 663 243 638 243 600 c 0
 243 561 211 537 166 537 c 0x74
377 537 m 0x78
 332 537 300 561 300 600 c 0
 300 638 332 663 377 663 c 0
 421 663 454 638 454 600 c 0
 454 561 422 537 377 537 c 0x78
342 425 m 1xf4
 500 425 l 1
 500 392 l 1
 463 394 l 1
 461 394 l 2
 450 394 441 388 436 375 c 2
 232 -116 l 2
 192 -212 152 -239 92 -239 c 0
 45 -239 11 -218 8 -174 c 1
 8 -130 39 -109 65 -109 c 0
 124 -109 115 -168 146 -168 c 0
 164 -168 175 -155 190 -119 c 2
 237 -6 l 1
 53 381 l 2
 49 389 45 394 37 394 c 2
 -2 392 l 1
 -2 425 l 1
 256 425 l 1
 256 392 l 1
 211 394 l 2
 202 394 195 385 199 377 c 2
 306 157 l 1
 399 379 l 2
 402 387 400 394 389 394 c 2
 342 392 l 1
 342 425 l 1xf4
EndSplineSet
EndChar
StartChar: Abreve
Encoding: 258 258 4
Width: 613
GlyphClass: 2
Flags: MW
HStem: 0 35<9 13 13 19.5 9 161 -20 13 603 608> 186 35<156 348 156 362 142 348> 587 20G<282 331 331 331> 659 65<279 336 279 348.5>
VStem: -20 114 408.92 224.08
LayerCount: 2
Back
Fore
SplineSet
308 659 m 0
 227 659 175 713 173 790 c 1
 219 790 l 1
 227 758 250 724 308 724 c 0
 364 724 390 758 399 790 c 1
 444 790 l 1
 442 713 389 659 308 659 c 0
608 35 m 1
 633 37 l 1
 633 0 l 1
 333 0 l 1
 333 37 l 1
 379 35 l 1
 419 32 412 67 399 98 c 2
 362 186 l 1
 142 186 l 1
 108 104 l 2
 93 69 83 31 116 34 c 2
 161 37 l 1
 161 0 l 1
 -20 0 l 1
 -20 37 l 1
 9 35 l 1
 13 35 l 2
 26 35 37 41 46 54 c 0
 56 68 66 87 76 112 c 2
 282 607 l 1
 331 607 l 1
 539 110 l 2
 549 85 559 66 568 53 c 0
 577 41 588 35 603 35 c 2
 608 35 l 1
156 221 m 1
 348 221 l 1
 251 451 l 1
 156 221 l 1
EndSplineSet
EndChar
StartChar: abreve
Encoding: 259 259 113
Width: 467
GlyphClass: 2
Flags: MW
HStem: -5 59<99.5 218.5> 0 32<418.5 423 418.5 456> 216 35<232.5 279> 401 34<186.5 242> 516 65<196 253 196 265.5>
VStem: 13 136<97 151 97 156.5> 39 118<312.5 325 302 360.5> 279 131<64 64 150 216 216 216 251 302>
LayerCount: 2
Back
Fore
SplineSet
225 516 m 0x7b
 144 516 92 570 90 647 c 1
 136 647 l 1
 144 615 167 581 225 581 c 0
 281 581 307 615 316 647 c 1
 361 647 l 1
 359 570 306 516 225 516 c 0x7b
423 32 m 2
 456 34 l 1
 456 0 l 1
 274 0 l 1
 275 6 278 31 278 37 c 2x7b
 279 64 l 1
 247 14 200 -5 141 -5 c 0
 58 -5 13 32 13 108 c 0xbd
 13 205 94 251 279 251 c 1
 279 321 l 2
 279 362 272 401 212 401 c 0
 161 401 148 378 148 360 c 0
 148 341 157 333 157 317 c 0
 157 287 132 271 102 271 c 0
 64 271 39 296 39 329 c 0
 39 392 109 435 224 435 c 0
 342 435 410 396 410 302 c 2
 410 51 l 2
 410 38 414 32 423 32 c 2
198 54 m 0xbd
 239 54 272 93 279 150 c 1
 279 216 l 1
 186 216 149 182 149 120 c 0
 149 74 167 54 198 54 c 0xbd
EndSplineSet
EndChar
StartChar: Aogonek
Encoding: 260 260 9
Width: 613
GlyphClass: 2
Flags: MW
HStem: -159 58<558.5 561.5> 0 35<9 13 13 19.5 9 161 -20 13 603 608> 186 35<156 348 156 362 142 348> 587 20G<282 331 331 331>
VStem: -20 114 408.92 224.08 458 67<-111 -44.5>
LayerCount: 2
Back
Fore
SplineSet
646 -80 m 1xfa
 658 -99 l 1
 625 -137 583 -159 540 -159 c 0
 499 -159 458 -135 458 -87 c 0
 458 -54 475 -23 508 0 c 1
 333 0 l 1
 333 37 l 1
 379 35 l 1
 419 32 412 67 399 98 c 2
 362 186 l 1xfa
 142 186 l 1
 108 104 l 2
 93 69 83 31 116 34 c 2
 161 37 l 1
 161 0 l 1
 -20 0 l 1
 -20 37 l 1
 9 35 l 1
 13 35 l 2
 26 35 37 41 46 54 c 0
 56 68 66 87 76 112 c 2
 282 607 l 1
 331 607 l 1
 539 110 l 2
 549 85 559 66 568 53 c 0
 577 41 588 35 603 35 c 2
 608 35 l 1
 633 37 l 1
 633 0 l 1xfc
 548 0 l 1
 533 -14 525 -34 525 -55 c 0
 525 -80 541 -101 576 -101 c 0
 600 -101 624 -93 646 -80 c 1xfa
156 221 m 1
 348 221 l 1
 251 451 l 1
 156 221 l 1
EndSplineSet
EndChar
StartChar: cacute
Encoding: 263 263 124
Width: 439
GlyphClass: 2
Flags: MW
HStem: -10 37<237.5 287> 401 34<222.5 265>
VStem: 20 138<146 286> 310 109<347 359.5 314 371.5>
AnchorPoint: "Anchor-0" 225 0 basechar 0
LayerCount: 2
Back
Fore
SplineSet
372 621 m 0
 372 614 368 609 359 603 c 2
 192 501 l 2
 187 497 176 492 169 492 c 0
 161 492 157 496 157 502 c 0
 157 510 163 517 174 529 c 2
 269 633 l 2
 286 652 290 658 305 658 c 0
 329 658 372 635 372 621 c 0
244 435 m 0
 346 435 419 389 419 330 c 0
 419 298 399 268 355 268 c 0
 325 268 301 283 301 313 c 0
 301 330 310 338 310 356 c 0
 310 387 281 401 249 401 c 0
 196 401 158 360 158 223 c 0
 158 69 206 27 269 27 c 0
 318 27 369 50 395 123 c 1
 426 108 l 1
 395 22 330 -10 244 -10 c 0
 125 -10 20 51 20 209 c 0
 20 363 117 435 244 435 c 0
EndSplineSet
EndChar
StartChar: Ccaron
Encoding: 268 268 16
Width: 596
GlyphClass: 2
Flags: MW
HStem: -10 35<305 381> 35 132<530 557 557 563> 433 131<525 557 525 525> 575 32<300.5 395.5> 686 60<294 327 327 360>
VStem: 30 151<208 386 208 393.5> 525 32<433 433>
AnchorPoint: "Anchor-0" 327 0 basechar 0
LayerCount: 2
Back
Fore
SplineSet
171 816 m 0
 171 819 173 824 183 824 c 0
 195 824 208 817 216 812 c 2
 327 746 l 1
 439 812 l 2
 447 817 460 824 472 824 c 0
 481 824 483 819 483 816 c 0
 483 806 448 780 407 734 c 1
 384 710 l 1
 360 686 l 2
 349 674 337 668 327 668 c 0
 317 668 306 674 294 686 c 2
 270 710 l 1
 247 734 l 1
 206 780 171 806 171 816 c 0
30 295 m 0
 30 492 146 607 341 607 c 0x9e
 452 607 480 564 557 564 c 1
 554 541 553 513 553 489 c 0
 553 459 555 435 557 433 c 1xbe
 525 433 l 1
 509 511 436 575 355 575 c 0
 246 575 181 477 181 295 c 0
 181 121 251 25 359 25 c 0x9e
 444 25 513 87 530 167 c 1
 566 167 l 1
 561 126 560 95 560 82 c 0xde
 560 63 561 47 563 35 c 1
 557 35 l 2
 497 35 426 -10 336 -10 c 0
 147 -10 30 106 30 295 c 0
EndSplineSet
EndChar
StartChar: ccaron
Encoding: 269 269 125
Width: 439
GlyphClass: 2
Flags: MW
HStem: -10 37<237.5 287> 401 34<222.5 265> 524 60<192 225 225 258>
VStem: 20 138<146 286> 310 109<347 359.5 314 371.5>
AnchorPoint: "Anchor-0" 225 0 basechar 0
LayerCount: 2
Back
Fore
SplineSet
69 654 m 0
 69 657 71 662 81 662 c 0
 93 662 106 655 114 650 c 2
 225 584 l 1
 337 650 l 2
 345 655 358 662 370 662 c 0
 379 662 381 657 381 654 c 0
 381 644 346 618 305 572 c 1
 282 548 l 1
 258 524 l 2
 247 512 235 506 225 506 c 0
 215 506 204 512 192 524 c 2
 168 548 l 1
 145 572 l 1
 104 618 69 644 69 654 c 0
244 435 m 0
 346 435 419 389 419 330 c 0
 419 298 399 268 355 268 c 0
 325 268 301 283 301 313 c 0
 301 330 310 338 310 356 c 0
 310 387 281 401 249 401 c 0
 196 401 158 360 158 223 c 0
 158 69 206 27 269 27 c 0
 318 27 369 50 395 123 c 1
 426 108 l 1
 395 22 330 -10 244 -10 c 0
 125 -10 20 51 20 209 c 0
 20 363 117 435 244 435 c 0
EndSplineSet
EndChar
StartChar: Dcaron
Encoding: 270 270 20
Width: 634
GlyphClass: 2
Flags: MW
HStem: 0 36<243 266 266 295> 562 35<74 80.5 239 243 243 266> 686 60<270 303 303 336>
VStem: 93 138<57 541 541 546.5> 456 151<201.5 403.5>
LayerCount: 2
Back
Fore
SplineSet
147 816 m 0
 147 819 149 824 159 824 c 0
 171 824 184 817 192 812 c 2
 303 746 l 1
 415 812 l 2
 423 817 436 824 448 824 c 0
 457 824 459 819 459 816 c 0
 459 806 424 780 383 734 c 1
 360 710 l 1
 336 686 l 2
 325 674 313 668 303 668 c 0
 293 668 282 674 270 686 c 2
 246 710 l 1
 223 734 l 1
 182 780 147 806 147 816 c 0
39 0 m 1
 39 37 l 1
 78 35 l 2
 89 34 93 45 93 57 c 2
 93 541 l 2
 93 552 87 562 74 562 c 2
 39 560 l 1
 39 597 l 1
 283 597 l 2
 501 597 607 516 607 299 c 0
 607 104 509 0 295 0 c 2
 39 0 l 1
231 49 m 2
 231 40 235 36 243 36 c 2
 266 36 l 2
 404 36 456 86 456 298 c 0
 456 509 404 562 266 562 c 2
 243 562 l 2
 235 562 231 558 231 549 c 2
 231 49 l 2
EndSplineSet
EndChar
StartChar: dcaron
Encoding: 271 271 129
Width: 522
GlyphClass: 2
Flags: MW
HStem: -10 46<209.5 237.5> 0 32<467.5 472 467.5 506> 390 45<209 236.5 145 266> 526 97<515.5 571> 700 30<315 319.5>
VStem: 24 140<146.5 265.5 146.5 285> 328 131<357 680 680 685.5> 548 73<495 573.5>
LayerCount: 2
Back
Fore
SplineSet
24 211 m 0x6e
 24 359 86 435 204 435 c 0
 269 435 314 398 328 357 c 1
 328 680 l 2
 328 691 324 700 315 700 c 2
 269 698 l 1
 269 730 l 1
 459 730 l 1
 459 51 l 2
 459 38 463 32 472 32 c 2
 506 34 l 1
 506 0 l 1
 321 0 l 1
 322 4 323 9 323 16 c 2
 323 38 l 2x6e
 323 50 325 60 325 63 c 1
 309 20 270 -10 205 -10 c 0xae
 72 -10 24 65 24 211 c 0x6e
511 453 m 1xbf
 529 465 548 485 548 505 c 0
 548 521 538 526 527 526 c 0
 504 526 489 543 489 568 c 0
 489 602 516 623 551 623 c 0
 591 623 621 594 621 553 c 0
 621 499 575 452 532 431 c 1
 511 453 l 1xbf
164 211 m 0
 164 82 181 36 238 36 c 0
 299 36 326 86 326 186 c 2
 326 229 l 2
 326 329 295 390 237 390 c 0
 181 390 164 320 164 211 c 0
EndSplineSet
EndChar
StartChar: Dcroat
Encoding: 272 272 21
Width: 636
GlyphClass: 2
Flags: MW
HStem: 0 36<243 266 266 295> 286 43<34 93 34 93 231 376> 562 35<74 80.5 239 243 243 266>
VStem: 93 138<57 286 329 541 541 546.5> 456 151<201.5 403.5>
LayerCount: 2
Back
Fore
SplineSet
283 597 m 2
 501 597 607 516 607 299 c 0
 607 104 509 0 295 0 c 2
 39 0 l 1
 39 37 l 1
 78 35 l 2
 89 34 93 45 93 57 c 2
 93 286 l 1
 34 286 l 1
 34 329 l 1
 93 329 l 1
 93 541 l 2
 93 552 87 562 74 562 c 2
 39 560 l 1
 39 597 l 1
 283 597 l 2
266 36 m 2
 404 36 456 86 456 298 c 0
 456 509 404 562 266 562 c 2
 243 562 l 2
 235 562 231 558 231 549 c 2
 231 329 l 1
 376 329 l 1
 376 286 l 1
 231 286 l 1
 231 49 l 2
 231 40 235 36 243 36 c 2
 266 36 l 2
EndSplineSet
EndChar
StartChar: dcroat
Encoding: 273 273 130
Width: 522
GlyphClass: 2
Flags: MW
HStem: -10 46<209.5 237.5> 0 32<467.5 472 467.5 506> 390 45<209 236.5 145 266> 551 47<226 328 226 328 459 509> 700 30<315 319.5>
VStem: 24 140<146.5 265.5 146.5 285> 328 131<357 551 598 680 680 685.5>
LayerCount: 2
Back
Fore
SplineSet
509 551 m 1x7e
 459 551 l 1
 459 51 l 2
 459 38 463 32 472 32 c 2
 506 34 l 1
 506 0 l 1
 321 0 l 1
 322 4 323 9 323 16 c 2
 323 38 l 2x7e
 323 50 325 60 325 63 c 1
 309 20 270 -10 205 -10 c 0xbe
 72 -10 24 65 24 211 c 0
 24 359 86 435 204 435 c 0
 269 435 314 398 328 357 c 1
 328 551 l 1
 226 551 l 1
 226 598 l 1
 328 598 l 1
 328 680 l 2
 328 691 324 700 315 700 c 2
 269 698 l 1
 269 730 l 1
 459 730 l 1
 459 598 l 1
 509 598 l 1
 509 551 l 1x7e
326 186 m 2
 326 229 l 2
 326 329 295 390 237 390 c 0
 181 390 164 320 164 211 c 0
 164 82 181 36 238 36 c 0xbe
 299 36 326 86 326 186 c 2
EndSplineSet
EndChar
StartChar: emacron
Encoding: 275 275 138
Width: 468
GlyphClass: 2
Flags: MW
HStem: -10 41<286 296.5> 208 33<161 294 294 300 161 448 160 294> 401 34<213.5 269.5> 565 47<123 362 123 362>
VStem: 20 140<151 208 151 288.5> 123 239<565 612 565 612> 314 134<208 316>
AnchorPoint: "Anchor-0" 255 0 basechar 0
LayerCount: 2
Back
Fore
SplineSet
123 565 m 1xf4
 123 612 l 1
 362 612 l 1
 362 565 l 1
 123 565 l 1xf4
247 435 m 0xfa
 365 435 447 369 448 245 c 1
 448 208 l 1
 160 208 l 1
 160 94 202 32 286 31 c 0
 354 31 398 72 417 112 c 1
 444 93 l 1
 413 28 344 -10 249 -10 c 0
 90 -10 20 61 20 211 c 0
 20 366 98 435 247 435 c 0xfa
244 401 m 0
 183 401 161 328 161 241 c 1
 294 241 l 2
 306 241 314 247 314 274 c 0
 314 358 295 401 244 401 c 0
EndSplineSet
EndChar
StartChar: Edotaccent
Encoding: 278 278 27
Width: 571
GlyphClass: 2
Flags: MW
HStem: 0 36<243 353 353 398.5> 290 35<231 303 231 303> 406 20G<379 413 413 413> 443 154<462 480 480 484 39 497 462 462> 562 35<73 73 239 243 243 320> 681 126<259.5 304 259.5 304.5>
VStem: 93 138<57 290 325 541 541 547> 205 154<724.5 763> 379 34<191 219.5 394 426> 462 35<443 485> 492 35<133 179>
AnchorPoint: "Anchor-0" 282 0 basechar 0
LayerCount: 2
Back
Fore
SplineSet
205 744 m 0xeda0
 205 782 237 807 282 807 c 0
 326 807 359 782 359 744 c 0
 359 705 327 681 282 681 c 0
 237 681 205 705 205 744 c 0xeda0
39 0 m 1
 39 38 l 1
 75 35 l 2
 87 35 93 42 93 57 c 2
 93 541 l 2
 93 553 85 563 73 562 c 2
 39 560 l 1
 39 597 l 1
 480 597 l 2
 488 597 494 597 497 598 c 1xeec0
 497 443 l 1
 462 443 l 1xf6c0
 462 527 419 562 320 562 c 2
 243 562 l 2
 235 562 231 557 231 548 c 2
 231 325 l 1
 303 325 l 2
 347 325 379 362 379 426 c 1
 413 426 l 1
 413 191 l 1
 379 191 l 1
 379 248 344 290 303 290 c 2
 231 290 l 1
 231 49 l 2
 231 40 235 36 243 36 c 2xeea0
 353 36 l 2
 444 36 492 87 492 179 c 1
 527 179 l 1
 527 -3 l 1
 512 -1 474 0 431 0 c 2
 39 0 l 1
EndSplineSet
EndChar
StartChar: edotaccent
Encoding: 279 279 136
Width: 468
GlyphClass: 2
Flags: MW
HStem: -10 41<286 296.5> 208 33<161 294 294 300 161 448 160 294> 401 34<213.5 269.5> 537 126<221.5 266 221.5 266.5>
VStem: 20 140<151 208 151 288.5> 167 154<580.5 619> 314 134<208 316>
AnchorPoint: "Anchor-0" 255 0 basechar 0
LayerCount: 2
Back
Fore
SplineSet
167 600 m 0xf4
 167 638 199 663 244 663 c 0
 288 663 321 638 321 600 c 0
 321 561 289 537 244 537 c 0
 199 537 167 561 167 600 c 0xf4
247 435 m 0xea
 365 435 447 369 448 245 c 1
 448 208 l 1
 160 208 l 1
 160 94 202 32 286 31 c 0
 354 31 398 72 417 112 c 1
 444 93 l 1
 413 28 344 -10 249 -10 c 0
 90 -10 20 61 20 211 c 0
 20 366 98 435 247 435 c 0xea
244 401 m 0
 183 401 161 328 161 241 c 1
 294 241 l 2
 306 241 314 247 314 274 c 0
 314 358 295 401 244 401 c 0
EndSplineSet
EndChar
StartChar: Eogonek
Encoding: 280 280 30
Width: 571
GlyphClass: 2
Flags: MW
HStem: -159 58<456.5 459.5> 0 36<243 353 353 398.5> 290 35<231 303 231 303> 406 20G<379 413 413 413> 443 154<462 480 480 484 39 497 462 462> 562 35<73 73 239 243 243 320>
VStem: 93 138<57 290 325 541 541 547> 356 67<-111 -44.5> 379 34<191 219.5 394 426> 462 35<443 485> 492 35<133 179>
AnchorPoint: "Anchor-0" 282 0 basechar 0
LayerCount: 2
Back
Fore
SplineSet
544 -80 m 1xf6a0
 556 -99 l 1
 523 -137 481 -159 438 -159 c 0
 397 -159 356 -135 356 -87 c 0
 356 -54 373 -23 406 0 c 1
 39 0 l 1
 39 38 l 1
 75 35 l 2
 87 35 93 42 93 57 c 2
 93 541 l 2
 93 553 85 563 73 562 c 2
 39 560 l 1
 39 597 l 1
 480 597 l 2
 488 597 494 597 497 598 c 1xf740
 497 443 l 1
 462 443 l 1xfac0
 462 527 419 562 320 562 c 2
 243 562 l 2
 235 562 231 557 231 548 c 2
 231 325 l 1
 303 325 l 2
 347 325 379 362 379 426 c 1
 413 426 l 1
 413 191 l 1
 379 191 l 1
 379 248 344 290 303 290 c 2xf6a0
 231 290 l 1
 231 49 l 2
 231 40 235 36 243 36 c 2
 353 36 l 2
 444 36 492 87 492 179 c 1
 527 179 l 1
 527 -3 l 1
 514 -1 483 0 446 0 c 1
 431 -14 423 -34 423 -55 c 0
 423 -80 439 -101 474 -101 c 0xf720
 498 -101 522 -93 544 -80 c 1xf6a0
EndSplineSet
EndChar
StartChar: eogonek
Encoding: 281 281 139
Width: 468
GlyphClass: 2
Flags: MW
HStem: -162 58<346.5 349.5> -10 41<169.5 320> 208 33<161 294 294 300 161 448 160 294> 401 34<213.5 269.5>
VStem: 20 140<151 208 151 288.5> 246 67<-114 -44> 314 134<208 316>
AnchorPoint: "Anchor-0" 255 0 basechar 0
LayerCount: 2
Back
Fore
SplineSet
448 245 m 1
 448 208 l 1x7a
 160 208 l 1
 160 94 202 32 286 31 c 0
 354 31 398 72 417 112 c 1
 444 93 l 1
 426 55 394 26 352 8 c 1
 327 -5 313 -30 313 -58 c 0
 313 -83 329 -104 364 -104 c 0
 388 -104 412 -96 434 -83 c 1
 446 -102 l 1
 413 -140 371 -162 328 -162 c 0
 287 -162 246 -138 246 -90 c 0
 246 -59 261 -30 290 -7 c 1xfc
 277 -9 263 -10 249 -10 c 0
 90 -10 20 61 20 211 c 0
 20 366 98 435 247 435 c 0
 365 435 447 369 448 245 c 1
294 241 m 2
 306 241 314 247 314 274 c 0
 314 358 295 401 244 401 c 0
 183 401 161 328 161 241 c 1
 294 241 l 2
EndSplineSet
EndChar
StartChar: Ecaron
Encoding: 282 282 24
Width: 571
GlyphClass: 2
Flags: MW
HStem: 0 36<243 353 353 398.5> 290 35<231 303 231 303> 406 20G<379 413 413 413> 443 154<462 480 480 484 39 497 462 462> 562 35<73 73 239 243 243 320> 686 60<249 282 282 315>
VStem: 93 138<57 290 325 541 541 547> 379 34<191 219.5 394 426> 462 35<443 485> 492 35<133 179>
AnchorPoint: "Anchor-0" 282 0 basechar 0
LayerCount: 2
Back
Fore
SplineSet
126 816 m 0xef40
 126 819 128 824 138 824 c 0
 150 824 163 817 171 812 c 2
 282 746 l 1
 394 812 l 2
 402 817 415 824 427 824 c 0
 436 824 438 819 438 816 c 0
 438 806 403 780 362 734 c 1
 339 710 l 1
 315 686 l 2
 304 674 292 668 282 668 c 0
 272 668 261 674 249 686 c 2
 225 710 l 1
 202 734 l 1
 161 780 126 806 126 816 c 0xef40
39 0 m 1
 39 38 l 1
 75 35 l 2
 87 35 93 42 93 57 c 2
 93 541 l 2
 93 553 85 563 73 562 c 2
 39 560 l 1
 39 597 l 1
 480 597 l 2
 488 597 494 597 497 598 c 1xef80
 497 443 l 1
 462 443 l 1xf780
 462 527 419 562 320 562 c 2
 243 562 l 2
 235 562 231 557 231 548 c 2
 231 325 l 1
 303 325 l 2
 347 325 379 362 379 426 c 1
 413 426 l 1
 413 191 l 1
 379 191 l 1
 379 248 344 290 303 290 c 2
 231 290 l 1
 231 49 l 2
 231 40 235 36 243 36 c 2
 353 36 l 2
 444 36 492 87 492 179 c 1
 527 179 l 1
 527 -3 l 1
 512 -1 474 0 431 0 c 2
 39 0 l 1
EndSplineSet
EndChar
StartChar: ecaron
Encoding: 283 283 133
Width: 468
GlyphClass: 2
Flags: MW
HStem: -10 41<286 296.5> 208 33<161 294 294 300 161 448 160 294> 401 34<213.5 269.5> 524 60<210 243 243 276>
VStem: 20 140<151 208 151 288.5> 314 134<208 316>
AnchorPoint: "Anchor-0" 255 0 basechar 0
LayerCount: 2
Back
Fore
SplineSet
87 654 m 0
 87 657 89 662 99 662 c 0
 111 662 124 655 132 650 c 2
 243 584 l 1
 355 650 l 2
 363 655 376 662 388 662 c 0
 397 662 399 657 399 654 c 0
 399 644 364 618 323 572 c 1
 300 548 l 1
 276 524 l 2
 265 512 253 506 243 506 c 0
 233 506 222 512 210 524 c 2
 186 548 l 1
 163 572 l 1
 122 618 87 644 87 654 c 0
247 435 m 0
 365 435 447 369 448 245 c 1
 448 208 l 1
 160 208 l 1
 160 94 202 32 286 31 c 0
 354 31 398 72 417 112 c 1
 444 93 l 1
 413 28 344 -10 249 -10 c 0
 90 -10 20 61 20 211 c 0
 20 366 98 435 247 435 c 0
244 401 m 0
 183 401 161 328 161 241 c 1
 294 241 l 2
 306 241 314 247 314 274 c 0
 314 358 295 401 244 401 c 0
EndSplineSet
EndChar
StartChar: Imacron
Encoding: 298 298 43
Width: 325
GlyphClass: 2
Flags: MW
HStem: 0 36 561 36 699 47<43 282 43 282>
VStem: 43 239<699 746 699 746> 93 138<57 541>
LayerCount: 2
Back
Fore
SplineSet
43 699 m 1xf0
 43 746 l 1
 282 746 l 1
 282 699 l 1
 43 699 l 1xf0
39 0 m 1
 39 37 l 1
 74 35 l 2
 87 34 93 42 93 57 c 2
 93 541 l 2
 93 552 87 563 74 562 c 2
 39 560 l 1
 39 597 l 1
 287 597 l 1
 287 560 l 1
 251 562 l 2
 239 563 231 553 231 541 c 2
 231 57 l 2
 231 42 238 34 251 35 c 2
 287 37 l 1
 287 0 l 1xe8
 39 0 l 1
EndSplineSet
EndChar
StartChar: Iogonek
Encoding: 302 302 44
Width: 325
GlyphClass: 2
Flags: MW
HStem: -162 58<238.5 241.5> 0 36 561 36
VStem: 93 138<57 541> 138 67<-114 -46.5>
LayerCount: 2
Back
Fore
SplineSet
326 -83 m 1xf0
 338 -102 l 1
 305 -140 263 -162 220 -162 c 0
 179 -162 138 -138 138 -90 c 0
 138 -56 156 -23 193 0 c 1
 39 0 l 1
 39 37 l 1xe8
 74 35 l 2
 87 34 93 42 93 57 c 2
 93 541 l 2
 93 552 87 563 74 562 c 2
 39 560 l 1
 39 597 l 1
 287 597 l 1
 287 560 l 1
 251 562 l 2
 239 563 231 553 231 541 c 2
 231 57 l 2
 231 42 238 34 251 35 c 2
 287 37 l 1
 287 0 l 1xf0
 232 0 l 1
 214 -14 205 -35 205 -58 c 0
 205 -83 221 -104 256 -104 c 0xe8
 280 -104 304 -96 326 -83 c 1xf0
EndSplineSet
EndChar
StartChar: iogonek
Encoding: 303 303 154
Width: 263
GlyphClass: 2
Flags: MW
HStem: -160 58<202.5 205.5> 0 33 393 32 537 126<106.5 151 106.5 151.5>
VStem: 52 154<580.5 619> 66 131<51 374 374 379.5> 102 67<-112 -45>
LayerCount: 2
Back
Fore
SplineSet
129 537 m 0xf8
 84 537 52 561 52 600 c 0
 52 638 84 663 129 663 c 0
 173 663 206 638 206 600 c 0
 206 561 174 537 129 537 c 0xf8
290 -81 m 1
 302 -100 l 1
 269 -138 227 -160 184 -160 c 0
 143 -160 102 -136 102 -88 c 0
 102 -55 119 -23 154 0 c 1
 20 0 l 1
 20 34 l 1xe2
 53 32 l 2
 62 31 66 38 66 51 c 2
 66 374 l 2
 66 385 62 392 54 394 c 1
 21 392 l 1
 21 425 l 1
 197 425 l 1
 197 51 l 2
 197 38 201 31 210 32 c 2
 243 34 l 1
 243 0 l 1x64
 193 0 l 1
 178 -14 169 -34 169 -56 c 0
 169 -81 185 -102 220 -102 c 0xe2
 244 -102 268 -94 290 -81 c 1
EndSplineSet
EndChar
StartChar: Idotaccent
Encoding: 304 304 41
Width: 325
GlyphClass: 2
Flags: MW
HStem: 0 36 561 36 681 126<139.5 184 139.5 184.5>
VStem: 85 154<724.5 763> 93 138<57 541>
LayerCount: 2
Back
Fore
SplineSet
85 744 m 0xf0
 85 782 117 807 162 807 c 0
 206 807 239 782 239 744 c 0
 239 705 207 681 162 681 c 0
 117 681 85 705 85 744 c 0xf0
39 0 m 1
 39 37 l 1
 74 35 l 2
 87 34 93 42 93 57 c 2
 93 541 l 2
 93 552 87 563 74 562 c 2
 39 560 l 1
 39 597 l 1
 287 597 l 1
 287 560 l 1
 251 562 l 2
 239 563 231 553 231 541 c 2
 231 57 l 2
 231 42 238 34 251 35 c 2
 287 37 l 1
 287 0 l 1xc8
 39 0 l 1
EndSplineSet
EndChar
StartChar: dotlessi
Encoding: 305 305 146
Width: 263
GlyphClass: 2
Flags: MW
HStem: 0 33 393 32
VStem: 66 131<51 374 374 379.5>
LayerCount: 2
Back
Fore
SplineSet
197 425 m 1
 197 51 l 2
 197 38 201 31 210 32 c 2
 243 34 l 1
 243 0 l 1
 20 0 l 1
 20 34 l 1
 53 32 l 2
 62 31 66 38 66 51 c 2
 66 374 l 2
 66 385 62 392 54 394 c 1
 21 392 l 1
 21 425 l 1
 197 425 l 1
EndSplineSet
EndChar
StartChar: IJ
Encoding: 306 306 37
Width: 784
GlyphClass: 2
Flags: MW
HStem: -10 34<474.5 506.5 444.5 565> 0 36 5 167<378.5 393 349 397.5> 561 36
VStem: 93 138<57 541> 349 44<144 172 144 172 144 172> 558 138<179 541 541 542>
LayerCount: 2
Back
Fore
SplineSet
39 0 m 1x5e
 39 37 l 1
 74 35 l 2
 87 34 93 42 93 57 c 2
 93 541 l 2
 93 552 87 563 74 562 c 2
 39 560 l 1
 39 597 l 1
 287 597 l 1
 287 560 l 1
 251 562 l 2
 239 563 231 553 231 541 c 2
 231 57 l 2
 231 42 238 34 251 35 c 2
 287 37 l 1
 287 0 l 1
 39 0 l 1x5e
349 -1 m 1
 349 172 l 1x3e
 393 172 l 1
 393 116 411 24 478 24 c 0
 535 24 558 64 558 179 c 2
 558 541 l 2
 558 553 550 563 539 562 c 2
 470 560 l 1
 470 597 l 1
 750 597 l 1
 750 560 l 1
 716 562 l 2
 703 563 696 553 696 542 c 2
 696 179 l 2
 696 51 629 -10 501 -10 c 0x9e
 448 -10 411 5 384 5 c 0
 373 5 356 6 349 -1 c 1
EndSplineSet
EndChar
StartChar: ij
Encoding: 307 307 152
Width: 525
GlyphClass: 2
Flags: MW
HStem: -243 34<299.5 317 299.5 353.5> 0 33 393 32 532 125<106.5 151.5 369.5 414.5>
VStem: 52 154<575 614> 66 131<51 374 374 379.5> 173 117<-158 -148.5> 315 154<575 614> 329 131<-37 -12 -12 374 374 379.5>
LayerCount: 2
Back
Fore
SplineSet
129 657 m 0xf9
 174 657 206 633 206 595 c 0
 206 555 174 532 129 532 c 0
 84 532 52 555 52 595 c 0
 52 633 84 657 129 657 c 0xf9
392 657 m 0
 437 657 469 633 469 595 c 0
 469 555 437 532 392 532 c 0
 347 532 315 555 315 595 c 0
 315 633 347 657 392 657 c 0
197 425 m 1xf480
 197 51 l 2
 197 38 201 31 210 32 c 2
 243 34 l 1
 243 0 l 1
 20 0 l 1
 20 34 l 1
 53 32 l 2
 62 31 66 38 66 51 c 2
 66 374 l 2
 66 385 62 392 54 394 c 1
 21 392 l 1
 21 425 l 1
 197 425 l 1xf480
460 425 m 1
 460 -12 l 2
 460 -171 405 -243 302 -243 c 0
 219 -243 173 -211 173 -166 c 0
 173 -131 198 -108 236 -108 c 0
 250 -108 290 -114 290 -153 c 0
 290 -163 284 -175 284 -184 c 0
 284 -200 293 -209 306 -209 c 0xf280
 328 -209 338 -185 338 -159 c 0
 338 -135 329 -106 329 -37 c 2
 329 374 l 2
 329 385 325 395 316 394 c 2
 282 392 l 1
 282 425 l 1
 460 425 l 1
EndSplineSet
EndChar
StartChar: Kcommaaccent
Encoding: 310 310 47
Width: 639
GlyphClass: 2
Flags: MW
HStem: -141 107<306 313> 0 36 562 35<74 74 244.5 251 447 450.5 557 557>
VStem: 93 138<57 224 278 540> 334 73<-179 -91.5> 411 180<560 597 560 597>
AnchorPoint: "Anchor-0" 323 0 basechar 0
LayerCount: 2
Back
Fore
SplineSet
602 34 m 0
 612 34 623 35 632 37 c 1
 632 0 l 1
 347 0 l 1
 347 37 l 1
 390 34 l 2
 407 33 417 40 405 59 c 2
 267 265 l 1
 231 224 l 1
 231 57 l 2
 231 42 238 34 251 35 c 2
 297 37 l 1
 297 0 l 1
 39 0 l 1
 39 37 l 1
 74 35 l 2
 87 34 93 42 93 57 c 2
 93 541 l 2
 93 553 87 563 74 562 c 2
 39 560 l 1
 39 597 l 1
 300 597 l 1
 300 560 l 1
 251 562 l 2
 238 562 231 555 231 540 c 2
 231 278 l 1
 440 526 l 2
 456 545 457 550 457 553 c 0
 457 559 454 562 447 562 c 2
 411 560 l 1
 411 597 l 1
 591 597 l 1
 591 560 l 1
 557 562 l 2
 537 563 521 558 499 533 c 2
 359 372 l 1
 578 48 l 2
 584 39 593 34 602 34 c 0
328 -34 m 0xf8
 377 -34 407 -72 407 -111 c 0
 407 -175 358 -226 308 -251 c 1
 287 -229 l 1
 311 -214 334 -188 334 -170 c 0
 334 -147 320 -141 306 -141 c 0
 280 -141 265 -117 265 -92 c 0
 265 -64 284 -34 328 -34 c 0xf8
EndSplineSet
EndChar
StartChar: kcommaaccent
Encoding: 311 311 158
Width: 524
GlyphClass: 2
Flags: MW
HStem: -141 107<243 250> 0 33 395 30<354 354 439.5 445> 700 30<54 58>
VStem: 66 131<51 196 238 679 679 686> 271 73<-179 -91.5> 311 170<393 425 393 425>
AnchorPoint: "Anchor-0" 260 0 basechar 0
LayerCount: 2
Back
Fore
SplineSet
489 32 m 2x7a
 517 34 l 1
 517 0 l 1
 277 0 l 1
 277 34 l 1
 310 32 l 2
 322 31 324 39 319 46 c 2
 220 215 l 1
 197 196 l 1
 197 51 l 2
 197 38 201 31 210 32 c 2
 245 34 l 1
 245 0 l 1
 20 0 l 1
 20 34 l 1
 53 32 l 1
 62 34 66 40 66 51 c 2
 66 679 l 2
 66 693 62 700 54 700 c 2
 21 698 l 1
 21 730 l 1
 197 730 l 1
 197 238 l 1
 357 375 l 2
 364 382 366 396 354 395 c 2
 311 393 l 1
 311 425 l 1
 481 425 l 1
 481 393 l 1
 445 395 l 2
 434 395 424 390 414 381 c 2
 318 299 l 1
 462 50 l 2
 468 39 481 31 489 32 c 2x7a
265 -34 m 0xfc
 314 -34 344 -72 344 -111 c 0
 344 -175 295 -226 245 -251 c 1
 224 -229 l 1
 248 -214 271 -188 271 -170 c 0
 271 -147 257 -141 243 -141 c 0
 217 -141 202 -117 202 -92 c 0
 202 -64 221 -34 265 -34 c 0xfc
EndSplineSet
EndChar
StartChar: Lacute
Encoding: 313 313 49
Width: 514
GlyphClass: 2
Flags: MW
HStem: 0 36<243 326 326 368> 561 36
VStem: 93 138<57 541> 459 33<127 171>
AnchorPoint: "Anchor-0" 257 0 basechar 0
LayerCount: 2
Back
Fore
SplineSet
325 789 m 0
 325 782 321 777 312 771 c 2
 145 669 l 2
 140 665 129 660 122 660 c 0
 114 660 110 664 110 670 c 0
 110 678 116 685 127 697 c 2
 222 801 l 2
 239 820 243 826 258 826 c 0
 282 826 325 803 325 789 c 0
39 0 m 1
 39 38 l 1
 78 35 l 2
 89 35 93 45 93 57 c 2
 93 541 l 2
 93 552 85 563 74 562 c 2
 39 560 l 1
 39 597 l 1
 300 597 l 1
 300 560 l 1
 251 562 l 2
 239 563 231 553 231 541 c 2
 231 49 l 2
 231 40 235 36 243 36 c 2
 326 36 l 2
 413 36 459 83 459 171 c 1
 492 171 l 1
 492 -3 l 1
 480 -1 439 0 368 0 c 2
 39 0 l 1
EndSplineSet
EndChar
StartChar: lacute
Encoding: 314 314 160
Width: 263
GlyphClass: 2
Flags: MW
HStem: 0 33 700 31
VStem: 66 131<51 680 680 685.5>
AnchorPoint: "Anchor-0" 128 0 basechar 0
LayerCount: 2
Back
Fore
SplineSet
275 835 m 0
 275 829 270 824 259 820 c 2
 81 755 l 2
 76 753 69 751 63 751 c 0
 53 751 47 754 47 762 c 0
 47 770 53 775 67 785 c 2
 180 868 l 2
 195 879 202 883 211 883 c 0
 229 883 275 854 275 835 c 0
20 0 m 1
 20 34 l 1
 53 32 l 1
 62 34 66 40 66 51 c 2
 66 680 l 2
 66 691 62 698 54 701 c 1
 21 699 l 1
 21 731 l 1
 197 731 l 1
 197 51 l 2
 197 38 201 31 210 32 c 2
 243 34 l 1
 243 0 l 1
 20 0 l 1
EndSplineSet
EndChar
StartChar: Lcommaaccent
Encoding: 315 315 51
Width: 514
GlyphClass: 2
Flags: MW
HStem: -141 107<240 247> 0 36<243 326 326 368> 561 36
VStem: 93 138<57 541> 268 73<-179 -91.5> 459 33<127 171>
AnchorPoint: "Anchor-0" 257 0 basechar 0
LayerCount: 2
Back
Fore
SplineSet
39 0 m 1
 39 38 l 1
 78 35 l 2
 89 35 93 45 93 57 c 2
 93 541 l 2
 93 552 85 563 74 562 c 2
 39 560 l 1
 39 597 l 1
 300 597 l 1
 300 560 l 1
 251 562 l 2
 239 563 231 553 231 541 c 2
 231 49 l 2
 231 40 235 36 243 36 c 2
 326 36 l 2
 413 36 459 83 459 171 c 1
 492 171 l 1
 492 -3 l 1
 480 -1 439 0 368 0 c 2
 39 0 l 1
221 -229 m 1
 245 -214 268 -188 268 -170 c 0
 268 -147 254 -141 240 -141 c 0
 214 -141 199 -117 199 -92 c 0
 199 -64 218 -34 262 -34 c 0
 311 -34 341 -72 341 -111 c 0
 341 -175 292 -226 242 -251 c 1
 221 -229 l 1
EndSplineSet
EndChar
StartChar: lcommaaccent
Encoding: 316 316 162
Width: 263
GlyphClass: 2
Flags: MW
HStem: -141 107<111 118> 0 33 700 31
VStem: 66 131<51 680 680 685.5> 139 73<-179 -91.5>
AnchorPoint: "Anchor-0" 128 0 basechar 0
LayerCount: 2
Back
Fore
SplineSet
20 0 m 1x70
 20 34 l 1
 53 32 l 1
 62 34 66 40 66 51 c 2
 66 680 l 2
 66 691 62 698 54 701 c 1
 21 699 l 1
 21 731 l 1
 197 731 l 1
 197 51 l 2
 197 38 201 31 210 32 c 2
 243 34 l 1
 243 0 l 1
 20 0 l 1x70
92 -229 m 1xe8
 116 -214 139 -188 139 -170 c 0
 139 -147 125 -141 111 -141 c 0
 85 -141 70 -117 70 -92 c 0
 70 -64 89 -34 133 -34 c 0
 182 -34 212 -72 212 -111 c 0
 212 -175 163 -226 113 -251 c 1
 92 -229 l 1xe8
EndSplineSet
EndChar
StartChar: Lcaron
Encoding: 317 317 50
Width: 514
GlyphClass: 2
Flags: MW
HStem: 0 36<243 326 326 368> 526 97<404.5 460> 561 36
VStem: 93 138<57 541> 437 73<495 573.5> 459 33<127 171>
AnchorPoint: "Anchor-0" 257 0 basechar 0
LayerCount: 2
Back
Fore
SplineSet
400 453 m 1xd8
 418 465 437 485 437 505 c 0
 437 521 427 526 416 526 c 0
 393 526 378 543 378 568 c 0
 378 602 405 623 440 623 c 0
 480 623 510 594 510 553 c 0
 510 499 464 452 421 431 c 1
 400 453 l 1xd8
39 0 m 1
 39 38 l 1
 78 35 l 2
 89 35 93 45 93 57 c 2
 93 541 l 2
 93 552 85 563 74 562 c 2
 39 560 l 1
 39 597 l 1
 300 597 l 1
 300 560 l 1
 251 562 l 2
 239 563 231 553 231 541 c 2
 231 49 l 2
 231 40 235 36 243 36 c 2
 326 36 l 2
 413 36 459 83 459 171 c 1
 492 171 l 1
 492 -3 l 1xb4
 480 -1 439 0 368 0 c 2
 39 0 l 1
EndSplineSet
EndChar
StartChar: lcaron
Encoding: 318 318 161
Width: 263
GlyphClass: 2
Flags: MW
HStem: 0 33 526 97<247.5 303> 700 31
VStem: 66 131<51 680 680 685.5> 280 73<495 573.5>
AnchorPoint: "Anchor-0" 128 0 basechar 0
LayerCount: 2
Back
Fore
SplineSet
20 0 m 1
 20 34 l 1
 53 32 l 1
 62 34 66 40 66 51 c 2
 66 680 l 2
 66 691 62 698 54 701 c 1
 21 699 l 1
 21 731 l 1
 197 731 l 1
 197 51 l 2
 197 38 201 31 210 32 c 2
 243 34 l 1
 243 0 l 1
 20 0 l 1
243 453 m 1
 261 465 280 485 280 505 c 0
 280 521 270 526 259 526 c 0
 236 526 221 543 221 568 c 0
 221 602 248 623 283 623 c 0
 323 623 353 594 353 553 c 0
 353 499 307 452 264 431 c 1
 243 453 l 1
EndSplineSet
EndChar
StartChar: Ldot
Encoding: 319 319 52
Width: 514
GlyphClass: 2
Flags: MW
HStem: 0 36<243 326 326 368> 269 150<390.5 444> 561 36
VStem: 93 138<57 541> 459 33<127 171>
AnchorPoint: "Anchor-0" 257 0 basechar 0
LayerCount: 2
Back
Fore
SplineSet
39 0 m 1
 39 38 l 1
 78 35 l 2
 89 35 93 45 93 57 c 2
 93 541 l 2
 93 552 85 563 74 562 c 2
 39 560 l 1
 39 597 l 1
 300 597 l 1
 300 560 l 1
 251 562 l 2
 239 563 231 553 231 541 c 2
 231 49 l 2
 231 40 235 36 243 36 c 2
 326 36 l 2
 413 36 459 83 459 171 c 1
 492 171 l 1
 492 -3 l 1
 480 -1 439 0 368 0 c 2
 39 0 l 1
325 344 m 0
 325 390 364 419 417 419 c 0
 471 419 510 390 510 344 c 0
 510 297 471 269 417 269 c 0
 364 269 325 297 325 344 c 0
EndSplineSet
Ligature2: "Ligature Substitution lookup 16 subtable" L periodcentered
EndChar
StartChar: ldot
Encoding: 320 320 163
Width: 263
GlyphClass: 2
Flags: MW
HStem: 0 33 291 126<265 302.5 265 303> 700 31
VStem: 66 131<51 680 680 685.5> 218 131<334.5 373>
AnchorPoint: "Anchor-0" 128 0 basechar 0
LayerCount: 2
Back
Fore
SplineSet
20 0 m 1
 20 34 l 1
 53 32 l 1
 62 34 66 40 66 51 c 2
 66 680 l 2
 66 691 62 698 54 701 c 1
 21 699 l 1
 21 731 l 1
 197 731 l 1
 197 51 l 2
 197 38 201 31 210 32 c 2
 243 34 l 1
 243 0 l 1
 20 0 l 1
218 354 m 0xf8
 218 392 246 417 284 417 c 0
 321 417 349 392 349 354 c 0
 349 315 322 291 284 291 c 0
 246 291 218 315 218 354 c 0xf8
EndSplineSet
Ligature2: "Ligature Substitution lookup 16 subtable" l periodcentered
EndChar
StartChar: lslash
Encoding: 322 322 164
Width: 263
GlyphClass: 2
Flags: MW
HStem: 0 33 700 31
VStem: 66 131<51 328 328 328 380 430 483 680 680 685.5>
AnchorPoint: "Anchor-0" 128 0 basechar 0
LayerCount: 2
Back
Fore
SplineSet
253 476 m 1
 197 430 l 1
 197 51 l 2
 197 38 201 31 210 32 c 2
 243 34 l 1
 243 0 l 1
 20 0 l 1
 20 34 l 1
 53 32 l 1
 62 34 66 40 66 51 c 2
 66 328 l 1
 10 281 l 1
 10 333 l 1
 66 380 l 1
 66 680 l 2
 66 691 62 698 54 701 c 1
 21 699 l 1
 21 731 l 1
 197 731 l 1
 197 483 l 1
 253 530 l 1
 253 476 l 1
EndSplineSet
EndChar
StartChar: Nacute
Encoding: 323 323 56
Width: 677
GlyphClass: 2
Flags: MW
HStem: -6 21G<526 586 526 526> 0 27<73 79.5 147.5 154> 569 28<73 73 524 524 524 527 597.5 603 603 605>
VStem: 93 42<49 525> 544 42<184 548 -6 549 -6 555.5>
AnchorPoint: "Anchor-0" 342 0 basechar 0
LayerCount: 2
Back
Fore
SplineSet
287 660 m 0x78
 279 660 275 664 275 670 c 0
 275 678 281 685 292 697 c 2
 387 801 l 2
 404 820 408 826 423 826 c 0
 447 826 490 803 490 789 c 0
 490 782 486 777 477 771 c 2
 310 669 l 2
 305 665 294 660 287 660 c 0x78
475 597 m 1
 644 597 l 1
 644 567 l 1
 605 569 l 1
 603 569 l 2
 592 569 586 562 586 548 c 2
 586 -6 l 1
 526 -6 l 1xb8
 135 525 l 1
 135 49 l 2
 135 34 141 27 154 27 c 2
 203 29 l 1
 203 0 l 1
 34 0 l 1
 34 29 l 1
 73 27 l 2
 86 27 93 34 93 49 c 2
 93 548 l 2
 93 559 86 570 73 569 c 2
 34 567 l 1
 34 597 l 1
 240 597 l 1
 544 184 l 1
 544 549 l 2
 544 562 538 569 527 569 c 2
 524 569 l 1
 475 567 l 1
 475 597 l 1
EndSplineSet
EndChar
StartChar: nacute
Encoding: 324 324 167
Width: 539
GlyphClass: 2
Flags: MW
HStem: 0 32<53 53 205.5 210 490.5 495> 388 47<315 325.5> 393 32
VStem: 66 131<51 213 334 374 374 379.5> 351 131<51 292>
AnchorPoint: "Anchor-0" 274 0 basechar 0
LayerCount: 2
Back
Fore
SplineSet
218 492 m 0xb8
 210 492 206 496 206 502 c 0
 206 510 212 517 223 529 c 2
 318 633 l 2
 335 652 339 658 354 658 c 0
 378 658 421 635 421 621 c 0
 421 614 417 609 408 603 c 2
 241 501 l 2
 236 497 225 492 218 492 c 0xb8
495 32 m 2
 529 34 l 1
 529 0 l 1
 300 0 l 1
 300 34 l 1
 338 32 l 1
 347 34 351 40 351 51 c 2
 351 293 l 2
 351 354 347 388 304 388 c 0xd8
 252 388 197 321 198 191 c 1
 197 213 l 1
 197 51 l 2
 197 38 201 32 210 32 c 2
 249 34 l 1
 249 0 l 1
 20 0 l 1
 20 34 l 1
 53 32 l 1
 62 34 66 40 66 51 c 2
 66 374 l 2
 66 385 62 392 53 394 c 1
 20 392 l 1
 20 425 l 1
 202 425 l 1
 199 416 197 405 197 390 c 2xb8
 197 334 l 1
 225 396 278 435 352 435 c 0xd8
 443 435 482 391 482 292 c 2
 482 51 l 2
 482 38 486 32 495 32 c 2
EndSplineSet
EndChar
StartChar: Ncommaaccent
Encoding: 325 325 58
Width: 677
GlyphClass: 2
Flags: MW
HStem: -141 107<325 332> -6 21G<526 586 526 526> 0 27<73 79.5 147.5 154> 569 28<73 73 524 524 524 527 597.5 603 603 605>
VStem: 93 42<49 525> 353 73<-179 -91.5> 544 42<184 548 -6 549 -6 555.5>
AnchorPoint: "Anchor-0" 342 0 basechar 0
LayerCount: 2
Back
Fore
SplineSet
475 597 m 1x3a
 644 597 l 1
 644 567 l 1
 605 569 l 1
 603 569 l 2
 592 569 586 562 586 548 c 2
 586 -6 l 1
 526 -6 l 1x5a
 135 525 l 1
 135 49 l 2
 135 34 141 27 154 27 c 2
 203 29 l 1
 203 0 l 1
 34 0 l 1
 34 29 l 1
 73 27 l 2
 86 27 93 34 93 49 c 2
 93 548 l 2
 93 559 86 570 73 569 c 2
 34 567 l 1
 34 597 l 1
 240 597 l 1
 544 184 l 1
 544 549 l 2
 544 562 538 569 527 569 c 2
 524 569 l 1
 475 567 l 1
 475 597 l 1x3a
347 -34 m 0xbe
 396 -34 426 -72 426 -111 c 0
 426 -175 377 -226 327 -251 c 1
 306 -229 l 1
 330 -214 353 -188 353 -170 c 0
 353 -147 339 -141 325 -141 c 0
 299 -141 284 -117 284 -92 c 0
 284 -64 303 -34 347 -34 c 0xbe
EndSplineSet
EndChar
StartChar: ncommaaccent
Encoding: 326 326 169
Width: 539
GlyphClass: 2
Flags: MW
HStem: -141 107<257 264> 0 32<53 53 205.5 210 490.5 495> 388 47<315 325.5> 393 32
VStem: 66 131<51 213 334 374 374 379.5> 285 73<-179 -91.5> 351 131<51 292>
AnchorPoint: "Anchor-0" 274 0 basechar 0
LayerCount: 2
Back
Fore
SplineSet
495 32 m 2x5a
 529 34 l 1
 529 0 l 1
 300 0 l 1
 300 34 l 1
 338 32 l 1
 347 34 351 40 351 51 c 2
 351 293 l 2
 351 354 347 388 304 388 c 0x6a
 252 388 197 321 198 191 c 1
 197 213 l 1
 197 51 l 2
 197 38 201 32 210 32 c 2
 249 34 l 1
 249 0 l 1
 20 0 l 1
 20 34 l 1
 53 32 l 1
 62 34 66 40 66 51 c 2
 66 374 l 2
 66 385 62 392 53 394 c 1
 20 392 l 1
 20 425 l 1
 202 425 l 1
 199 416 197 405 197 390 c 2x5a
 197 334 l 1
 225 396 278 435 352 435 c 0x6a
 443 435 482 391 482 292 c 2
 482 51 l 2
 482 38 486 32 495 32 c 2x5a
279 -34 m 0xdc
 328 -34 358 -72 358 -111 c 0
 358 -175 309 -226 259 -251 c 1
 238 -229 l 1
 262 -214 285 -188 285 -170 c 0
 285 -147 271 -141 257 -141 c 0
 231 -141 216 -117 216 -92 c 0
 216 -64 235 -34 279 -34 c 0xdc
EndSplineSet
EndChar
StartChar: Ncaron
Encoding: 327 327 57
Width: 677
GlyphClass: 2
Flags: MW
HStem: -6 21G<526 586 526 526> 0 27<73 79.5 147.5 154> 569 28<73 73 524 524 524 527 597.5 603 603 605> 686 60<309 342 342 375>
VStem: 93 42<49 525> 544 42<184 548 -6 549 -6 555.5>
AnchorPoint: "Anchor-0" 342 0 basechar 0
LayerCount: 2
Back
Fore
SplineSet
262 734 m 1x7c
 221 780 186 806 186 816 c 0
 186 819 188 824 198 824 c 0
 210 824 223 817 231 812 c 2
 342 746 l 1
 454 812 l 2
 462 817 475 824 487 824 c 0
 496 824 498 819 498 816 c 0
 498 806 463 780 422 734 c 1
 399 710 l 1
 375 686 l 2
 364 674 352 668 342 668 c 0
 332 668 321 674 309 686 c 2
 285 710 l 1
 262 734 l 1x7c
475 597 m 1
 644 597 l 1
 644 567 l 1
 605 569 l 1
 603 569 l 2
 592 569 586 562 586 548 c 2
 586 -6 l 1
 526 -6 l 1xbc
 135 525 l 1
 135 49 l 2
 135 34 141 27 154 27 c 2
 203 29 l 1
 203 0 l 1
 34 0 l 1
 34 29 l 1
 73 27 l 2
 86 27 93 34 93 49 c 2
 93 548 l 2
 93 559 86 570 73 569 c 2
 34 567 l 1
 34 597 l 1
 240 597 l 1
 544 184 l 1
 544 549 l 2
 544 562 538 569 527 569 c 2
 524 569 l 1
 475 567 l 1
 475 597 l 1
EndSplineSet
EndChar
StartChar: ncaron
Encoding: 328 328 168
Width: 539
GlyphClass: 2
Flags: MW
HStem: 0 32<53 53 205.5 210 490.5 495> 388 47<315 325.5> 393 32 524 60<241 274 274 307>
VStem: 66 131<51 213 334 374 374 379.5> 351 131<51 292>
AnchorPoint: "Anchor-0" 274 0 basechar 0
LayerCount: 2
Back
Fore
SplineSet
194 572 m 1xbc
 153 618 118 644 118 654 c 0
 118 657 120 662 130 662 c 0
 142 662 155 655 163 650 c 2
 274 584 l 1
 386 650 l 2
 394 655 407 662 419 662 c 0
 428 662 430 657 430 654 c 0
 430 644 395 618 354 572 c 1
 331 548 l 1
 307 524 l 2
 296 512 284 506 274 506 c 0
 264 506 253 512 241 524 c 2
 217 548 l 1
 194 572 l 1xbc
495 32 m 2
 529 34 l 1
 529 0 l 1
 300 0 l 1
 300 34 l 1
 338 32 l 1
 347 34 351 40 351 51 c 2
 351 293 l 2
 351 354 347 388 304 388 c 0xdc
 252 388 197 321 198 191 c 1
 197 213 l 1
 197 51 l 2
 197 38 201 32 210 32 c 2
 249 34 l 1
 249 0 l 1
 20 0 l 1
 20 34 l 1
 53 32 l 1
 62 34 66 40 66 51 c 2
 66 374 l 2
 66 385 62 392 53 394 c 1
 20 392 l 1
 20 425 l 1
 202 425 l 1
 199 416 197 405 197 390 c 2xbc
 197 334 l 1
 225 396 278 435 352 435 c 0xdc
 443 435 482 391 482 292 c 2
 482 51 l 2
 482 38 486 32 495 32 c 2
EndSplineSet
EndChar
StartChar: Omacron
Encoding: 332 332 66
Width: 678
GlyphClass: 2
Flags: MW
HStem: -10 35<285.5 392.5 285.5 437> 573 34<285.5 392.5> 699 47<219 458 219 458>
VStem: 30 151<201 399> 219 239<699 746 699 746> 497 151<201 396 201 404.5>
LayerCount: 2
Back
Fore
SplineSet
219 699 m 1
 219 746 l 1
 458 746 l 1
 458 699 l 1
 219 699 l 1
30 299 m 0
 30 499 145 607 339 607 c 0
 539 607 648 493 648 299 c 0
 648 103 535 -10 339 -10 c 0
 143 -10 30 103 30 299 c 0
181 299 m 0
 181 87 232 25 339 25 c 0
 446 25 497 87 497 299 c 0
 497 510 446 573 339 573 c 0
 232 573 181 510 181 299 c 0
EndSplineSet
EndChar
StartChar: omacron
Encoding: 333 333 177
Width: 487
GlyphClass: 2
Flags: MW
HStem: -10 35<215 274 215 320.5> 401 34<215 274> 565 47<124 363 124 363>
VStem: 20 140<143 281 143 284> 124 239<565 612 565 612> 328 139<143 281>
LayerCount: 2
Back
Fore
SplineSet
124 565 m 1xe8
 124 612 l 1
 363 612 l 1
 363 565 l 1
 124 565 l 1xe8
20 213 m 0xf4
 20 355 93 435 244 435 c 0
 397 435 467 355 467 213 c 0
 467 69 397 -10 244 -10 c 0
 93 -10 20 69 20 213 c 0xf4
160 211 m 0
 160 75 186 25 244 25 c 0
 304 25 328 75 328 211 c 0
 328 351 304 401 244 401 c 0
 186 401 160 351 160 211 c 0
EndSplineSet
EndChar
StartChar: Ohungarumlaut
Encoding: 336 336 65
Width: 678
GlyphClass: 2
Flags: MW
HStem: -10 35<285.5 392.5 285.5 437> 573 34<285.5 392.5>
VStem: 30 151<201 399> 497 151<201 396 201 404.5>
LayerCount: 2
Back
Fore
SplineSet
221 685 m 0
 279 792 289 811 294 817 c 0
 300 825 302 826 307 826 c 0
 317 826 354 814 365 810 c 0
 370 808 374 804 374 798 c 0
 374 795 372 791 368 786 c 0
 360 777 344 762 253 677 c 0
 242 667 235 665 229 665 c 0
 221 665 218 670 218 674 c 0
 218 678 219 681 221 685 c 0
348 685 m 0
 406 792 416 811 421 817 c 0
 427 825 429 826 434 826 c 0
 444 826 481 814 492 810 c 0
 497 808 501 804 501 798 c 0
 501 795 499 791 495 786 c 0
 487 777 471 762 380 677 c 0
 369 667 362 665 356 665 c 0
 348 665 345 670 345 674 c 0
 345 678 346 681 348 685 c 0
30 299 m 0
 30 499 145 607 339 607 c 0
 539 607 648 493 648 299 c 0
 648 103 535 -10 339 -10 c 0
 143 -10 30 103 30 299 c 0
181 299 m 0
 181 87 232 25 339 25 c 0
 446 25 497 87 497 299 c 0
 497 510 446 573 339 573 c 0
 232 573 181 510 181 299 c 0
EndSplineSet
EndChar
StartChar: ohungarumlaut
Encoding: 337 337 176
Width: 487
GlyphClass: 2
Flags: MW
HStem: -10 35<215 274 215 320.5> 401 34<215 274>
VStem: 20 140<143 281 143 284> 328 139<143 281>
LayerCount: 2
Back
Fore
SplineSet
133 517 m 0
 191 624 201 643 206 649 c 0
 212 657 214 658 219 658 c 0
 229 658 266 646 277 642 c 0
 282 640 286 636 286 630 c 0
 286 627 284 623 280 618 c 0
 272 609 256 594 165 509 c 0
 154 499 147 497 141 497 c 0
 133 497 130 502 130 506 c 0
 130 510 131 513 133 517 c 0
260 517 m 0
 318 624 328 643 333 649 c 0
 339 657 341 658 346 658 c 0
 356 658 393 646 404 642 c 0
 409 640 413 636 413 630 c 0
 413 627 411 623 407 618 c 0
 399 609 383 594 292 509 c 0
 281 499 274 497 268 497 c 0
 260 497 257 502 257 506 c 0
 257 510 258 513 260 517 c 0
20 213 m 0
 20 355 93 435 244 435 c 0
 397 435 467 355 467 213 c 0
 467 69 397 -10 244 -10 c 0
 93 -10 20 69 20 213 c 0
160 211 m 0
 160 75 186 25 244 25 c 0
 304 25 328 75 328 211 c 0
 328 351 304 401 244 401 c 0
 186 401 160 351 160 211 c 0
EndSplineSet
EndChar
StartChar: OE
Encoding: 338 338 69
Width: 905
GlyphClass: 2
Flags: MW
HStem: -10 36<279.5 340.5> 0 35<585 687 687 733.5> 290 35<572 638 572 638> 406 20G<715 749 749 749> 443 154<800 834 800 800> 562 35<580.5 585 585 658> 574 33<280 362.5>
VStem: 30 149<198.5 389> 434 138<90 290 325 526 526 539.5> 715 34<191 219.5 394.5 426> 800 34<443 486> 827 34<133 179>
LayerCount: 2
Back
Fore
SplineSet
30 292 m 0xb3d0
 30 486 127 607 342 607 c 0
 395 607 424 597 471 597 c 2
 834 597 l 1x75e0
 834 443 l 1
 800 443 l 1x79e0
 800 529 757 562 658 562 c 2
 585 562 l 2
 576 562 572 557 572 548 c 2
 572 325 l 1
 638 325 l 2
 683 325 715 363 715 426 c 1
 749 426 l 1
 749 191 l 1
 715 191 l 1
 715 248 679 290 638 290 c 2
 572 290 l 1
 572 48 l 2
 572 39 576 35 585 35 c 2
 687 35 l 2
 780 35 827 87 827 179 c 1
 861 179 l 1
 861 -3 l 1
 844 -1 813 0 766 0 c 2
 479 0 l 2x75d0
 407 0 342 -10 339 -10 c 0
 141 -10 30 105 30 292 c 0xb3d0
179 296 m 0
 179 97 224 26 335 26 c 0
 415 26 434 60 434 90 c 2
 434 526 l 2
 434 553 390 574 335 574 c 0
 225 574 179 498 179 296 c 0
EndSplineSet
Position2: "'cpsp' Capital Spacing lookup 0 per glyph data 2" dx=5 dy=0 dh=10 dv=0
EndChar
StartChar: oe
Encoding: 339 339 180
Width: 768
GlyphClass: 2
Flags: MW
HStem: -10 35<213 274.5 213 276> -10 41<544.5 599.5> 210 32<459 596 596 601.5 459 748 458 596> 401 34<214 273 514 569>
VStem: 20 140<145.5 280 145.5 281> 327 131<152.5 210 152.5 282.5> 614 134<210 315>
LayerCount: 2
Back
Fore
SplineSet
547 435 m 0xbe
 667 435 748 369 748 244 c 2
 748 210 l 1
 458 210 l 1
 458 95 502 31 587 31 c 0
 652 31 700 73 717 112 c 1x7e
 744 93 l 1
 714 29 648 -10 551 -10 c 0
 484 -10 433 6 394 41 c 1
 356 5 310 -10 242 -10 c 0
 94 -10 20 70 20 211 c 0
 20 351 90 435 241 435 c 0
 309 435 359 418 394 384 c 1
 432 419 480 435 547 435 c 0xbe
242 401 m 0
 186 401 160 350 160 210 c 0
 160 81 184 25 242 25 c 0
 307 25 327 77 327 211 c 0
 327 354 304 401 242 401 c 0
543 401 m 0
 485 401 459 336 459 242 c 1
 596 242 l 2
 607 242 614 249 614 271 c 0
 614 359 595 401 543 401 c 0
EndSplineSet
EndChar
StartChar: Racute
Encoding: 340 340 74
Width: 597
GlyphClass: 2
Flags: MW
HStem: 0 29 0 35<74 74 244.5 251> 271 35<231 258 231 294> 562 35<71 71 239 243 243 275>
VStem: 93 138<57 271 306 541 541 546.5> 373 136<406 479.5> 388 135<105.5 137 137 176.5 105.5 186>
AnchorPoint: "Anchor-0" 291 0 basechar 0
LayerCount: 2
Back
Fore
SplineSet
439 789 m 0x7a
 439 782 435 777 426 771 c 2
 259 669 l 2
 254 665 243 660 236 660 c 0
 228 660 224 664 224 670 c 0
 224 678 230 685 241 697 c 2
 336 801 l 2
 353 820 357 826 372 826 c 0
 396 826 439 803 439 789 c 0x7a
39 0 m 1
 39 37 l 1
 74 35 l 2
 87 34 93 42 93 57 c 2
 93 541 l 2
 93 552 87 563 71 562 c 2
 39 560 l 1
 39 597 l 1
 299 597 l 2
 441 597 509 550 509 447 c 0x7c
 509 365 453 309 364 290 c 1
 432 290 523 231 523 122 c 0
 523 89 534 33 552 28 c 0
 560 25 573 25 581 30 c 1xba
 581 0 l 1
 404 0 l 1
 396 16 391 39 390 66 c 0
 389 79 388 92 388 104 c 2
 388 137 l 2
 388 235 323 271 258 271 c 2
 231 271 l 1
 231 57 l 2
 231 42 238 35 251 35 c 2
 300 37 l 1
 300 0 l 1
 39 0 l 1
231 306 m 1
 294 306 l 2
 341 306 373 354 373 434 c 0
 373 525 341 562 275 562 c 2
 243 562 l 2
 235 562 231 559 231 552 c 2
 231 306 l 1
EndSplineSet
EndChar
StartChar: racute
Encoding: 341 341 185
Width: 419
GlyphClass: 2
Flags: MW
HStem: 0 32<53 57.5 205.5 210 25 57.5> 389 46<290 294.5> 394 31<53 57.5>
VStem: 66 131<51 201 333 374 374 379> 299 114<324 333.5>
AnchorPoint: "Anchor-0" 142 0 basechar 0
LayerCount: 2
Back
Fore
SplineSet
85 492 m 0xb0
 77 492 73 496 73 502 c 0
 73 510 79 517 90 529 c 2
 185 633 l 2
 202 652 206 658 221 658 c 0
 245 658 288 635 288 621 c 0
 288 614 284 609 275 603 c 2
 108 501 l 2
 103 497 92 492 85 492 c 0xb0
315 435 m 0xd8
 371 435 413 399 413 345 c 0
 413 303 384 285 353 285 c 0
 328 285 299 297 299 326 c 0
 299 341 306 352 306 367 c 0
 306 377 302 389 287 389 c 0xd8
 231 389 198 278 197 201 c 1
 197 51 l 2
 197 38 201 32 210 32 c 2
 279 34 l 1
 279 0 l 1
 25 0 l 1
 25 34 l 1
 53 32 l 2
 62 32 66 38 66 51 c 2
 66 374 l 2
 66 387 62 394 53 394 c 2
 21 392 l 1
 21 425 l 1
 203 425 l 1
 200 417 197 395 197 379 c 2xb0
 197 333 l 1
 223 407 265 435 315 435 c 0xd8
EndSplineSet
EndChar
StartChar: Rcommaaccent
Encoding: 342 342 76
Width: 597
GlyphClass: 2
Flags: MW
HStem: -141 107<274 281> 0 29 0 35<74 74 244.5 251> 271 35<231 258 231 294> 562 35<71 71 239 243 243 275>
VStem: 93 138<57 271 306 541 541 546.5> 302 73<-179 -91.5> 373 136<406 479.5> 388 135<105.5 137 137 176.5 105.5 186>
AnchorPoint: "Anchor-0" 291 0 basechar 0
LayerCount: 2
Back
Fore
SplineSet
39 0 m 1x3c80
 39 37 l 1
 74 35 l 2
 87 34 93 42 93 57 c 2
 93 541 l 2
 93 552 87 563 71 562 c 2
 39 560 l 1
 39 597 l 1
 299 597 l 2
 441 597 509 550 509 447 c 0x3d
 509 365 453 309 364 290 c 1
 432 290 523 231 523 122 c 0
 523 89 534 33 552 28 c 0
 560 25 573 25 581 30 c 1x5c80
 581 0 l 1
 404 0 l 1
 396 16 391 39 390 66 c 0
 389 79 388 92 388 104 c 2
 388 137 l 2
 388 235 323 271 258 271 c 2
 231 271 l 1
 231 57 l 2
 231 42 238 35 251 35 c 2
 300 37 l 1
 300 0 l 1
 39 0 l 1x3c80
231 306 m 1
 294 306 l 2
 341 306 373 354 373 434 c 0
 373 525 341 562 275 562 c 2
 243 562 l 2
 235 562 231 559 231 552 c 2
 231 306 l 1
255 -229 m 1xbe80
 279 -214 302 -188 302 -170 c 0
 302 -147 288 -141 274 -141 c 0
 248 -141 233 -117 233 -92 c 0
 233 -64 252 -34 296 -34 c 0
 345 -34 375 -72 375 -111 c 0
 375 -175 326 -226 276 -251 c 1
 255 -229 l 1xbe80
EndSplineSet
EndChar
StartChar: rcommaaccent
Encoding: 343 343 187
Width: 419
GlyphClass: 2
Flags: MW
HStem: -141 107<125 132> 0 32<53 57.5 205.5 210 25 57.5> 389 46<290 294.5> 394 31<53 57.5>
VStem: 66 131<51 201 333 374 374 379> 153 73<-179 -91.5> 299 114<324 333.5>
AnchorPoint: "Anchor-0" 142 0 basechar 0
LayerCount: 2
Back
Fore
SplineSet
315 435 m 0x6a
 371 435 413 399 413 345 c 0
 413 303 384 285 353 285 c 0
 328 285 299 297 299 326 c 0
 299 341 306 352 306 367 c 0
 306 377 302 389 287 389 c 0x6a
 231 389 198 278 197 201 c 1
 197 51 l 2
 197 38 201 32 210 32 c 2
 279 34 l 1
 279 0 l 1
 25 0 l 1
 25 34 l 1
 53 32 l 2
 62 32 66 38 66 51 c 2
 66 374 l 2
 66 387 62 394 53 394 c 2
 21 392 l 1
 21 425 l 1
 203 425 l 1
 200 417 197 395 197 379 c 2x58
 197 333 l 1
 223 407 265 435 315 435 c 0x6a
147 -34 m 0xd4
 196 -34 226 -72 226 -111 c 0
 226 -175 177 -226 127 -251 c 1
 106 -229 l 1
 130 -214 153 -188 153 -170 c 0
 153 -147 139 -141 125 -141 c 0
 99 -141 84 -117 84 -92 c 0
 84 -64 103 -34 147 -34 c 0xd4
EndSplineSet
EndChar
StartChar: Rcaron
Encoding: 344 344 75
Width: 597
GlyphClass: 2
Flags: MW
HStem: 0 29 0 35<74 74 244.5 251> 271 35<231 258 231 294> 562 35<71 71 239 243 243 275> 686 60<258 291 291 324>
VStem: 93 138<57 271 306 541 541 546.5> 373 136<406 479.5> 388 135<105.5 137 137 176.5 105.5 186>
AnchorPoint: "Anchor-0" 291 0 basechar 0
LayerCount: 2
Back
Fore
SplineSet
135 816 m 0x7d
 135 819 137 824 147 824 c 0
 159 824 172 817 180 812 c 2
 291 746 l 1
 403 812 l 2
 411 817 424 824 436 824 c 0
 445 824 447 819 447 816 c 0
 447 806 412 780 371 734 c 1
 348 710 l 1
 324 686 l 2
 313 674 301 668 291 668 c 0
 281 668 270 674 258 686 c 2
 234 710 l 1
 211 734 l 1
 170 780 135 806 135 816 c 0x7d
39 0 m 1
 39 37 l 1
 74 35 l 2
 87 34 93 42 93 57 c 2
 93 541 l 2
 93 552 87 563 71 562 c 2
 39 560 l 1
 39 597 l 1
 299 597 l 2
 441 597 509 550 509 447 c 0x7e
 509 365 453 309 364 290 c 1
 432 290 523 231 523 122 c 0
 523 89 534 33 552 28 c 0
 560 25 573 25 581 30 c 1xbd
 581 0 l 1
 404 0 l 1
 396 16 391 39 390 66 c 0
 389 79 388 92 388 104 c 2
 388 137 l 2
 388 235 323 271 258 271 c 2
 231 271 l 1
 231 57 l 2
 231 42 238 35 251 35 c 2
 300 37 l 1
 300 0 l 1
 39 0 l 1
231 306 m 1
 294 306 l 2
 341 306 373 354 373 434 c 0
 373 525 341 562 275 562 c 2
 243 562 l 2
 235 562 231 559 231 552 c 2
 231 306 l 1
EndSplineSet
EndChar
StartChar: rcaron
Encoding: 345 345 186
Width: 419
GlyphClass: 2
Flags: MW
HStem: 0 32<53 57.5 205.5 210 25 57.5> 389 46<290 294.5> 394 31<53 57.5> 524 60<108 141 141 174>
VStem: 66 131<51 201 333 374 374 379> 299 114<324 333.5>
AnchorPoint: "Anchor-0" 142 0 basechar 0
LayerCount: 2
Back
Fore
SplineSet
61 572 m 1xb8
 20 618 -15 644 -15 654 c 0
 -15 657 -13 662 -3 662 c 0
 9 662 22 655 30 650 c 2
 141 584 l 1
 253 650 l 2
 261 655 274 662 286 662 c 0
 295 662 297 657 297 654 c 0
 297 644 262 618 221 572 c 1
 198 548 l 1
 174 524 l 2
 163 512 151 506 141 506 c 0
 131 506 120 512 108 524 c 2
 84 548 l 1
 61 572 l 1xb8
315 435 m 0xdc
 371 435 413 399 413 345 c 0
 413 303 384 285 353 285 c 0
 328 285 299 297 299 326 c 0
 299 341 306 352 306 367 c 0
 306 377 302 389 287 389 c 0xdc
 231 389 198 278 197 201 c 1
 197 51 l 2
 197 38 201 32 210 32 c 2
 279 34 l 1
 279 0 l 1
 25 0 l 1
 25 34 l 1
 53 32 l 2
 62 32 66 38 66 51 c 2
 66 374 l 2
 66 387 62 394 53 394 c 2
 21 392 l 1
 21 425 l 1
 203 425 l 1
 200 417 197 395 197 379 c 2xb8
 197 333 l 1
 223 407 265 435 315 435 c 0xdc
EndSplineSet
EndChar
StartChar: sacute
Encoding: 347 347 189
Width: 415
GlyphClass: 2
Flags: MW
HStem: -10 35<198 241 180 265> 16 127 307 106<330 340.5 318 360 330 330> 401 34<192 234.5 153 251>
VStem: 37.5 36.5 42 103<334.5 336.5> 291 98<91.5 99> 330 33
AnchorPoint: "Anchor-0" 220 0 basechar 0
LayerCount: 2
Back
Fore
SplineSet
366 621 m 0x99
 366 614 362 609 353 603 c 2
 186 501 l 2
 181 497 170 492 163 492 c 0
 155 492 151 496 151 502 c 0
 151 510 157 517 168 529 c 2
 263 633 l 2
 280 652 284 658 299 658 c 0
 323 658 366 635 366 621 c 0x99
35 10 m 1x59
 40 142 l 1x59
 74 144 l 1x99
 74 74 141 25 219 25 c 0
 263 25 291 47 291 84 c 0
 291 114 275 131 227 143 c 1
 155 163 l 2
 76 185 42 229 42 296 c 0
 42 377 100 435 206 435 c 0x96
 263 435 300 413 336 413 c 0
 345 413 357 416 366 421 c 1
 360 307 l 1xa9
 330 307 l 1x99
 330 354 289 401 213 401 c 0
 171 401 145 377 145 347 c 0
 145 322 164 303 200 294 c 2
 269 276 l 2
 367 251 389 202 389 140 c 0
 389 43 316 -10 214 -10 c 0x96
 182 -10 158 -5 94 12 c 0
 82 15 73 16 66 16 c 0
 52 16 41 14 35 10 c 1x59
EndSplineSet
EndChar
StartChar: Scedilla
Encoding: 350 350 80
Width: 498
GlyphClass: 2
Flags: MW
HStem: -214 35<218.5 219 198.5 254> -9 35<228 228> 434 138<414 421 411 447 414 414> 573 34<236 279 183 307.5>
VStem: 47 111<464.5 477.5> 188 59<-67.5 -62.5> 256 88<-145 -124.5> 355 118<130.5 151.5> 414 27<434 518>
AnchorPoint: "Anchor-0" 251 0 basechar 0
LayerCount: 2
Back
Fore
SplineSet
270 -10 m 1xd080
 253 -36 l 2
 249 -43 247 -50 247 -55 c 0xd480
 247 -81 344 -60 344 -122 c 0
 344 -186 281 -214 227 -214 c 0
 210 -214 181 -213 158 -198 c 1
 171 -166 l 1
 179 -175 191 -179 206 -179 c 0
 232 -179 256 -157 256 -133 c 0
 256 -116 239 -103 222 -94 c 1xd280
 199 -80 l 2
 192 -75 188 -70 188 -65 c 0
 188 -60 190 -56 194 -52 c 2
 228 -9 l 1
 207 -7 187 -4 161 3 c 0xd480
 119 14 99 18 83 18 c 0
 69 18 46 14 44 13 c 1
 47 29 48 59 48 90 c 0
 48 139 45 197 40 200 c 1
 73 203 l 1
 87 84 156 26 245 26 c 0
 314 26 354 68 355 128 c 0
 355 175 324 210 259 235 c 1
 161 276 l 2
 86 307 47 359 47 431 c 0
 47 524 114 607 252 607 c 0xd9
 306 607 335 595 387 578 c 0
 398 574 406 572 416 572 c 0
 426 572 436 573 444 576 c 1
 442 560 441 536 441 500 c 0
 441 462 442 449 447 434 c 1xe080
 414 434 l 1xd080
 414 518 347 573 268 573 c 0
 204 573 158 537 158 483 c 0
 158 446 183 417 244 392 c 1
 328 356 l 2
 429 312 473 268 473 182 c 0xd9
 473 79 405 -4 270 -10 c 1xd080
EndSplineSet
EndChar
StartChar: scedilla
Encoding: 351 351 191
Width: 415
GlyphClass: 2
Flags: MW
HStem: -214 35<187.5 188 167.5 223> -9 34<197 197 239 239> 16 127 307 106<330 340.5 318 360 330 330> 401 34<192 234.5 153 251>
VStem: 37.5 36.5 42 103<334.5 336.5> 157 59<-67.5 -62.5> 225 88<-145 -124.5> 291 98<95.5 99> 330 33
AnchorPoint: "Anchor-0" 220 0 basechar 0
LayerCount: 2
Back
Fore
SplineSet
239 -9 m 1xcc20
 222 -36 l 2
 218 -43 216 -50 216 -55 c 0xcd20
 216 -81 313 -60 313 -122 c 0
 313 -186 250 -214 196 -214 c 0
 179 -214 150 -213 127 -198 c 1
 140 -166 l 1
 148 -175 160 -179 175 -179 c 0
 201 -179 225 -157 225 -133 c 0
 225 -116 208 -103 191 -94 c 1xcca0
 168 -80 l 2
 161 -75 157 -70 157 -65 c 0
 157 -60 159 -56 163 -52 c 2
 197 -9 l 1xcd20
 172 -8 146 -2 94 12 c 0
 82 15 73 16 66 16 c 0
 52 16 41 14 35 10 c 1
 40 142 l 1xad20
 74 144 l 1xcc20
 74 74 141 25 219 25 c 0
 263 25 291 47 291 84 c 0
 291 114 275 131 227 143 c 1
 155 163 l 2
 76 185 42 229 42 296 c 0
 42 377 100 435 206 435 c 0xca40
 263 435 300 413 336 413 c 0
 345 413 357 416 366 421 c 1
 360 307 l 1xd420
 330 307 l 1xcc20
 330 354 289 401 213 401 c 0
 171 401 145 377 145 347 c 0
 145 322 164 303 200 294 c 2
 269 276 l 2
 367 251 389 202 389 140 c 0xca40
 389 51 328 -1 239 -9 c 1xcc20
EndSplineSet
EndChar
StartChar: Scaron
Encoding: 352 352 79
Width: 498
GlyphClass: 2
Flags: MW
HStem: -10 36<240 279.5 200.5 328> 434 138<414 421 411 447 414 414> 573 34<236 279 183 307.5> 686 60<218 251 251 284>
VStem: 47 111<464.5 477.5> 355 118<129 151.5> 414 27<434 518>
AnchorPoint: "Anchor-0" 251 0 basechar 0
LayerCount: 2
Back
Fore
SplineSet
95 816 m 0xb2
 95 819 97 824 107 824 c 0
 119 824 132 817 140 812 c 2
 251 746 l 1
 363 812 l 2
 371 817 384 824 396 824 c 0
 405 824 407 819 407 816 c 0
 407 806 372 780 331 734 c 1
 308 710 l 1
 284 686 l 2
 273 674 261 668 251 668 c 0
 241 668 230 674 218 686 c 2
 194 710 l 1
 171 734 l 1
 130 780 95 806 95 816 c 0xb2
40 200 m 1
 73 203 l 1
 87 84 156 26 245 26 c 0
 314 26 354 68 355 128 c 0
 355 175 324 210 259 235 c 1
 161 276 l 2
 86 307 47 359 47 431 c 0
 47 524 114 607 252 607 c 0xbc
 306 607 335 595 387 578 c 0
 398 574 406 572 416 572 c 0
 426 572 436 573 444 576 c 1
 442 560 441 536 441 500 c 0
 441 462 442 449 447 434 c 1xd2
 414 434 l 1xb2
 414 518 347 573 268 573 c 0
 204 573 158 537 158 483 c 0
 158 446 183 417 244 392 c 1
 328 356 l 2
 429 312 473 268 473 182 c 0xbc
 473 76 400 -10 256 -10 c 0
 224 -10 199 -7 161 3 c 0
 119 14 99 18 83 18 c 0
 69 18 46 14 44 13 c 1
 47 29 48 59 48 90 c 0
 48 139 45 197 40 200 c 1
EndSplineSet
Position2: "'cpsp' Capital Spacing lookup 0 per glyph data 2" dx=5 dy=0 dh=10 dv=0
EndChar
StartChar: scaron
Encoding: 353 353 190
Width: 415
GlyphClass: 2
Flags: MW
HStem: -10 35<198 241 180 265> 16 127 307 106<330 340.5 318 360 330 330> 401 34<192 234.5 153 251> 524 60<186 219 219 252>
VStem: 37.5 36.5 42 103<334.5 336.5> 291 98<91.5 99> 330 33
AnchorPoint: "Anchor-0" 220 0 basechar 0
LayerCount: 2
Back
Fore
SplineSet
63 654 m 0x9c80
 63 657 65 662 75 662 c 0
 87 662 100 655 108 650 c 2
 219 584 l 1
 331 650 l 2
 339 655 352 662 364 662 c 0
 373 662 375 657 375 654 c 0
 375 644 340 618 299 572 c 1
 276 548 l 1
 252 524 l 2
 241 512 229 506 219 506 c 0
 209 506 198 512 186 524 c 2
 162 548 l 1
 139 572 l 1
 98 618 63 644 63 654 c 0x9c80
35 10 m 1x5c80
 40 142 l 1x5c80
 74 144 l 1x9c80
 74 74 141 25 219 25 c 0
 263 25 291 47 291 84 c 0
 291 114 275 131 227 143 c 1
 155 163 l 2
 76 185 42 229 42 296 c 0
 42 377 100 435 206 435 c 0x9b
 263 435 300 413 336 413 c 0
 345 413 357 416 366 421 c 1
 360 307 l 1xac80
 330 307 l 1x9c80
 330 354 289 401 213 401 c 0
 171 401 145 377 145 347 c 0
 145 322 164 303 200 294 c 2
 269 276 l 2
 367 251 389 202 389 140 c 0
 389 43 316 -10 214 -10 c 0x9b
 182 -10 158 -5 94 12 c 0
 82 15 73 16 66 16 c 0
 52 16 41 14 35 10 c 1x5c80
EndSplineSet
EndChar
StartChar: uni0162
Encoding: 354 354 84
Width: 544
GlyphClass: 2
Flags: MW
HStem: -214 35<240.5 241 220.5 276> 0 35<184 190 184 257 354.5 361> 444 154<15 482 15 482 63 529 63 496> 563 35<128.5 173 173 191 349.5 353 353 373>
VStem: 15 34<444 484 444 600> 203 138<60 551 551 552> 210 59<-67.5 -62.5> 278 88<-145 -124.5> 496 33<444 484>
AnchorPoint: "Anchor-0" 273 0 basechar 0
LayerCount: 2
Back
Fore
SplineSet
482 598 m 2xdc80
 509 598 524 599 529 600 c 1xdc80
 529 444 l 1
 496 444 l 1xec80
 496 524 462 563 373 563 c 2
 353 563 l 2
 346 563 342 559 341 552 c 1
 341 57 l 2
 341 42 348 35 361 35 c 2
 414 37 l 1
 414 0 l 1
 298 0 l 1
 275 -36 l 2
 271 -43 269 -50 269 -55 c 0xdc80
 269 -81 366 -60 366 -122 c 0
 366 -186 303 -214 249 -214 c 0
 232 -214 203 -213 180 -198 c 1
 193 -166 l 1
 201 -175 213 -179 228 -179 c 0
 254 -179 278 -157 278 -133 c 0
 278 -116 261 -103 244 -94 c 1xd980
 221 -80 l 2
 214 -75 210 -70 210 -65 c 0
 210 -60 212 -56 216 -52 c 2
 257 0 l 1
 130 0 l 1
 130 37 l 1xda80
 184 35 l 2
 196 35 203 47 203 60 c 2
 203 551 l 2
 203 559 199 563 191 563 c 2
 173 563 l 2xdc80
 84 563 49 524 49 444 c 1
 15 444 l 1xec80
 15 600 l 1
 24 599 40 598 63 598 c 2
 482 598 l 2xdc80
EndSplineSet
EndChar
StartChar: uni0163
Encoding: 355 355 196
Width: 325
GlyphClass: 2
Flags: MW
HStem: -214 35<133.5 134 113.5 169> -9 37<185 245.5> -4 21G<147 147> 393 32<10 47.5 10 70 10 47.5 201 300>
VStem: 70 131<89 393> 103 59<-67.5 -62.5> 171 88<-145 -124.5>
AnchorPoint: "Anchor-0" 166 0 basechar 0
LayerCount: 2
Back
Fore
SplineSet
185 -9 m 1xd8
 168 -36 l 2
 164 -43 162 -50 162 -55 c 0xd8
 162 -81 259 -60 259 -122 c 0
 259 -186 196 -214 142 -214 c 0
 125 -214 96 -213 73 -198 c 1
 86 -166 l 1
 94 -175 106 -179 121 -179 c 0
 147 -179 171 -157 171 -133 c 0
 171 -116 154 -103 137 -94 c 1xd2
 114 -80 l 2
 107 -75 103 -70 103 -65 c 0
 103 -60 105 -56 109 -52 c 2xd4
 147 -4 l 1
 100 7 70 35 70 89 c 2xb8
 70 393 l 1
 10 393 l 1
 10 425 l 1
 85 425 107 439 128 527 c 1
 201 527 l 1
 201 425 l 1
 300 425 l 1
 300 393 l 1
 201 393 l 1
 201 87 l 2
 201 38 215 28 238 28 c 0
 253 28 274 41 284 67 c 1
 311 52 l 1
 293 7 254 -9 201 -9 c 2
 185 -9 l 1xd8
EndSplineSet
EndChar
StartChar: Tcaron
Encoding: 356 356 83
Width: 544
GlyphClass: 2
Flags: MW
HStem: 0 35<184 190 354.5 361> 444 154<15 482 15 482 63 496 63 529> 563 35<128.5 173 173 191 349.5 353 353 373> 686 60<240 273 273 306>
VStem: 15 34<444 484 444 600> 203 138<60 551 551 552> 496 33<444 484>
AnchorPoint: "Anchor-0" 273 0 basechar 0
LayerCount: 2
Back
Fore
SplineSet
117 816 m 0xbe
 117 819 119 824 129 824 c 0
 141 824 154 817 162 812 c 2
 273 746 l 1
 385 812 l 2
 393 817 406 824 418 824 c 0
 427 824 429 819 429 816 c 0
 429 806 394 780 353 734 c 1
 330 710 l 1
 306 686 l 2
 295 674 283 668 273 668 c 0
 263 668 252 674 240 686 c 2
 216 710 l 1
 193 734 l 1
 152 780 117 806 117 816 c 0xbe
15 444 m 1xde
 15 600 l 1
 24 599 40 598 63 598 c 2
 482 598 l 2
 509 598 524 599 529 600 c 1xbe
 529 444 l 1
 496 444 l 1xde
 496 524 462 563 373 563 c 2
 353 563 l 2
 346 563 342 559 341 552 c 1
 341 57 l 2
 341 42 348 35 361 35 c 2
 414 37 l 1
 414 0 l 1
 130 0 l 1
 130 37 l 1
 184 35 l 2
 196 35 203 47 203 60 c 2
 203 551 l 2
 203 559 199 563 191 563 c 2
 173 563 l 2xbe
 84 563 49 524 49 444 c 1
 15 444 l 1xde
EndSplineSet
EndChar
StartChar: tcaron
Encoding: 357 357 195
Width: 325
GlyphClass: 2
Flags: MW
HStem: -9 37<226.5 227.5> 393 32<10 47.5 10 70 10 47.5 201 300> 534 97<250.5 306>
VStem: 70 131<89 393> 283 73<503 581.5>
AnchorPoint: "Anchor-0" 166 0 basechar 0
LayerCount: 2
Back
Fore
SplineSet
246 461 m 1
 264 473 283 493 283 513 c 0
 283 529 273 534 262 534 c 0
 239 534 224 551 224 576 c 0
 224 610 251 631 286 631 c 0
 326 631 356 602 356 561 c 0
 356 507 310 460 267 439 c 1
 246 461 l 1
201 527 m 1
 201 425 l 1
 300 425 l 1
 300 393 l 1
 201 393 l 1
 201 87 l 2
 201 38 215 28 238 28 c 0
 253 28 274 41 284 67 c 1
 311 52 l 1
 293 7 254 -9 201 -9 c 0
 125 -9 70 17 70 89 c 2
 70 393 l 1
 10 393 l 1
 10 425 l 1
 85 425 107 439 128 527 c 1
 201 527 l 1
EndSplineSet
EndChar
StartChar: Umacron
Encoding: 362 362 92
Width: 659
GlyphClass: 2
Flags: MW
HStem: -10 41<335.5 433> 561 36 699 47<224 463 224 463>
VStem: 92 138<199 541 541 542> 224 239<699 746 699 746> 532 43<203 541 541 542>
LayerCount: 2
Back
Fore
SplineSet
224 699 m 1xec
 224 746 l 1
 463 746 l 1
 463 699 l 1
 224 699 l 1xec
35 560 m 1xf4
 35 597 l 1
 299 597 l 1
 299 560 l 1
 250 562 l 2
 238 563 230 554 230 542 c 2
 230 199 l 2
 230 83 287 31 384 31 c 0
 491 31 532 103 532 203 c 2
 532 541 l 2
 532 554 525 563 514 562 c 2
 465 560 l 1
 465 597 l 1
 634 597 l 1
 634 560 l 1
 595 562 l 2
 583 563 575 554 575 542 c 2
 575 203 l 2
 575 73 508 -10 358 -10 c 0
 186 -10 92 55 92 199 c 2
 92 541 l 2
 92 552 84 563 73 562 c 2
 35 560 l 1xf4
EndSplineSet
EndChar
StartChar: umacron
Encoding: 363 363 204
Width: 532
GlyphClass: 2
Flags: MW
HStem: -10 47<212.5 219> 0 33 394 31<44 48.5 322 326.5> 565 47<135 374 135 374>
VStem: 57 131<138 375 375 381.5> 135 239<565 612 565 612> 335 131<222 374 374 381>
LayerCount: 2
Back
Fore
SplineSet
374 612 m 1x74
 374 565 l 1
 135 565 l 1
 135 612 l 1
 374 612 l 1x74
479 32 m 1x7a
 512 34 l 1
 512 0 l 1
 329 0 l 1
 332 9 334 20 334 44 c 2x7a
 334 89 l 1
 306 27 256 -10 182 -10 c 0
 95 -10 57 35 57 138 c 2
 57 375 l 2
 57 388 53 394 44 394 c 2
 11 392 l 1
 11 425 l 1
 188 425 l 1
 188 132 l 2
 188 71 193 37 232 37 c 0xba
 281 37 336 104 334 234 c 1
 335 222 l 1
 335 374 l 2
 335 388 331 394 322 394 c 2
 283 392 l 1
 283 425 l 1
 466 425 l 1
 466 51 l 2
 466 40 470 33 479 32 c 1x7a
EndSplineSet
EndChar
StartChar: Uring
Encoding: 366 366 94
Width: 659
GlyphClass: 2
Flags: MW
HStem: -10 41<335.5 433> 561 36 665 41<332 354.5 332 368> 789 42<332 354.5>
VStem: 92 138<199 541 541 542> 256 50<735 760.5 735 771.5> 382 49<735 760.5> 532 43<203 541 541 542>
LayerCount: 2
Back
Fore
SplineSet
256 748 m 0
 256 795 294 831 343 831 c 0
 393 831 431 796 431 748 c 0
 431 700 393 665 343 665 c 0
 292 665 256 700 256 748 c 0
306 748 m 0
 306 722 321 706 343 706 c 0
 366 706 382 722 382 748 c 0
 382 773 366 789 343 789 c 0
 321 789 306 773 306 748 c 0
35 560 m 1xfb
 35 597 l 1
 299 597 l 1
 299 560 l 1
 250 562 l 2
 238 563 230 554 230 542 c 2
 230 199 l 2
 230 83 287 31 384 31 c 0
 491 31 532 103 532 203 c 2
 532 541 l 2
 532 554 525 563 514 562 c 2
 465 560 l 1
 465 597 l 1
 634 597 l 1
 634 560 l 1
 595 562 l 2
 583 563 575 554 575 542 c 2
 575 203 l 2
 575 73 508 -10 358 -10 c 0
 186 -10 92 55 92 199 c 2
 92 541 l 2
 92 552 84 563 73 562 c 2
 35 560 l 1xfb
EndSplineSet
EndChar
StartChar: uring
Encoding: 367 367 206
Width: 532
GlyphClass: 2
Flags: MW
HStem: -10 47<212.5 219> 0 33 394 31<44 48.5 322 326.5> 497 41<243 265.5 243 279> 621 42<243 265.5>
VStem: 57 131<138 375 375 381.5> 167 50<567 592.5 567 603.5> 293 49<567 592.5> 335 131<222 374 374 381>
LayerCount: 2
Back
Fore
SplineSet
254 497 m 0x7b
 203 497 167 532 167 580 c 0
 167 627 205 663 254 663 c 0
 304 663 342 628 342 580 c 0
 342 532 304 497 254 497 c 0x7b
254 621 m 0
 232 621 217 605 217 580 c 0
 217 554 232 538 254 538 c 0
 277 538 293 554 293 580 c 0
 293 605 277 621 254 621 c 0
479 32 m 1x7c80
 512 34 l 1
 512 0 l 1
 329 0 l 1
 332 9 334 20 334 44 c 2x7c80
 334 89 l 1
 306 27 256 -10 182 -10 c 0
 95 -10 57 35 57 138 c 2
 57 375 l 2
 57 388 53 394 44 394 c 2
 11 392 l 1
 11 425 l 1
 188 425 l 1
 188 132 l 2
 188 71 193 37 232 37 c 0xbc80
 281 37 336 104 334 234 c 1
 335 222 l 1
 335 374 l 2
 335 388 331 394 322 394 c 2
 283 392 l 1
 283 425 l 1
 466 425 l 1
 466 51 l 2
 466 40 470 33 479 32 c 1x7c80
EndSplineSet
EndChar
StartChar: Uhungarumlaut
Encoding: 368 368 91
Width: 659
GlyphClass: 2
Flags: MW
HStem: -10 41<335.5 433> 561 36
VStem: 92 138<199 541 541 542> 532 43<203 541 541 542>
LayerCount: 2
Back
Fore
SplineSet
226 685 m 0
 284 792 294 811 299 817 c 0
 305 825 307 826 312 826 c 0
 322 826 359 814 370 810 c 0
 375 808 379 804 379 798 c 0
 379 795 377 791 373 786 c 0
 365 777 349 762 258 677 c 0
 247 667 240 665 234 665 c 0
 226 665 223 670 223 674 c 0
 223 678 224 681 226 685 c 0
353 685 m 0
 411 792 421 811 426 817 c 0
 432 825 434 826 439 826 c 0
 449 826 486 814 497 810 c 0
 502 808 506 804 506 798 c 0
 506 795 504 791 500 786 c 0
 492 777 476 762 385 677 c 0
 374 667 367 665 361 665 c 0
 353 665 350 670 350 674 c 0
 350 678 351 681 353 685 c 0
35 560 m 1
 35 597 l 1
 299 597 l 1
 299 560 l 1
 250 562 l 2
 238 563 230 554 230 542 c 2
 230 199 l 2
 230 83 287 31 384 31 c 0
 491 31 532 103 532 203 c 2
 532 541 l 2
 532 554 525 563 514 562 c 2
 465 560 l 1
 465 597 l 1
 634 597 l 1
 634 560 l 1
 595 562 l 2
 583 563 575 554 575 542 c 2
 575 203 l 2
 575 73 508 -10 358 -10 c 0
 186 -10 92 55 92 199 c 2
 92 541 l 2
 92 552 84 563 73 562 c 2
 35 560 l 1
EndSplineSet
EndChar
StartChar: uhungarumlaut
Encoding: 369 369 203
Width: 532
GlyphClass: 2
Flags: MW
HStem: -10 47<212.5 219> 0 33 394 31<44 48.5 322 326.5>
VStem: 57 131<138 375 375 381.5> 335 131<222 374 374 381>
LayerCount: 2
Back
Fore
SplineSet
152 497 m 0x78
 144 497 141 502 141 506 c 0
 141 510 142 513 144 517 c 0
 202 624 212 643 217 649 c 0
 223 657 225 658 230 658 c 0
 240 658 277 646 288 642 c 0
 293 640 297 636 297 630 c 0
 297 627 295 623 291 618 c 0
 283 609 267 594 176 509 c 0
 165 499 158 497 152 497 c 0x78
268 506 m 0
 268 510 269 513 271 517 c 0
 329 624 339 643 344 649 c 0
 350 657 352 658 357 658 c 0
 367 658 404 646 415 642 c 0
 420 640 424 636 424 630 c 0
 424 627 422 623 418 618 c 0
 410 609 394 594 303 509 c 0
 292 499 285 497 279 497 c 0
 271 497 268 502 268 506 c 0
479 32 m 1
 512 34 l 1
 512 0 l 1
 329 0 l 1
 332 9 334 20 334 44 c 2x78
 334 89 l 1
 306 27 256 -10 182 -10 c 0
 95 -10 57 35 57 138 c 2
 57 375 l 2
 57 388 53 394 44 394 c 2
 11 392 l 1
 11 425 l 1
 188 425 l 1
 188 132 l 2
 188 71 193 37 232 37 c 0xb8
 281 37 336 104 334 234 c 1
 335 222 l 1
 335 374 l 2
 335 388 331 394 322 394 c 2
 283 392 l 1
 283 425 l 1
 466 425 l 1
 466 51 l 2
 466 40 470 33 479 32 c 1
EndSplineSet
EndChar
StartChar: Uogonek
Encoding: 370 370 93
Width: 659
GlyphClass: 2
Flags: MW
HStem: -159 58<465.5 468.5> -10 41<335.5 366.5> 561 36
VStem: 92 138<199 541 541 542> 365 67<-111 -41> 532 43<203 541 541 542>
LayerCount: 2
Back
Fore
SplineSet
465 597 m 1
 634 597 l 1
 634 560 l 1
 595 562 l 2
 583 563 575 554 575 542 c 2
 575 203 l 2
 575 112 542 44 471 11 c 1
 446 -2 432 -27 432 -55 c 0
 432 -80 448 -101 483 -101 c 0
 507 -101 531 -93 553 -80 c 1
 565 -99 l 1
 532 -137 490 -159 447 -159 c 0
 406 -159 365 -135 365 -87 c 0
 365 -57 379 -29 406 -7 c 1
 391 -9 375 -10 358 -10 c 0
 186 -10 92 55 92 199 c 2
 92 541 l 2
 92 552 84 563 73 562 c 2
 35 560 l 1
 35 597 l 1
 299 597 l 1
 299 560 l 1
 250 562 l 2
 238 563 230 554 230 542 c 2
 230 199 l 2
 230 83 287 31 384 31 c 0
 491 31 532 103 532 203 c 2
 532 541 l 2
 532 554 525 563 514 562 c 2
 465 560 l 1
 465 597 l 1
EndSplineSet
EndChar
StartChar: uogonek
Encoding: 371 371 205
Width: 532
GlyphClass: 2
Flags: MW
HStem: -162 58<457.5 460.5> -10 47<212.5 219> 0 33 394 31<44 48.5 322 326.5>
VStem: 57 131<138 375 375 381.5> 335 131<222 374 374 381> 357 67<-114 -46.5>
LayerCount: 2
Back
Fore
SplineSet
545 -83 m 1xbc
 557 -102 l 1
 524 -140 482 -162 439 -162 c 0
 398 -162 357 -138 357 -90 c 0
 357 -56 375 -23 412 0 c 1xba
 329 0 l 1
 332 9 334 20 334 44 c 2xbc
 334 89 l 1
 306 27 256 -10 182 -10 c 0
 95 -10 57 35 57 138 c 2
 57 375 l 2
 57 388 53 394 44 394 c 2
 11 392 l 1
 11 425 l 1
 188 425 l 1
 188 132 l 2
 188 71 193 37 232 37 c 0xdc
 281 37 336 104 334 234 c 1
 335 222 l 1
 335 374 l 2
 335 388 331 394 322 394 c 2
 283 392 l 1
 283 425 l 1
 466 425 l 1
 466 51 l 2
 466 40 470 33 479 32 c 1
 512 34 l 1
 512 0 l 1xbc
 451 0 l 1
 433 -14 424 -35 424 -58 c 0
 424 -83 440 -104 475 -104 c 0xba
 499 -104 523 -96 545 -83 c 1xbc
EndSplineSet
EndChar
StartChar: Wcircumflex
Encoding: 372 372 98
Width: 911
GlyphClass: 2
Flags: MW
HStem: -10 21G<250 299 250 250 644 690 644 644> 562 35<28 32.5 197.5 202 410 410 568.5 574 822 822 901 901> 744 60<449 482>
VStem: 770.5 160.5
LayerCount: 2
Back
Fore
SplineSet
337 666 m 0
 328 666 326 671 326 674 c 0
 326 684 361 710 402 756 c 1
 425 780 l 1
 449 804 l 2
 460 816 472 822 482 822 c 0
 492 822 503 816 515 804 c 2
 539 780 l 1
 562 756 l 1
 603 710 638 684 638 674 c 0
 638 671 636 666 626 666 c 0
 614 666 601 673 593 678 c 2
 482 744 l 1
 370 678 l 2
 362 673 349 666 337 666 c 0
771 597 m 1
 931 597 l 1
 931 560 l 1
 901 562 l 2
 888 563 879 550 876 541 c 2
 690 -10 l 1
 644 -10 l 1
 461 468 l 1
 299 -10 l 1
 250 -10 l 1
 49 540 l 2
 44 555 37 562 28 562 c 2
 -3 560 l 1
 -3 597 l 1
 253 597 l 1
 253 560 l 1
 202 562 l 2
 193 562 189 560 189 551 c 0
 189 550 190 546 192 540 c 2
 321 181 l 1
 439 526 l 1
 437 531 l 2
 429 550 424 563 410 562 c 2
 369 560 l 1
 369 597 l 1
 616 597 l 1
 616 560 l 1
 574 562 l 2
 563 562 561 548 564 540 c 2
 704 160 l 1
 833 542 l 2
 837 553 833 563 822 562 c 2
 770 560 l 1
 771 597 l 1
EndSplineSet
EndChar
StartChar: wcircumflex
Encoding: 373 373 210
Width: 742
GlyphClass: 2
Flags: MW
HStem: -10 21G<187 231 187 187 480 527 480 480> 394 31<29 33 197 197 624 624 692 696> 410 20G<386 434 434 434> 576 60<376 409>
VStem: 571 162<392 425 392 425>
LayerCount: 2
Back
Fore
SplineSet
264 498 m 0xd8
 255 498 253 503 253 506 c 0
 253 516 288 542 329 588 c 1
 352 612 l 1
 376 636 l 2
 387 648 399 654 409 654 c 0
 419 654 430 648 442 636 c 2
 466 612 l 1
 489 588 l 1
 530 542 565 516 565 506 c 0
 565 503 563 498 553 498 c 0
 541 498 528 505 520 510 c 2
 409 576 l 1
 297 510 l 2
 289 505 276 498 264 498 c 0xd8
571 425 m 1
 733 425 l 1
 733 392 l 1
 696 394 l 2
 688 394 680 389 675 377 c 2
 527 -10 l 1
 480 -10 l 1
 358 276 l 1
 231 -10 l 1
 187 -10 l 1
 46 381 l 2
 43 388 37 394 29 394 c 2
 -13 392 l 1
 -13 425 l 1
 241 425 l 1
 241 392 l 1
 197 394 l 2
 182 395 178 385 182 374 c 2xd8
 264 144 l 1
 386 430 l 1
 434 430 l 1xb8
 552 150 l 1
 635 377 l 2
 638 385 639 395 624 394 c 2
 571 392 l 1
 571 425 l 1
EndSplineSet
EndChar
